<svg width="149" height="165" fill="none" xmlns="http://www.w3.org/2000/svg"><path d="M0 16C0 8.458 0 4.686 2.343 2.343S8.458 0 16 0h33.91c7.543 0 11.314 0 13.657 2.343S65.91 8.458 65.91 16v61.458c0 2.792 0 4.188-.455 5.478s-1.33 2.378-3.08 4.553l-33.91 42.139C16.61 144.36 10.682 151.726 5.341 149.844 0 147.961 0 138.506 0 119.597V16ZM82.239 16c0-7.542 0-11.314 2.343-13.657S90.697 0 98.24 0h33.91c7.542 0 11.314 0 13.657 2.343s2.343 6.115 2.343 13.657v61.458c0 2.792 0 4.188-.455 5.478s-1.33 2.378-3.08 4.553l-33.91 42.139c-11.855 14.732-17.783 22.098-23.124 20.216-5.341-1.883-5.341-11.338-5.341-30.247V16Z" fill="#FDE8E1"/></svg>