<svg width="208" height="120" fill="none" xmlns="http://www.w3.org/2000/svg"><path opacity=".1" d="M153.018 118.998c2.207 0 3.997-2.356 3.997-5.262 0-2.905-1.79-5.261-3.997-5.261-2.208 0-3.997 2.356-3.997 5.261 0 2.906 1.789 5.262 3.997 5.262Z" fill="#3F3D56"/><path opacity=".1" d="M156.181 91.229c.56-.978.85-2.088.841-3.216 0-2.911-1.789-5.26-3.997-5.26s-3.995 2.354-3.995 5.26a6.354 6.354 0 0 0 .834 3.216 6.613 6.613 0 0 0 0 6.43 6.617 6.617 0 0 0 0 6.431 6.352 6.352 0 0 0-.834 3.215c0 2.912 1.789 5.261 3.995 5.261 2.206 0 3.997-2.354 3.997-5.261a6.372 6.372 0 0 0-.834-3.215 6.617 6.617 0 0 0 0-6.432 6.613 6.613 0 0 0 0-6.43h-.007Z" fill="#3F3D56"/><path opacity=".1" d="M153.018 86.845c2.207 0 3.997-2.355 3.997-5.261s-1.79-5.261-3.997-5.261c-2.208 0-3.997 2.355-3.997 5.26 0 2.907 1.789 5.262 3.997 5.262Z" fill="#3F3D56"/><path opacity=".1" d="M153.018 80.414c2.207 0 3.997-2.356 3.997-5.261 0-2.906-1.79-5.262-3.997-5.262-2.208 0-3.997 2.356-3.997 5.262 0 2.905 1.789 5.26 3.997 5.26Z" fill="#3F3D56"/><path opacity=".1" d="M167.978 31.146c.546-.7 1.043-1.436 1.488-2.204l-10.495-1.735 11.358.086a19.39 19.39 0 0 0 .362-15.254l-15.24 7.946L169.507 9.6c-3.59-6.232-10.338-9.927-17.491-9.578-7.152.348-13.513 4.683-16.488 11.234a19.344 19.344 0 0 0 2.359 19.889 19.278 19.278 0 0 0-2.182 3.51l13.63 7.123-14.533-4.914a19.34 19.34 0 0 0 3.076 18.078c-6.173 7.893-5.277 19.231 2.057 26.045a19.062 19.062 0 0 0 25.977 0c7.334-6.814 8.23-18.152 2.057-26.044 5.463-6.985 5.463-16.822 0-23.806l.009.008Z" fill="#F8765E"/><path opacity=".1" d="M40.293 111.947c1.348 0 2.44-1.414 2.44-3.159 0-1.745-1.092-3.159-2.44-3.159-1.347 0-2.44 1.414-2.44 3.159 0 1.745 1.093 3.159 2.44 3.159Z" fill="#3F3D56"/><path opacity=".1" d="M42.235 95.273c.34-.588.516-1.254.51-1.932 0-1.744-1.09-3.16-2.442-3.16-1.353 0-2.441 1.416-2.441 3.16a3.777 3.777 0 0 0 .508 1.932 3.92 3.92 0 0 0 0 3.861 3.92 3.92 0 0 0 0 3.861 3.764 3.764 0 0 0-.508 1.93c0 1.747 1.09 3.161 2.44 3.161 1.352 0 2.443-1.414 2.443-3.161a3.765 3.765 0 0 0-.51-1.93 3.91 3.91 0 0 0 0-3.861 3.91 3.91 0 0 0 0-3.861Z" fill="#3F3D56"/><path opacity=".1" d="M40.293 92.64c1.348 0 2.44-1.415 2.44-3.16s-1.092-3.16-2.44-3.16c-1.347 0-2.44 1.415-2.44 3.16s1.093 3.16 2.44 3.16Z" fill="#3F3D56"/><path opacity=".1" d="M40.293 88.778c1.348 0 2.44-1.414 2.44-3.16 0-1.744-1.092-3.158-2.44-3.158-1.347 0-2.44 1.414-2.44 3.159 0 1.745 1.093 3.16 2.44 3.16Z" fill="#3F3D56"/><path opacity=".1" d="M31.158 59.192c-.334-.42-.637-.862-.908-1.323l6.415-1.041-6.938.052a11.47 11.47 0 0 1-.224-9.155l9.303 4.776-8.584-6.246c2.195-3.74 6.316-5.957 10.684-5.746 4.368.21 8.253 2.811 10.07 6.744a11.453 11.453 0 0 1-1.438 11.939c.52.652.967 1.358 1.333 2.105l-8.328 4.28 8.88-2.946a11.461 11.461 0 0 1-1.885 10.857 11.465 11.465 0 0 1-1.257 15.638c-4.48 4.091-11.39 4.091-15.87 0a11.465 11.465 0 0 1-1.257-15.638 11.46 11.46 0 0 1 0-14.296h.004Z" fill="#F8765E"/><path opacity=".1" d="M95.284 114.955c1.808 0 3.273-1.903 3.273-4.251 0-2.348-1.465-4.251-3.273-4.251-1.807 0-3.273 1.903-3.273 4.251 0 2.348 1.466 4.251 3.273 4.251Z" fill="#3F3D56"/><path opacity=".1" d="M97.875 92.516a5.097 5.097 0 0 0 .682-2.6c0-2.347-1.455-4.251-3.275-4.251-1.819 0-3.274 1.904-3.274 4.251-.01.912.226 1.809.684 2.6a5.278 5.278 0 0 0 0 5.196 5.275 5.275 0 0 0 0 5.196 5.078 5.078 0 0 0-.684 2.599c0 2.347 1.466 4.251 3.275 4.251 1.808 0 3.274-1.904 3.274-4.251a5.093 5.093 0 0 0-.682-2.599 5.286 5.286 0 0 0 0-5.196 5.288 5.288 0 0 0 0-5.197Z" fill="#3F3D56"/><path opacity=".1" d="M95.284 88.972c1.808 0 3.273-1.903 3.273-4.251 0-2.348-1.465-4.251-3.273-4.251-1.807 0-3.273 1.903-3.273 4.25 0 2.349 1.466 4.252 3.273 4.252Z" fill="#3F3D56"/><path opacity=".1" d="M95.284 83.775c1.808 0 3.273-1.903 3.273-4.251 0-2.348-1.465-4.251-3.273-4.251-1.807 0-3.273 1.903-3.273 4.251 0 2.348 1.466 4.251 3.273 4.251Z" fill="#3F3D56"/><path opacity=".1" d="M83.038 43.963a15.5 15.5 0 0 1-1.219-1.78l8.6-1.4-9.3.068a15.475 15.475 0 0 1-.3-12.327l12.48 6.422-11.51-8.393c2.93-5.055 8.465-8.058 14.336-7.781 5.871.277 11.093 3.788 13.528 9.096a15.46 15.46 0 0 1-1.973 16.095c.696.88 1.295 1.831 1.786 2.838l-11.163 5.755 11.904-3.972a15.467 15.467 0 0 1-2.527 14.61c5.055 6.377 4.321 15.538-1.686 21.043-6.007 5.506-15.27 5.506-21.278 0-6.007-5.505-6.74-14.666-1.685-21.044a15.466 15.466 0 0 1 0-19.237l.007.007Z" fill="#F8765E"/><path d="M207.541 115.069c0 1.228-9.09 2.351-24.118 3.219-2.733.155-5.661.304-8.767.443a1019.003 1019.003 0 0 1-17.316.617c-9.691.274-20.404.47-31.785.569a1880.524 1880.524 0 0 1-17.359.075c-54.867 0-99.344-2.202-99.344-4.918 0-2.717 44.477-4.918 99.344-4.918 23.622 0 45.314.41 62.364 1.089l1.864.075h.011c21.477.9 35.106 2.254 35.106 3.749Z" fill="#3F3D56"/><path opacity=".15" d="M207.541 115.069c0 1.228-9.09 2.351-24.118 3.219-2.733.155-5.661.304-8.767.443a1019.003 1019.003 0 0 1-17.316.617c-9.691.274-20.404.47-31.785.569a1880.524 1880.524 0 0 1-17.359.075c-54.867 0-99.344-2.202-99.344-4.918 0-2.717 44.477-4.918 99.344-4.918 23.622 0 45.314.41 62.364 1.089l1.864.075h.011c21.477.9 35.106 2.254 35.106 3.749Z" fill="#000"/><path d="M198.689 114.588c0 1.105-9.09 2.117-24.118 2.887-2.731.14-5.662.273-8.766.398-2.685.108-5.497.209-8.438.304-2.85.09-5.809.174-8.878.252-9.692.247-20.405.424-31.786.512a2050.106 2050.106 0 0 1-17.358.067c-54.867 0-99.345-1.98-99.345-4.426s44.478-4.426 99.345-4.426c23.62 0 45.313.368 62.362.98l1.865.067h.012c21.485.822 35.105 2.032 35.105 3.385ZM26.132 75.73l-2.525-8.155 60.473-.698 2.477 8.074-60.425.779Z" fill="#3F3D56"/><path opacity=".15" d="m26.132 75.73-2.525-8.155 60.473-.698 2.477 8.074-60.425.779Z" fill="#000"/><path d="m22.197 75.73-2.525-8.155 60.473-.698 2.478 8.074-60.426.779Z" fill="#9BDBE7"/><path d="M124.165 64.877c-6.164 0-11.023-2.448-14.575-7.344-3.552-4.897-5.328-10.83-5.328-17.796 0-7.014 1.718-12.934 5.153-17.76 3.435-4.825 8.281-7.236 14.537-7.23 6.634 0 11.633 2.542 14.996 7.626 3.363 5.085 5.045 10.97 5.046 17.655 0 6.637-1.74 12.439-5.221 17.405-3.481 4.967-8.35 7.448-14.608 7.444Zm.181-5.508c4.056 0 7.087-1.768 9.093-5.306 2.007-3.537 3.01-7.996 3.01-13.377 0-5.99-1.026-10.894-3.08-14.713-2.054-3.82-5.204-5.73-9.449-5.731-8.07 0-12.106 6.414-12.106 19.242 0 13.258 4.176 19.886 12.528 19.885h.004Zm2.031 52.749h-8.916l58.372-96.39h8.748l-58.204 96.39Zm51.64.989c-6.257 0-11.136-2.471-14.635-7.412-3.499-4.941-5.255-10.874-5.27-17.797 0-6.968 1.706-12.864 5.117-17.69 3.411-4.825 8.269-7.235 14.573-7.23 6.587 0 11.551 2.542 14.891 7.626 3.34 5.085 5.011 10.97 5.012 17.653 0 6.594-1.729 12.385-5.187 17.373-3.458 4.988-8.293 7.48-14.505 7.477h.004Zm.105-5.649c4.036 0 7.051-1.739 9.044-5.216 1.994-3.477 2.99-7.918 2.99-13.323 0-5.785-1.008-10.636-3.026-14.554-2.017-3.918-5.161-5.88-9.429-5.886-8.117 0-12.176 6.413-12.176 19.241-.002 13.16 4.195 19.739 12.593 19.738h.004Z" fill="#3F3D56"/><path d="M124.165 64.877c-6.164 0-11.023-2.448-14.575-7.344-3.552-4.897-5.328-10.83-5.328-17.796 0-7.014 1.718-12.934 5.153-17.76 3.435-4.825 8.281-7.236 14.537-7.23 6.634 0 11.633 2.542 14.996 7.626 3.363 5.085 5.045 10.97 5.046 17.655 0 6.637-1.74 12.439-5.221 17.405-3.481 4.967-8.35 7.448-14.608 7.444Zm.181-5.508c4.056 0 7.087-1.768 9.093-5.306 2.007-3.537 3.01-7.996 3.01-13.377 0-5.99-1.026-10.894-3.08-14.713-2.054-3.82-5.204-5.73-9.449-5.731-8.07 0-12.106 6.414-12.106 19.242 0 13.258 4.176 19.886 12.528 19.885h.004Zm2.031 52.749h-8.916l58.372-96.39h8.748l-58.204 96.39Zm51.64.989c-6.257 0-11.136-2.471-14.635-7.412-3.499-4.941-5.255-10.874-5.27-17.797 0-6.968 1.706-12.864 5.117-17.69 3.411-4.825 8.269-7.235 14.573-7.23 6.587 0 11.551 2.542 14.891 7.626 3.34 5.085 5.011 10.97 5.012 17.653 0 6.594-1.729 12.385-5.187 17.373-3.458 4.988-8.293 7.48-14.505 7.477h.004Zm.105-5.649c4.036 0 7.051-1.739 9.044-5.216 1.994-3.477 2.99-7.918 2.99-13.323 0-5.785-1.008-10.636-3.026-14.554-2.017-3.918-5.161-5.88-9.429-5.886-8.117 0-12.176 6.413-12.176 19.241-.002 13.16 4.195 19.739 12.593 19.738h.004Z" fill="#3F3D56"/><path opacity=".15" d="M124.165 64.877c-6.164 0-11.023-2.448-14.575-7.344-3.552-4.897-5.328-10.83-5.328-17.796 0-7.014 1.718-12.934 5.153-17.76 3.435-4.825 8.281-7.236 14.537-7.23 6.634 0 11.633 2.542 14.996 7.626 3.363 5.085 5.045 10.97 5.046 17.655 0 6.637-1.74 12.439-5.221 17.405-3.481 4.967-8.35 7.448-14.608 7.444Zm.181-5.508c4.056 0 7.087-1.768 9.093-5.306 2.007-3.537 3.01-7.996 3.01-13.377 0-5.99-1.026-10.894-3.08-14.713-2.054-3.82-5.204-5.73-9.449-5.731-8.07 0-12.106 6.414-12.106 19.242 0 13.258 4.176 19.886 12.528 19.885h.004Zm2.031 52.749h-8.916l58.372-96.39h8.748l-58.204 96.39Zm51.64.989c-6.257 0-11.136-2.471-14.635-7.412-3.499-4.941-5.255-10.874-5.27-17.797 0-6.968 1.706-12.864 5.117-17.69 3.411-4.825 8.269-7.235 14.573-7.23 6.587 0 11.551 2.542 14.891 7.626 3.34 5.085 5.011 10.97 5.012 17.653 0 6.594-1.729 12.385-5.187 17.373-3.458 4.988-8.293 7.48-14.505 7.477h.004Zm.105-5.649c4.036 0 7.051-1.739 9.044-5.216 1.994-3.477 2.99-7.918 2.99-13.323 0-5.785-1.008-10.636-3.026-14.554-2.017-3.918-5.161-5.88-9.429-5.886-8.117 0-12.176 6.413-12.176 19.241-.002 13.16 4.195 19.739 12.593 19.738h.004Z" fill="#000"/><path d="M118.264 64.877c-6.165 0-11.023-2.448-14.575-7.344-3.552-4.897-5.328-10.83-5.328-17.796 0-7.014 1.717-12.934 5.152-17.76 3.436-4.825 8.281-7.236 14.537-7.23 6.635 0 11.633 2.542 14.996 7.626 3.363 5.085 5.045 10.97 5.047 17.655 0 6.637-1.741 12.439-5.222 17.405-3.481 4.967-8.35 7.448-14.607 7.444Zm.18-5.508c4.056 0 7.087-1.768 9.094-5.306 2.006-3.537 3.01-7.996 3.01-13.377 0-5.99-1.027-10.894-3.081-14.713-2.054-3.82-5.203-5.73-9.449-5.731-8.07 0-12.105 6.414-12.105 19.242 0 13.258 4.176 19.886 12.528 19.885h.003Zm2.031 52.749h-8.916l58.372-96.39h8.748l-58.204 96.39Zm51.64.989c-6.257 0-11.135-2.471-14.634-7.412-3.499-4.941-5.256-10.874-5.271-17.797 0-6.968 1.706-12.864 5.117-17.69 3.411-4.825 8.269-7.235 14.573-7.23 6.588 0 11.551 2.542 14.891 7.626 3.34 5.085 5.011 10.97 5.012 17.653 0 6.594-1.729 12.385-5.187 17.373-3.458 4.988-8.293 7.48-14.504 7.477h.003Zm.105-5.649c4.036 0 7.051-1.739 9.045-5.216 1.993-3.477 2.99-7.918 2.99-13.323 0-5.785-1.009-10.636-3.027-14.554-2.017-3.918-5.161-5.88-9.433-5.886-8.117 0-12.175 6.413-12.175 19.241 0 13.16 4.199 19.739 12.596 19.738h.004Z" fill="#9BDBE7"/><path d="M137.97 114.09c.747-1.384-.101-3.081-1.076-4.317-.976-1.236-2.165-2.52-2.139-4.095.036-2.26 2.436-3.596 4.35-4.796a21.215 21.215 0 0 0 3.912-3.143 5.745 5.745 0 0 0 1.202-1.61c.397-.884.384-1.89.362-2.858a203.955 203.955 0 0 0-.478-9.672" stroke="#3F3D56" stroke-width="4"/><path d="M147.537 82.946a3.435 3.435 0 0 0-1.718-2.82l-.771 1.525.023-1.847a3.442 3.442 0 1 0 2.466 3.142ZM142.237 107.305a3.439 3.439 0 0 1-6.493-1.781 3.442 3.442 0 0 1 6.66-.992l-2.151 1.75 2.37-.552a3.43 3.43 0 0 1-.386 1.575ZM140.333 100.316a3.454 3.454 0 0 1-2.484-.892 3.43 3.43 0 0 1-.826-3.951 3.454 3.454 0 0 1 2.209-1.907l-.019 1.414.782-1.541a3.447 3.447 0 0 1 3.608 3.275 3.445 3.445 0 0 1-3.286 3.597l.016.005ZM149.208 95.394a3.399 3.399 0 0 1-3.083-1.556 3.472 3.472 0 0 1-.161-3.477 3.405 3.405 0 0 1 2.925-1.84 3.347 3.347 0 0 1 1.824.436l-.602 1.665 1.239-1.2a3.44 3.44 0 0 1 1.017 3.321 3.417 3.417 0 0 1-3.159 2.651Z" fill="#F8765E"/><path opacity=".1" d="M147.146 83.908c-.804.086-1.584.33-2.391.378-.807.049-1.693-.14-2.203-.75-.275-.327-.411-.743-.644-1.102a2.434 2.434 0 0 0-.877-.802 3.313 3.313 0 0 0 .364 3.617 3.535 3.535 0 0 0 3.52 1.215c1.317-.293 2.34-1.301 2.626-2.585a7.388 7.388 0 0 0-.395.03ZM149.222 95.398a3.501 3.501 0 0 1-3.062-1.531 3.413 3.413 0 0 1-.254-3.383c.277.185.514.42.701.694.249.37.399.798.691 1.138.538.632 1.471.837 2.311.8.84-.037 1.653-.274 2.492-.354a5.67 5.67 0 0 1 .358-.02 3.477 3.477 0 0 1-3.237 2.656ZM140.407 100.316a3.537 3.537 0 0 1-2.535-.906 3.477 3.477 0 0 1-.843-4.008c.291.192.543.435.744.717.273.382.445.823.765 1.177.593.654 1.592.886 2.491.864.899-.021 1.711-.23 2.578-.296a3.518 3.518 0 0 1-3.2 2.452ZM140.656 107.199c-.754 1.715-2.538 2.444-4.056 1.658-1.517-.786-2.236-2.81-1.633-4.603.257.196.488.434.685.707.296.419.492.894.835 1.283.641.724 1.668 1.022 2.585 1.05.529.005 1.058-.027 1.584-.095Z" fill="#000"/><path d="M192.069 114.09c.746-1.384-.102-3.081-1.077-4.317-.975-1.236-2.165-2.52-2.139-4.095.036-2.26 2.436-3.596 4.35-4.796a21.215 21.215 0 0 0 3.912-3.143 5.745 5.745 0 0 0 1.202-1.61c.397-.884.384-1.89.363-2.858a205.294 205.294 0 0 0-.479-9.672" stroke="#3F3D56" stroke-width="4"/><path d="M202.619 82.946a3.438 3.438 0 0 0-1.718-2.82l-.771 1.525.023-1.847a3.442 3.442 0 1 0 2.466 3.142ZM196.336 107.305a3.44 3.44 0 0 1-6.494-1.781 3.44 3.44 0 0 1 6.66-.992l-2.151 1.75 2.37-.552a3.44 3.44 0 0 1-.385 1.575ZM194.427 100.316a3.447 3.447 0 0 1-3.603-3.275 3.45 3.45 0 0 1 2.504-3.475l-.02 1.414.781-1.541h.009a3.445 3.445 0 0 1 3.061 1.578 3.434 3.434 0 0 1 .162 3.437 3.448 3.448 0 0 1-2.901 1.857l.007.005ZM203.306 95.394a3.396 3.396 0 0 1-3.082-1.556 3.467 3.467 0 0 1-.161-3.477 3.405 3.405 0 0 1 2.925-1.84 3.35 3.35 0 0 1 1.824.436l-.603 1.665 1.24-1.2a3.442 3.442 0 0 1 1.017 3.321 3.417 3.417 0 0 1-3.16 2.651Z" fill="#F8765E"/><path opacity=".1" d="M202.227 83.908c-.803.086-1.583.33-2.39.378-.807.049-1.693-.14-2.203-.75-.275-.327-.411-.743-.644-1.102a2.442 2.442 0 0 0-.877-.802 3.313 3.313 0 0 0 .364 3.617 3.535 3.535 0 0 0 3.52 1.215c1.317-.293 2.34-1.301 2.626-2.585a7.504 7.504 0 0 0-.396.03ZM203.32 94.415a3.504 3.504 0 0 1-3.062-1.532 3.416 3.416 0 0 1-.253-3.383c.276.185.514.42.7.694.249.37.4.799.692 1.139.537.632 1.47.837 2.31.8.841-.037 1.654-.275 2.492-.354.117-.01.235-.018.358-.022a3.478 3.478 0 0 1-3.237 2.658ZM194.505 100.316a3.539 3.539 0 0 1-2.535-.906 3.48 3.48 0 0 1-1.146-2.417 3.432 3.432 0 0 1 .304-1.591c.29.192.542.435.743.717.273.382.445.823.765 1.177.594.654 1.592.886 2.491.864.872-.018 1.712-.23 2.578-.296a3.517 3.517 0 0 1-3.2 2.452ZM196.721 107.199c-.754 1.715-2.537 2.444-4.055 1.658-1.518-.786-2.236-2.81-1.633-4.603.257.196.487.434.684.707.297.419.493.894.836 1.283.641.724 1.667 1.022 2.584 1.05.529.005 1.058-.027 1.584-.095Z" fill="#000"/><path d="M20.39 111.14c-.747-1.385.102-3.082 1.077-4.318.975-1.236 2.165-2.52 2.14-4.095-.037-2.26-2.437-3.596-4.351-4.796a21.223 21.223 0 0 1-3.912-3.143 5.74 5.74 0 0 1-1.202-1.61c-.397-.884-.384-1.89-.363-2.858.084-3.229.243-6.453.479-9.672" stroke="#3F3D56" stroke-width="4"/><path d="M9.84 80.979a3.437 3.437 0 0 1 1.718-2.82l.77 1.525-.022-1.847a3.443 3.443 0 1 1-2.466 3.142ZM16.123 104.354a3.44 3.44 0 0 0 6.494-1.781 3.442 3.442 0 0 0-6.66-.992l2.151 1.75-2.37-.552c0 .548.133 1.088.385 1.575ZM18.027 97.365a3.456 3.456 0 0 0 2.485-.892 3.435 3.435 0 0 0 .825-3.95 3.452 3.452 0 0 0-2.209-1.908l.02 1.414-.782-1.541a3.446 3.446 0 0 0-3.608 3.275 3.444 3.444 0 0 0 3.285 3.597l-.016.005ZM9.153 92.444a3.398 3.398 0 0 0 3.082-1.557 3.47 3.47 0 0 0 .161-3.477 3.405 3.405 0 0 0-2.925-1.84 3.35 3.35 0 0 0-1.815.436l.602 1.665-1.248-1.195a3.443 3.443 0 0 0-1.017 3.316 3.417 3.417 0 0 0 3.16 2.651Z" fill="#F8765E"/><path opacity=".1" d="M10.232 81.941c.803.085 1.583.33 2.39.378.807.049 1.693-.14 2.203-.75.275-.328.411-.744.644-1.102.22-.334.52-.61.877-.803a3.313 3.313 0 0 1-.364 3.617 3.535 3.535 0 0 1-3.52 1.216c-1.317-.294-2.34-1.301-2.626-2.585.132.006.263.015.396.03ZM9.139 91.464a3.502 3.502 0 0 0 3.062-1.532 3.414 3.414 0 0 0 .253-3.383c-.276.185-.514.421-.7.694-.25.37-.4.799-.692 1.139-.537.632-1.47.837-2.31.8-.84-.037-1.654-.274-2.492-.354a5.716 5.716 0 0 0-.358-.021 3.477 3.477 0 0 0 3.237 2.657ZM17.954 98.349a3.538 3.538 0 0 0 2.535-.906 3.478 3.478 0 0 0 1.146-2.418 3.425 3.425 0 0 0-.304-1.59 2.82 2.82 0 0 0-.743.717c-.273.382-.445.823-.765 1.177-.594.654-1.592.886-2.491.864-.872-.018-1.711-.23-2.578-.296a3.517 3.517 0 0 0 3.2 2.452ZM17.705 104.249c.754 1.714 2.538 2.443 4.055 1.657 1.518-.786 2.236-2.81 1.634-4.602a3.334 3.334 0 0 0-.685.706c-.297.419-.492.894-.835 1.284-.642.723-1.668 1.021-2.585 1.049-.53.005-1.058-.026-1.584-.094Z" fill="#000"/><path d="M121.967 94.773a2.897 2.897 0 0 0-1.118-2.317c-.043-1.697-1.227-3.083-2.748-3.297a3.328 3.328 0 0 0-2.186-2.502 2.723 2.723 0 0 0-.407-.098h-.039l-.071-.01h-.373c-1.552 0-2.844 1.214-3.11 2.815-1.004-.237-1.925.07-2.089.72a.895.895 0 0 0 .027.52c.17.503.724.984 1.474 1.223l.098.03c.049.014.098.025.147.037h.032c-.573 1.25-.087 2.74 1.106 3.388a.571.571 0 0 0-.066.042.943.943 0 0 0-.217.311 4.567 4.567 0 0 0-.419 1.035c-.073.309-.085.632-.181.938-.165.555-.588 1.041-.637 1.632-.022.263.02.572-.163.751-.045.04-.094.077-.145.109-.128.09-.236.206-.318.341a1.089 1.089 0 0 1-.212.3c-.164.127-.436.114-.517.31-.082.197.128.428.079.643-.039.173-.226.253-.361.37a1.32 1.32 0 0 0-.308.597 1.84 1.84 0 0 1-1.543-.401c.073.19.126.388.159.59-.215-.235-.57-.303-.832-.426a2.655 2.655 0 0 1-.887-.673l.474-.067-2.098-3.257-.619-.129.555 1.09a.342.342 0 0 0-.181.233c-.029.12-.037.246-.021.37.029.292.077.582.143.868l.161.766c.013.072.031.143.052.213a2.042 2.042 0 0 0-.622.072 5.414 5.414 0 0 0-1.29-.313.65.65 0 0 0-.291.015.708.708 0 0 0-.272.226 8.9 8.9 0 0 0-.959 1.38c-1.127 2.006-2.632 3.757-4.041 5.57-.974.405-1.954.79-2.937 1.171l-2.111.824c-.421.165-.86.333-1.308.303-.203-.013-.449-.044-.563.132a1.124 1.124 0 0 0-.128.281c-.074 0-.148.019-.217.022h-.013c-.134-.34-.25-.705-.506-.953a.317.317 0 0 0-.24.185c-.05.096-.08.202-.139.291-.114.17-.31.253-.452.398-.141.144-.23.37-.382.51a1.491 1.491 0 0 1-.723.287c-.392.094-.77.241-1.124.437-.13.082-.27.148-.416.196-.16.031-.325.037-.487.017l-1.118-.084a.856.856 0 0 0-.298.013.57.57 0 0 0-.362.587.917.917 0 0 0 .353.629c.194.146.409.26.637.339.971.385 1.973.685 2.994.897v.232a5 5 0 0 0 2.281.555.344.344 0 0 0 .17-.032.388.388 0 0 0 .143-.229 9.629 9.629 0 0 0 .447-2.241c.14-.009.277-.045.403-.106.386-.107.768.163 1.164.208.488.053.942-.237 1.404-.417.067-.026.134-.048.2-.07a2.275 2.275 0 0 1-.46.457c-.193.141-.408.244-.596.39-.156.147-.324.28-.501.398-.125.06-.254.111-.386.152a2.6 2.6 0 0 0-.542.279c-.152.092-.281.219-.377.371a.515.515 0 0 0-.046.49c.068.16.213.273.383.298.151.027.305.032.458.013.604-.046 1.206-.104 1.809-.159.255-.018.508-.055.758-.111.132-.034.262-.078.394-.113.226-.061.457-.096.69-.106a.568.568 0 0 1 .2.021c.142.046.241.185.384.222a.58.58 0 0 0 .273-.039 6.125 6.125 0 0 1 1.343-.146c.197-.011.428-.05.52-.237.113-.232-.075-.491-.15-.74a2.288 2.288 0 0 1-.061-.485 3.078 3.078 0 0 0-.333-1.153 3.15 3.15 0 0 1-.248-.526 12.938 12.938 0 0 0 2.468-1.28c.445-.283.904-.589 1.407-.692.587-.12 1.191.039 1.768.209 1.375.407 2.727.889 4.051 1.445.633.265 1.266.546 1.914.74.189.262.418.49.678.678.434.286.965.37 1.475.41.689.065 1.381.091 2.073.08.528-.009 1.073-.046 1.545-.292.115-.061.224-.134.324-.219.362.067.733-.131 1.017-.385.376-.327.647-.762.778-1.249.166-.668.038-1.447.439-1.993.107-.146.246-.264.351-.412.129-.199.193-.434.181-.672l.018-.028a2.52 2.52 0 0 0 .181-.673c.048-.182.108-.359.181-.531.204-.517.382-1.044.532-1.579.105-.355.187-.716.246-1.082.043-.293.069-.587.092-.881.029-.461.117-.915.261-1.353.357-1.044.559-2.137.599-3.242v-.064c1.088-.123 1.907-1.072 1.89-2.192a2.36 2.36 0 0 0-.195-.945c.249-.448.379-.956.376-1.471Zm-10.231 12.714c.031.113.067.226.103.339-.166-.169-.331-.342-.499-.509.067.02.134.043.199.067.069.028.136.062.199.103h-.002Zm-.81-.555c-.988-.877-2.131-1.558-3.143-2.405.543.279 1.086.603 1.628.914.632.37 1.272.724 1.918 1.062a1.6 1.6 0 0 1-.398.422l-.005.007Zm.421-2.209.047-.05v.346c-.088-.03-.181-.059-.266-.093.078-.065.152-.135.221-.211l-.002.008Zm-8.696 2.376c.406-.471.76-.987 1.054-1.538.391.701 1.028 1.206 1.571 1.793a26.612 26.612 0 0 0-2.624-.263l-.001.008Z" fill="url('#paint0_linear_20_26')"/><path d="m104.262 97.37.447.146 1.521 3.641-.672.147-1.296-3.935Z" fill="#2F2E41"/><path d="M89.508 111.167c.123.327.275.646.453.956.515-.086 1.02-.202 1.514-.347-.095-.12-.2-.235-.314-.343a1.474 1.474 0 0 0-.428-.265c-.157-.055-.352-.014-.52-.006-.234.007-.47.008-.705.005Z" fill="#FBBEBE"/><path d="M90.385 111.805c-.339-.103-.547-.432-.685-.75s-.25-.665-.511-.899a.303.303 0 0 0-.231.168c-.05.084-.08.18-.138.261-.109.152-.3.226-.439.355-.138.13-.224.327-.372.456a1.508 1.508 0 0 1-.699.259c-.38.083-.749.215-1.094.391a1.95 1.95 0 0 1-.405.168 1.567 1.567 0 0 1-.474.015l-1.088-.076a.883.883 0 0 0-.29.014.504.504 0 0 0-.35.525c.03.227.156.431.35.563.189.131.397.233.618.303.948.344 1.924.612 2.918.803v.207c.69.329 1.45.502 2.221.505a.36.36 0 0 0 .175-.029.35.35 0 0 0 .14-.205 8 8 0 0 0 .452-2.278 1.65 1.65 0 0 0-.045-.586c-.06-.188.143-.109-.046-.183" fill="#2F2E41"/><path d="M112.003 107.051c-3.389.188-6.737-.723-10.132-.821a5.588 5.588 0 0 0-1.259.074 6.52 6.52 0 0 0-1.247.444c-1.82.776-3.702 1.418-5.583 2.061l-2.158.736c-.433.147-.88.296-1.34.271-.206-.012-.457-.04-.574.118-.35.476-.184 1.177.047 1.712.075.169.202.362.404.382.143-.009.283-.041.413-.096.393-.096.785.147 1.19.185.5.049.965-.212 1.436-.371.782-.265 1.637-.256 2.46-.382 1.38-.211 2.657-.798 3.853-1.467.455-.254.918-.526 1.439-.619.6-.108 1.218.034 1.808.187 1.404.364 2.787.796 4.142 1.293.705.281 1.428.523 2.165.723a8.497 8.497 0 0 0 4.852-.259c.551-.196 1.131-.543 1.162-1.079.018-.307-.24-.576-.413-.841-.112-.169-.222-.337-.343-.497-.584-.78-1.292-1.811-2.322-1.754Z" fill="#2F2E41"/><path opacity=".1" d="M112.003 107.051c-3.389.188-6.737-.723-10.132-.821a5.588 5.588 0 0 0-1.259.074 6.52 6.52 0 0 0-1.247.444c-1.82.776-3.702 1.418-5.583 2.061l-2.158.736c-.433.147-.88.296-1.34.271-.206-.012-.457-.04-.574.118-.35.476-.184 1.177.047 1.712.075.169.202.362.404.382.143-.009.283-.041.413-.096.393-.096.785.147 1.19.185.5.049.965-.212 1.436-.371.782-.265 1.637-.256 2.46-.382 1.38-.211 2.657-.798 3.853-1.467.455-.254.918-.526 1.439-.619.6-.108 1.218.034 1.808.187 1.404.364 2.787.796 4.142 1.293.705.281 1.428.523 2.165.723a8.497 8.497 0 0 0 4.852-.259c.551-.196 1.131-.543 1.162-1.079.018-.307-.24-.576-.413-.841-.112-.169-.222-.337-.343-.497-.584-.78-1.292-1.811-2.322-1.754Z" fill="#000"/><path d="M96.393 111.608c.401.186.805.358 1.211.515.229-.513.656-.868.752-1.453a.186.186 0 0 0 0-.078.128.128 0 0 0-.045-.057 1.842 1.842 0 0 0-.95-.378c-.262-.023-.382.352-.5.615-.042.106-.36.886-.468.836Z" fill="#FBBEBE"/><path d="M96.326 110.893a1.072 1.072 0 0 1-.723-.466c-.07-.119-.142-.279-.282-.271-.139.009-.187.159-.215.284a8.03 8.03 0 0 1-.407 1.372 2.573 2.573 0 0 1-.868 1.12c-.182.124-.384.217-.562.348-.149.13-.308.248-.476.354-.118.053-.24.098-.365.133a2.56 2.56 0 0 0-.522.249 1.06 1.06 0 0 0-.355.334.494.494 0 0 0-.03.468.513.513 0 0 0 .34.236c.142.023.288.026.432.01.573-.042 1.144-.092 1.715-.142.242-.015.482-.047.719-.097.125-.03.248-.07.372-.102.214-.054.433-.085.654-.094a.582.582 0 0 1 .19.019c.133.041.226.167.362.197a.568.568 0 0 0 .258-.034c.418-.087.844-.13 1.271-.13.187-.01.408-.045.493-.21.107-.206-.07-.436-.14-.657a2.016 2.016 0 0 1-.06-.431 2.596 2.596 0 0 0-.315-1.024c-.146-.263-.34-.554-.243-.835a.721.721 0 0 0 .097-.285c-.024-.453-1.082-.286-1.34-.346Z" fill="#2F2E41"/><path d="M107.173 103.016c-.61-.24-1.099-.672-1.372-1.213-.056-.117-.104-.238-.159-.356a2.749 2.749 0 0 0-.82-1.012.42.42 0 0 0-.304-.115.308.308 0 0 0-.224.213.793.793 0 0 0-.024.332c.032.257.082.513.149.765l.168.677c.021.104.056.206.105.302.071.114.166.215.279.297.153.127.308.248.465.366.086.069.18.13.281.182.165.07.342.116.524.136.684.113 1.38.276 1.956.664 0 0 0-.453-.013-.498a.62.62 0 0 0-.146-.363c-.216-.208-.589-.269-.865-.377Z" fill="#FBBEBE"/><path opacity=".1" d="M107.173 103.016c-.61-.24-1.099-.672-1.372-1.213-.056-.117-.104-.238-.159-.356a2.749 2.749 0 0 0-.82-1.012.42.42 0 0 0-.304-.115.308.308 0 0 0-.224.213.793.793 0 0 0-.024.332c.032.257.082.513.149.765l.168.677c.021.104.056.206.105.302.071.114.166.215.279.297.153.127.308.248.465.366.086.069.18.13.281.182.165.07.342.116.524.136.684.113 1.38.276 1.956.664 0 0 0-.453-.013-.498a.62.62 0 0 0-.146-.363c-.216-.208-.589-.269-.865-.377Z" fill="#000"/><path d="M114.59 96.894a1 1 0 1 0 0-2 1 1 0 0 0 0 2Z" fill="#2F2E41"/><path d="M113.765 95.425a.863.863 0 0 0-.635.095.89.89 0 0 0-.216.31 4.477 4.477 0 0 0-.419 1.026c-.071.307-.084.628-.179.932-.164.56-.586 1.035-.635 1.619-.021.261.02.569-.162.746-.046.04-.094.075-.145.106a1.133 1.133 0 0 0-.317.34c-.055.121-.13.23-.224.322-.164.127-.434.114-.515.31-.08.196.127.423.079.636-.039.173-.225.254-.358.373a1.31 1.31 0 0 0-.306.595 1.836 1.836 0 0 1-1.536-.401c.223.576.229 1.212.238 1.833a.783.783 0 0 1-.142.56c.641.015 1.263.186 1.888.341.267.093.555.093.822 0 .143-.08.271-.186.378-.313.34-.36.696-.746.778-1.248.022-.282.026-.566.014-.849.033-.349.102-.693.206-1.027.18-.693.299-1.402.358-2.117.037-.442.402-.796.595-1.192.358-.746.734-1.52.762-2.355.025-.272-.064-.606-.329-.642Z" fill="#2F2E41"/><path opacity=".1" d="M113.765 95.425a.863.863 0 0 0-.635.095.89.89 0 0 0-.216.31 4.477 4.477 0 0 0-.419 1.026c-.071.307-.084.628-.179.932-.164.56-.586 1.035-.635 1.619-.021.261.02.569-.162.746-.046.04-.094.075-.145.106a1.133 1.133 0 0 0-.317.34c-.055.121-.13.23-.224.322-.164.127-.434.114-.515.31-.08.196.127.423.079.636-.039.173-.225.254-.358.373a1.31 1.31 0 0 0-.306.595 1.836 1.836 0 0 1-1.536-.401c.223.576.229 1.212.238 1.833a.783.783 0 0 1-.142.56c.641.015 1.263.186 1.888.341.267.093.555.093.822 0 .143-.08.271-.186.378-.313.34-.36.696-.746.778-1.248.022-.282.026-.566.014-.849.033-.349.102-.693.206-1.027.18-.693.299-1.402.358-2.117.037-.442.402-.796.595-1.192.358-.746.734-1.52.762-2.355.025-.272-.064-.606-.329-.642Z" fill="#000"/><path d="M112.063 109.047c-.695-.326-1.202-.932-1.763-1.452-1.072-.992-2.382-1.693-3.508-2.623-.746-.615-1.413-1.332-2.234-1.848a5.61 5.61 0 0 0-2.394-.827.67.67 0 0 0-.292.014.704.704 0 0 0-.272.214 8.325 8.325 0 0 0-.966 1.307c-1.427 2.387-3.454 4.395-5.134 6.616a.294.294 0 0 0-.02.402l.34.66c.192.368.499.799.903.726.186-.053.352-.157.478-.301l1.535-1.446 1.608-1.515c.942-.889 1.9-1.797 2.515-2.931.48.82 1.332 1.357 1.917 2.109.222.285.402.599.601.902.319.485.68.941 1.041 1.394l1.846 2.321c.233.331.522.62.854.854.437.272.969.345 1.483.39.693.062 1.389.087 2.085.074.531-.009 1.083-.042 1.552-.275.469-.233.868-.712.843-1.233a1.817 1.817 0 0 0-.266-.77c-.651-1.192-1.514-2.188-2.752-2.762Z" fill="#2F2E41"/><path d="M114.59 96.894a1 1 0 1 0 0-2 1 1 0 0 0 0 2Z" fill="#E8E8F0"/><path d="M115.037 96.587c.154.31.181.67.075 1a3.908 3.908 0 0 1-.44.92 4.588 4.588 0 0 1-.574.825c1.058.052 2.083-.366 3.016-.874.752-.4 1.502-.91 1.902-1.673a.874.874 0 0 1-.7-.13 2.629 2.629 0 0 1-.538-.504l-.529-.6a2.434 2.434 0 0 1-.328-.434 1.21 1.21 0 0 1-.14-.699c-.211.223-.447.42-.703.588-.379.25-.793.43-1.176.677-.135.088-.435.23-.357.4.077.17.385.312.492.504Z" fill="#FBBEBE"/><path opacity=".1" d="M115.037 96.587c.154.31.181.67.075 1a3.908 3.908 0 0 1-.44.92 4.588 4.588 0 0 1-.574.825c1.058.052 2.083-.366 3.016-.874.752-.4 1.502-.91 1.902-1.673a.874.874 0 0 1-.7-.13 2.629 2.629 0 0 1-.538-.504l-.529-.6a2.434 2.434 0 0 1-.328-.434 1.21 1.21 0 0 1-.14-.699c-.211.223-.447.42-.703.588-.379.25-.793.43-1.176.677-.135.088-.435.23-.357.4.077.17.385.312.492.504Z" fill="#000"/><path d="M114.654 95.506a.84.84 0 0 0 0 .923c.024.033.119.244.166.246a.149.149 0 0 0 .101-.055 7.47 7.47 0 0 0 .562-.708c.175-.252.428-.429.714-.5.347-.058.681.138.986.326.13.07.244.17.332.294.064.123.102.26.111.4.087.844.121 1.694.1 2.542.016.612-.022 1.225-.113 1.829-.057.312-.141.616-.181.931a6.672 6.672 0 0 0-.035.836v1.168c-.007.214.007.429.043.639.069.252.149.499.241.742.081.289.137.586.166.885l.15 1.21c.048.382.083.798-.135 1.104-.096.14-.226.25-.332.388-.374.506-.249 1.241-.416 1.869a2.384 2.384 0 0 1-.721 1.178c-.264.239-.606.428-.949.354-.46-.092-.737-.604-.864-1.087-.126-.483-.166-1.011-.443-1.416-.223-.335-.567-.544-.878-.783-.31-.239-.616-.545-.684-.949-.03-.177-.012-.354-.028-.531a1.259 1.259 0 0 0-.735-1.027c-.236-.097-.528-.133-.664-.354.338-.226.584-.579.691-.989.103-.405.159-.821.166-1.24l.08-1.405c.035-.629.051-1.252.31-1.817.117-.251.261-.488.381-.738.16-.35.297-.712.409-1.083.187-.576.377-1.153.545-1.735.067-.282.167-.554.299-.81.154-.265.359-.584.625-.637Z" fill="#E8E8F0"/><path d="m111.199 105.225.481.013.103-.582c.014-.116.048-.23.101-.339.08-.115.173-.224.277-.325.475-.536.441-1.247.558-1.899.155-.868.609-1.682 1.059-2.482l.935-1.668c.083-.137.15-.28.199-.428.041-.162.06-.328.058-.493 0-.257.105-1.195.112-1.453 0-.096-.261-.043-.316-.127-.117-.183-.278.316-.498.426a1.006 1.006 0 0 0-.431.504c-.202.42-.325.863-.513 1.285a2.626 2.626 0 0 1-.874 1.135c-.19.136-.412.243-.593.386-.583.46-.638 1.187-.658 1.834-.014.402-.108 4.213 0 4.213Z" fill="#2F2E41"/><path d="M116.532 95.445c-.356.148-.563.556-.665.953-.101.397-.144.816-.34 1.168-.457.827-1.621 1.068-1.944 1.961a3.72 3.72 0 0 0-.13.927c-.057.64-.26 1.259-.321 1.899-.031.497-.02.997.034 1.492l.408 5.048a6.929 6.929 0 0 1-.123 2.225c.419.062.846-.011 1.223-.21.384-.185.733-.43 1.101-.641.633-.371 1.331-.621 1.884-1.112.1-.082.187-.18.255-.292.089-.212.149-.436.178-.665.047-.179.107-.353.179-.523.205-.509.383-1.029.535-1.557.104-.351.185-.708.244-1.07.045-.287.068-.578.093-.867.028-.455.115-.904.258-1.335a11.08 11.08 0 0 0 .594-3.198 1.69 1.69 0 0 0-.03-.471 2.636 2.636 0 0 0-.246-.534c-.17-.332-.271-.697-.432-1.033-.357-.76-.997-1.336-1.665-1.82-.343-.236-.719-.492-1.09-.345Z" fill="#2F2E41"/><path d="M108.722 102.888a2.984 2.984 0 0 1-.781-.572c-.102-.117-.179-.247-.291-.361a1.926 1.926 0 0 0-.982-.541 4.88 4.88 0 0 0-1.138-.106 2.08 2.08 0 0 0-.756.089.748.748 0 0 0-.502.52c-.056.294.143.581.382.768.222.175.483.298.763.359.228.038.458.064.689.078 1.358.137 2.569.849 3.758 1.499 1.045.57 2.11 1.104 3.195 1.601.043-.314.061-.631.054-.947 0-.236-.018-.596-.249-.735-.27-.163-.718-.199-1.016-.297a16.306 16.306 0 0 1-3.126-1.355ZM114.59 95.402a2.459 2.459 0 1 0 0-4.918 2.459 2.459 0 0 0 0 4.918Z" fill="#FBBEBE"/><path d="M117.757 98.676c-.213.283-.388.59-.52.915-.333.645-.853 1.197-1.112 1.879-.275.708-.265 1.552-.797 2.11a.728.728 0 0 0-.233.319 1.487 1.487 0 0 1-.028.231c-.076.203-.428.212-.494.419-.018.06 0 .126-.032.188-.054.133-.239.152-.365.233-.261.167-.199.554-.398.794a.731.731 0 0 1-.67.222 2.549 2.549 0 0 1-.697-.246.64.64 0 0 0-.249-.073.527.527 0 0 0-.289.092c-.496.297-.729.887-.725 1.443.035.556.174 1.102.412 1.612a.665.665 0 0 0 .138.24c.163.163.45.137.669.045.205-.115.424-.207.652-.274.414-.072.821.199 1.241.176.308-.044.597-.164.839-.349a4.575 4.575 0 0 0 1.132-.911c.183-.228.319-.487.48-.729.206-.298.433-.583.678-.853l1.548-1.787c.155-.169.295-.35.416-.543.14-.259.249-.533.325-.815.166-.471.274-.958.321-1.452a5.428 5.428 0 0 0-.114-1.219 4.07 4.07 0 0 0-.332-1.16c-.345-.657-1.164-1.202-1.796-.507Z" fill="#2F2E41"/><path d="M122.951 95.082a2.596 2.596 0 0 0-1.086-2.12c-.021-1.513-1.149-2.79-2.665-3.016-.292-1.433-1.587-2.451-3.067-2.412-1.48.04-2.717 1.125-2.931 2.572-.975-.217-1.866.065-2.028.658-.174.62.522 1.346 1.553 1.621.322.09.659.124.993.098a3.061 3.061 0 0 0 2.099 1.29 3.1 3.1 0 0 0 2.289 2.332c.156.372.397.703.706.966 0 .072-.012.146-.012.222-.031.72.341 1.398.967 1.767a2.007 2.007 0 0 0 2.034 0 1.957 1.957 0 0 0 .967-1.767c0-.297-.065-.59-.19-.86.245-.409.373-.876.371-1.35Z" fill="#F86D70"/><path opacity=".1" d="M110.854 89.887c.161-.589 1.038-.868 2.015-.653.234-1.459 1.499-2.538 2.996-2.558h.201a2.987 2.987 0 0 0-.865-.127c-1.497.02-2.762 1.1-2.996 2.558-.969-.215-1.854.065-2.015.653-.172.616.519 1.336 1.543 1.609.19.052.385.085.582.099-.971-.28-1.625-.98-1.461-1.581ZM118.705 97.386c0-.078 0-.153.012-.229a2.634 2.634 0 0 1-.697-.986 3.131 3.131 0 0 1-2.258-2.386 2.998 2.998 0 0 1-2.07-1.318c-.193.016-.386.01-.577-.016a2.99 2.99 0 0 0 1.995 1.213 3.119 3.119 0 0 0 2.258 2.384c.154.38.392.719.697.988 0 .074-.012.15-.012.227-.018 1.121.851 2.047 1.947 2.073a2.071 2.071 0 0 1-1.295-1.95Z" fill="#000"/><path d="M115.743 94.688a1 1 0 1 0-1.209-1.593 1 1 0 0 0 1.209 1.593Z" fill="#FBBEBE"/><path d="m57.008 106.455 2.252-1.379a5.592 5.592 0 0 0-1.152-1.434l-4.246 1.375 3.326-2.037a5.225 5.225 0 0 0-5.356.094c-1.644 1.015-2.652 2.857-2.652 4.847 0 3.111 2.423 3.219 5.41 3.219s5.41-.108 5.41-3.219a5.786 5.786 0 0 0-.465-2.288l-2.527.822Z" fill="#F8765E"/><path opacity=".1" d="M58.213 109.584a4.489 4.489 0 0 0-.858-.612c-.438-.266-.894-.536-1.412-.625-.455-.08-.924-.012-1.387-.037a3.392 3.392 0 0 1-2.125-.884c-.331-.31-.591-.691-.99-.929a2.353 2.353 0 0 0-1.479-.246 4.032 4.032 0 0 0-.438.081 4.846 4.846 0 0 0-.344 1.792c0 2.915 2.605 3.016 5.817 3.016 1.56 0 2.974-.023 4.02-.381l-.182-.296a4.078 4.078 0 0 0-.622-.879Z" fill="#000"/><defs><linearGradient id="paint0_linear_20_26" x1="102.79" y1="116.058" x2="102.79" y2="86.518" gradientUnits="userSpaceOnUse"><stop stop-color="gray" stop-opacity=".25"/><stop offset=".54" stop-color="gray" stop-opacity=".12"/><stop offset="1" stop-color="gray" stop-opacity=".1"/></linearGradient></defs></svg>