<svg width="190" height="141" fill="none" xmlns="http://www.w3.org/2000/svg"><path opacity=".1" d="M105.226 19.312c-11.295-.388-22.052-4.011-32.325-7.974C62.63 7.375 52.454 2.985 41.423.884c-7.091-1.35-15.201-1.54-20.914 2.237-5.499 3.64-7.275 9.905-8.23 15.727-.719 4.379-1.141 8.989.827 13.088 1.369 2.847 3.796 5.24 5.473 7.965 5.842 9.487 1.712 21.184-4.616 30.448-2.967 4.345-6.414 8.495-8.705 13.115-2.292 4.62-3.344 9.925-1.339 14.652 1.986 4.681 6.721 8.19 11.85 10.66 10.418 5.019 22.688 6.454 34.662 7.269 26.498 1.799 53.136 1.021 79.703.239 9.833-.289 19.707-.58 29.379-2.092 5.372-.838 10.917-2.169 14.817-5.374 4.95-4.079 6.177-10.986 2.859-16.102-5.564-8.58-20.943-10.71-24.836-19.917-2.14-5.07.057-10.714 3.169-15.414 6.674-10.084 17.859-18.93 18.449-30.455.403-7.916-4.974-15.844-13.288-19.59-8.714-3.925-20.8-3.43-27.226 3.067-6.623 6.674-18.257 9.25-28.231 8.905Z" fill="#F8765E"/><path d="M18.095 119.113s3.572-.669 5.715 2.286c0 0-1.572 1.449-4.953-.558l-.762-1.728Z" fill="#F8765E"/><path d="M17.962 119.048s-2.748 2.709-1.4 5.714c0 0 2.241-.717 2.486-4.368l-1.086-1.346ZM15.238 114.297s1.524-2.786 7.62 1.115c0 0-.814 1.874-3.506 1.722-2.692-.152-3.403-1.368-4.114-2.837Z" fill="#F8765E"/><path d="M15.456 113.336s-2.803-.35-3.075 6.635c0 0 1.769.403 3.04-1.806 1.27-2.21.74-3.449.035-4.829ZM13.333 108.871s1.646-4.051 7.62-1.169c0 0-1.364 3.716-7.008 2.547l-.612-1.378ZM11.429 100.873s3.436-3.91 9.523-.285c0 0-2.133 3.671-9.003 1.675l-.52-1.39ZM11.429 94.216s3.8-4.128 9.523 0c0 0-3.601 3.623-9.515 1.054l-.008-1.054ZM10.476 87.662s3.932-4.228 9.524-.225c0 0-4.434 3.732-9.524 1.214v-.99ZM10.476 82.247s4.205-5.734 9.524-1.85c0 0-4.505 4.929-9.524 2.94v-1.09ZM11.429 75.36s4.408-5.7 9.523-1.33c0 0-5.216 4.94-9.523 2.374V75.36ZM12.598 70.03s4.97-4.836 9.307-2.91c0 0-5.18 5.136-9.524 4.193l.217-1.282ZM14.694 63.6s5.77-6.197 9.116-4.13c0 0-4.246 4.81-9.524 5.292l.408-1.161ZM17.828 56.47s5.108-5.174 8.839-3.882c0 0-4.37 5.37-9.524 5.507l.685-1.625ZM19.3 51.18s5.798-5.342 8.319-4.402c0 0-4.185 5.934-8.571 5.588l.252-1.187ZM21.905 45.054s4.93-6.481 7.619-5.979c0 0-2.988 5.778-7.62 6.64v-.661ZM23.983 37.64s4.216-4.318 6.493-4.307c0 0-3.328 5.767-6.666 5.714l.173-1.407ZM26.144 31.542l3.379-9.637s.17 8.713-3.809 11.428l.43-1.791ZM26.704 22.123s.864-8.128.308-8.79c0 0 3.728 6.751-.345 12.381l.037-3.591ZM12.827 108.125s-4.317-2.501-7.113 3.617c0 0 3.842 2.383 7.62-2.057l-.507-1.56Z" fill="#F8765E"/><path d="M11.886 101.308S6.449 99.234 3.81 105.1c0 0 4.201 2.408 8.571-2.311l-.495-1.481ZM11.429 95.168s-3.803-4.128-9.524 0c0 0 3.605 3.623 9.524 1.055v-1.055ZM10.476 87.662s-3.93-4.228-9.524-.225c0 0 4.436 3.732 9.524 1.214v-.99ZM11.429 82.593s-2.701-6.644-8.572-3.782c0 0 3.173 5.886 8.334 4.884l.238-1.102ZM12.381 75.862s-2.662-6.728-8.571-3.607c0 0 3.617 6.165 8.309 4.648l.262-1.04ZM13.333 70.077s-1.01-7.5-5.714-8.172c0 0 .998 7.91 5.087 9.524l.627-1.352ZM14.286 64.452s-.35-8.905-3.81-9.214c0 0 .117 6.759 3.42 10.476l.39-1.262ZM18.095 57.17s-1.134-7.661-4.762-8.599c0 0 .45 7.42 4.404 10.477l.358-1.879ZM20.952 51.332s-.043-8.22-2.505-9.427c0 0-1.53 7.442 1.792 10.476l.713-1.05Z" fill="#F8765E"/><path d="M21.905 45.197s-.326-7.894-2.76-9.007c0 0-.834 6.247 2.395 9.524l.365-.517ZM24.762 38.666s-.02-6.635-2.157-8.19c0 0-2.13 7.268 1.04 9.524l1.117-1.334Z" fill="#F8765E"/><path d="m25.618 31.434-1.995-10.482s-2.72 8.59 2.091 12.381l-.096-1.9Z" fill="#F8765E"/><path d="M25.055 21.421s-4.187-7.279-4.101-8.088c0 0 .445 7.63 5.713 11.429l-1.612-3.34ZM26.357 20S22.636 9.429 20.952 8.571c0 0 5.316 3.073 5.715 11.127l-.31.302Z" fill="#F8765E"/><path d="m24.096 39.048-.286-.085c3.557-10.966 4.444-17.957 2.498-19.709l.207-.206c2.063 1.848 1.223 8.765-2.419 20ZM14.712 65.714l-.426-.148a82.644 82.644 0 0 1 1.21-3.162c3.712-9.124 6.87-17.614 8.897-24.132l.369-.177c-2.03 6.54-5.132 15.346-8.846 24.482a97.286 97.286 0 0 0-1.204 3.137Z" fill="#444053"/><path d="M23.389 127.619c-.054-.062-5.466-6.353-9.237-17.098a65.114 65.114 0 0 1-3.65-19.586c-.258-8.36 1.44-17.695 4.351-26.173l.316.382c-6.532 19.03-3.937 35.337-.494 45.159 3.732 10.645 9.082 16.87 9.134 16.931l-.42.385Z" fill="#444053"/><path opacity=".1" d="M92.381 135.238c43.131 0 78.095-3.198 78.095-7.143s-34.964-7.143-78.095-7.143c-43.13 0-78.095 3.198-78.095 7.143s34.964 7.143 78.095 7.143Z" fill="#F8765E"/><path d="M88.095 131.429c29.718 0 53.81-23.879 53.81-53.334 0-29.455-24.092-53.333-53.81-53.333-29.718 0-53.81 23.878-53.81 53.333s24.092 53.334 53.81 53.334Z" fill="#9BDBE7"/><path d="M73.333 74.286c3.156 0 5.715-3.198 5.715-7.143S76.489 60 73.333 60c-3.156 0-5.714 3.198-5.714 7.143s2.558 7.143 5.714 7.143ZM102.857 74.286c3.156 0 5.714-3.198 5.714-7.143S106.013 60 102.857 60c-3.156 0-5.714 3.198-5.714 7.143s2.558 7.143 5.714 7.143ZM121.905 91c0 10.447-17.471 28.048-35.098 28.048s-34.426-17.997-34.426-28.446c0-10.45 16.443-.893 34.079-.893 17.635 0 35.445-9.159 35.445 1.29Z" fill="#444053"/><path d="M58.844 92.381s31.731 6.938 58.39.195c0 0 3.263 0 1.035 3.705a5.962 5.962 0 0 1-2.438 2.246c-5.136 2.579-24.166 10.203-54.586.48a5.927 5.927 0 0 1-3.95-3.973c-.35-1.273-.198-2.477 1.549-2.653Z" fill="#F6F8FB"/><path opacity=".05" d="M60.952 38.095S44.63 48.216 44.762 64.04c.134 15.823 16.19-25.945 16.19-25.945Z" fill="#000"/><path d="M160.934 126.665c-.277-1.108-.949-1.127-.949-1.127l-.011-.112-.248-2.737a.146.146 0 0 1-.034.036l-.014-.348a1.622 1.622 0 0 0-.018-.196c.396-.289.688-.699.834-1.168-.102-.13-.026-.104-.026-.104s-1.683-1.73-1.514-2.631c.168-.902-1.267-1.882-1.267-1.882s-.52-1.611-.52-2.1c0-.489-1.965-3.7-1.965-3.7s-1.733-4.084-3.254-5.838c-1.521-1.754-1.386-2.71-1.386-2.71a3.278 3.278 0 0 1-.338-.593 3.757 3.757 0 0 1-.173-.445c.312-.041.52-.047.52-.047s1.245-.215 1.301-.472c.069-.291.216-.557.424-.77.238-.255-.675-5.128-.19-6.388.485-1.26-.622-7.04-.622-7.04.054-.355.253-.67.549-.87l.735-.291.372-.09.05-.013.077-.019.173-.043.05-.014.108-.03.039-.01.174-.054.057-.02.081-.027.063-.025.083-.033.092-.043.053-.028.058-.033.045-.03a.735.735 0 0 0 .067-.054l.035-.034a.673.673 0 0 0 .04-.046.237.237 0 0 0 .022-.035l.011-.013a.378.378 0 0 0-.037-.39 2.954 2.954 0 0 0-.658-.68l-.4-.618a.025.025 0 0 1 0-.013c0-.03.012-.066.02-.1a1.15 1.15 0 0 0 .019-.397.086.086 0 0 0 0-.023.877.877 0 0 0 .009-.125v-.054c0-.04 0-.08-.009-.12-.008-.04 0-.04 0-.061a.809.809 0 0 0-.022-.115c-.009-.038-.01-.045-.017-.068-.007-.023-.019-.071-.032-.108l-.026-.071-.039-.101-.033-.075c-.012-.024-.028-.063-.044-.094l-.038-.075a1.804 1.804 0 0 0-.048-.088l-.042-.073-.048-.08-.047-.074-.047-.071-.047-.068-.047-.063-.045-.062-.041-.054-.043-.056-.037-.045-.038-.047-.029-.033-.032-.037-.02-.024-.023-.024-.012-.014-.012-.012v-.151c0-.023 0-.051-.011-.08v-.011a5.513 5.513 0 0 1-.043-.545 1.43 1.43 0 0 1 .125-.55.263.263 0 0 0-.012-.273.468.468 0 0 1 .017-.037c.12-.231-.107-.43-.392-.577 0-.425-.173-1.286-1.573-1.441 0 0-.819-.555-.028-1.553.792-.997-.466-3.548-.466-3.548s-.4-1.044-.185-1.475c.215-.432-.25-4.271-.25-4.271s0-3.541-.779-5.047c-.78-1.505-1.312-4.207-2.211-4.608-.9-.4-1.612-1.367-1.612-1.367l-.419.135a15.357 15.357 0 0 1-.215-.323.735.735 0 0 0 .099-.035.961.961 0 0 0 .452-.423c.029-.053.054-.107.075-.164.07-.204.104-.42.1-.636a3.258 3.258 0 0 1 .019-.648c.071-.348.31-.626.52-.917.42-.578.688-1.254.778-1.965a2.982 2.982 0 0 0-.494-2.029c-.204-.289-.469-.544-.598-.87-.059-.15-.085-.31-.13-.463a2.292 2.292 0 0 0-1.954-1.58c-.737-.068-1.463.214-2.201.205-.856-.01-1.732-.403-2.535-.104a2.5 2.5 0 0 0-.927.696 7.464 7.464 0 0 0-.825 1.107v.012c-.09.148-.173.3-.253.454a.163.163 0 0 0-.012.115.21.21 0 0 0 .104.1c.141.049.272.124.385.222.043.05.09.096.14.14-.024.029-.05.057-.074.088a4.422 4.422 0 0 0-.808 3.775 4.4 4.4 0 0 0 2.463 2.965l.088.195c.167.37.307.751.418 1.141l-.378.035a.476.476 0 0 1-.447.458c-.442.047-1.847.569-1.847.569s-2.113 1.08-3.386 1.423c-1.274.343-1.839.05-1.839.05s-.143.93-1.585.419c-1.442-.512-1.632.027-1.632.027s-4.062-.111-7.02.286c-2.957.396-4.246.118-4.246.118s-.014.157-.03.41l-.3-.173c-1.965-1.055-5.588-2.69-6.104-.696-.721 2.772 5.609 3.95 5.609 3.95l.468-.05.306-.034c.059.77.194 1.392.477 1.46.102.026 3.131.02 3.928.394.797.374 2.514-.174 2.514-.174s.442-.098 1.109.299 4.292.398 4.292.398.258.056 1.185.33c.927.273 2.563.036 2.563.036l3.824.496s.272 2.692-.028 3.67c-.299.978-.059 5.79-.059 5.79s.867 5.855.629 6.55c-.187.538 1.473-.061 2.232-.359.04.159.09.348.147.562 0 .02.026.032.056.039l.062.041.082.331-.206.056.272.182c.03.11.066.22.109.326.225.522-1.419 1.477-1.419 1.477s-4.542 2.494-5.906 3.655c0 0-1.065.348-1.148.68-.083.332-1.04.218-1.04.218s-.135.36-.244.722c-.109.362-.693.92-.693.92s-1.35.213-1.541.933a14.926 14.926 0 0 0-.31 1.692l-1.516 2.77s-4.134 3.094-4.568 4.277l-2.926 1.97s-.482 1.079-1.336 1.118c-.854.038-2.329 1.566-2.329 1.566s.433.174 1.069.47a3.098 3.098 0 0 0-.105.174 2.785 2.785 0 0 0-.259.708s-1.906 1.162-3.323.675c-.801-.275-2.379-.75-3.521-.807-.878-.044-1.502.16-1.32.892.31 1.265 3.437 4.45 4.98 5.961a8.494 8.494 0 0 0 1.916 1.404c.234.123.475.235.721.334.264.107.536.195.812.263.545.127 1.04.122 1.319-.174.894-.919.52-1.566.52-1.566l.1-.075 2.464-1.852.558-.478.154-.133a3.323 3.323 0 0 1-.833 1.824 11.55 11.55 0 0 1 1.929-.901c.866-.272 1.4-1.915 1.4-1.915s.473-.483 1.313-1.35c.84-.867.996-3.085.996-3.085s4.313-2.757 6.065-5.936c0 0 .317-.435.866-1.074.55-.638.569-1.698.569-1.698s.081-.308.817-1.098c.737-.79.642-1.285.642-1.285s.346-.485 1.635-.388c1.289.098 4.318-1.437 4.318-1.437s0 .14.028.385c-.263.609-.437 1.031-.437 1.031s2.641 10.586 1.582 12.25c-.549.87.965.208 2.553-.622.081.1.173.204.273.315.376.407.777.791 1.199 1.149l.052.045s3.216 4.984 3.726 5.569c.509.585.173 2.304.173 2.304s.898 6.009 2.124 7.062c.256.194.542.345.846.447-.021.748.653 1.362.653 1.362s-.014 1.991-1.05 2.833c-.585.479-1.689 1.45-2.27 2.287-.445.646-.584 1.218.058 1.42 1.107.36 4.995-.51 6.868-.968a7.152 7.152 0 0 0 2.559-1.179c.648-.479 1.213-1.058 1.085-1.579Zm-42.655-19.915c.108.072.213.145.319.22l-.173.139-.071.056c0-.037-.011-.077-.018-.117-.019-.096-.036-.195-.057-.298Z" fill="url('#paint0_linear_20_282')"/><path d="m118.095 63.556-1.86.204-.439.05s-5.943-1.149-5.266-3.842c.485-1.95 3.889-.354 5.736.684.707.396 1.184.707 1.184.707l.645 2.197Z" fill="#D17483"/><path d="m121.905 108.966-1.995 1.677-.514.431-1.196.355-2.962-2.558 2.201-1.717.065-.052 1.781-1.388 2.62 3.252ZM157.098 120.954l-2.812.127.771 3.329 1.054.352 2.937-.238-.079-1.911a1.713 1.713 0 0 0-.58-1.206 1.827 1.827 0 0 0-1.291-.453Z" fill="#DCE6F2"/><path opacity=".1" d="M118.095 106.667a21.449 21.449 0 0 0-2.857-1.697 2.03 2.03 0 0 1 1.332-1.146c.875-.19 1.321 1.559 1.525 2.843ZM120.7 111.429c.132-1.358-1.174-2.542-2.605-3.42l1.926-1.342 2.836 3.141-2.157 1.621Z" fill="#000"/><path d="M160 120.864c-.885 2.929-6.974 2.049-8.183 1.007-1.209-1.042-2.096-6.992-2.096-6.992s.333-1.711-.173-2.282c-.506-.572-3.672-5.506-3.672-5.506l-.052-.043a13.522 13.522 0 0 1-1.183-1.138c-.975-1.071-.996-1.589-.996-1.589s-.346-2.028-1.54-4.783c-.866-2.032-1.224-4.793-1.347-6.105-.044-.467-.059-.75-.059-.75s-2.983 1.518-4.258 1.423c-1.275-.096-1.614.385-1.614.385s.095.488-.631 1.272c-.725.783-.807 1.087-.807 1.087s-.015 1.05-.561 1.68a17.03 17.03 0 0 0-.858 1.064c-1.732 3.148-5.982 5.877-5.982 5.877s-.158 2.199-.989 3.057l-1.296 1.337s-.534 1.631-1.386 1.9a11.28 11.28 0 0 0-1.905.893c3.508-4.223-5.174-7.55-5.174-7.55s1.452-1.515 2.295-1.553c.844-.038 1.318-1.106 1.318-1.106l2.886-1.954c.426-1.172 4.504-4.234 4.504-4.234l1.494-2.742c.071-.56.173-1.114.307-1.66.187-.713 1.519-.925 1.519-.925s.57-.555.676-.911c.105-.356.24-.714.24-.714s.943.118 1.024-.216c.081-.333 1.133-.673 1.133-.673 1.346-1.159 5.823-3.627 5.823-3.627s1.622-.948 1.4-1.464a2.798 2.798 0 0 1-.109-.321v-.028a4.149 4.149 0 0 1-.057-.208c-.205-.794-.43-2.012-.43-2.012s7.88-4.593 10.466-3.428c.755.339 1.195 1.193 1.425 2.284.369 1.745.201 4.094-.081 5.896a16.98 16.98 0 0 1-.473 2.197c-.617 1.989-.736 4.93-.736 4.93s-.082 5.604-.281 6.983a3.425 3.425 0 0 0 .295 1.879c.09.207.202.403.334.587 0 0-.142.944 1.365 2.683 1.507 1.738 3.208 5.778 3.208 5.778s1.945 3.177 1.938 3.665c-.007.488.506 2.084.506 2.084s1.415.965 1.249 1.86c-.167.894 1.493 2.605 1.493 2.605s-.07-.03.031.101Z" fill="#BDD2E8"/><path opacity=".1" d="M139.048 84.762s1.754.778 1.897 1.707c.143.928-1.897-1.707-1.897-1.707ZM133.108 90.414l1.178 1.015-.611-1.844-1.294-.061.727.89ZM131.429 92.381c.121.084 1.495 2.825 1.863 2.857.368.032-1.863-2.857-1.863-2.857Z" fill="#000"/><path opacity=".1" d="M151.145 85.976a18.099 18.099 0 0 1-.455 2.228c-.594 2.017-.709 5-.709 5s-.078 5.685-.27 7.084c-.079.651.02 1.312.283 1.906-.5.051-1.428.204-2.062.636-.892.609-.375 2.279-.375 2.279s-1.285.818-2.602 1.558c-.939-1.087-.959-1.612-.959-1.612s-.333-2.058-1.482-4.852c-.834-2.061-1.179-4.862-1.297-6.192.5-1.233 1.325-3.133 1.881-3.952.588-.868-.114-3.497-.604-5.035l-.135-.097-1.612-1.143-.49-.352-.257-.176.195-.057L151.23 80c.348 1.77.186 4.152-.085 5.976Z" fill="#000"/><path d="m139.048 82.531.758.519 1.634 1.122.139.095c.497 1.51 1.21 4.088.611 4.94-.865 1.237-2.369 4.987-2.369 4.987s2.538 10.431 1.523 12.072c-1.016 1.64 5.375-2.284 5.375-2.284s-.523-1.639.383-2.237c.905-.598 2.428-.652 2.428-.652s1.199-.211 1.253-.465c.066-.286.208-.548.41-.757.227-.252-.652-5.055-.185-6.296.467-1.242-.6-6.94-.6-6.94.05-.351.243-.665.531-.864a1.55 1.55 0 0 1 .437-.215l.096-.027a3.54 3.54 0 0 1 .169-.045c.728-.185 1.523-.346 1.692-.692l-.169-.262-.892-1.408a1.077 1.077 0 0 1 .026-.411c0-.028.01-.057.013-.085.131-.897-.881-1.986-.881-1.986a5.293 5.293 0 0 1-.078-.775v-.008c-.021-.275.016-.55.108-.81l-12.412 3.484Z" fill="#653C5B"/><path opacity=".1" d="M141.906 83.81c-.094-.022 5.797.217 7.618 2.857 0 .006.065-.955-7.618-2.856ZM145.714 88.748s1.276 8.098.993 9.51c-.283 1.41 1.487.501 1.487.501s1.805-11.755-2.48-10.011Z" fill="#000"/><path opacity=".1" d="M153.333 84.683a.672.672 0 0 0-.042-.085c-.392-.666-1.202-.805-1.065-1.654 0-.035.013-.073.021-.11.03-.134.037-.271.02-.407-.094-.857-.93-1.75-.93-1.75a5.368 5.368 0 0 1-.076-1.125c.005-.195.047-.386.126-.564a.265.265 0 0 0-.013-.279c-.216-.373-1.176-.614-1.176-.614l-6.503 1.046a60.98 60.98 0 0 0-2.17.801c-2.007.778-3.43 1.424-3.43 1.424l.048.193c.043.18.114.46.201.781.028.112.566-.02.599.1l.199.442 1.436.404s.117.297.278.765c0 .027.02.056.028.084l.118.017c2.713.338 6.471.876 9.812 1.562l2.519-1.031Z" fill="#000"/><path d="m151.336 85.686-.101.028c-3.489-.733-7.522-1.304-10.358-1.652-.177-.51-.304-.838-.304-.838l-2.134-.594-.059-.207c-.102-.371-.187-.711-.237-.907l-.048-.19s1.416-.639 3.421-1.406c.668-.258 1.4-.533 2.167-.793l6.484-1.032c.237.061.468.143.691.244.331.155.632.375.495.639-.267.519-.047 1.675-.047 1.675s1.129 1.196.907 2.135c-.221.94.636 1.058 1.043 1.745.407.687-.874.879-1.92 1.153Z" fill="#653C5B"/><path d="M146.667 57.831s-8.218.645-7.275-.08c.471-.362.147-1.441-.297-2.428a17.589 17.589 0 0 0-1-1.873s6.246-1.763 5.577-.761c-.199.296-.019.865.341 1.521.836 1.567 2.654 3.621 2.654 3.621Z" fill="#D17483"/><path opacity=".1" d="M143.809 54.517c-.165.23-.592-.045-.799.145-.721.665-1.405 1.546-2.39 1.528a3.618 3.618 0 0 1-1.559-.389 22.002 22.002 0 0 0-.966-2.178s6.036-2.05 5.389-.883c-.191.35-.018 1.013.325 1.777Z" fill="#000"/><path d="M144.761 51.014a4.285 4.285 0 1 1-4.222-4.347 4.272 4.272 0 0 1 4.222 4.347Z" fill="#D17483"/><path opacity=".1" d="M151.412 78.986a9.337 9.337 0 0 1-2.007-.194c-1.051-.222-1.941.644-1.941.644s-2.044.734-2.973.583c-.928-.15-4.999 1.825-4.999 1.825l-.17.06a30.206 30.206 0 0 1-.228-.798l-.046-.167s1.362-.563 3.292-1.237c.642-.227 1.347-.47 2.085-.699l6.241-.908c.228.054.45.126.664.215.092.215.12.448.082.676ZM118.095 63.56l-1.87.25a37.235 37.235 0 0 1 .031-3.81c.711.483 1.19.864 1.19.864l.649 2.697Z" fill="#000"/><path d="M144.355 55.238s-1.244.397-1.944.674c-.7.276-4.211.587-4.211.587a.476.476 0 0 1-.445.462c-.439.044-1.838.57-1.838.57s-2.1 1.085-3.374 1.43c-1.274.346-1.832.052-1.832.052s-.141.933-1.574.418c-1.433-.515-1.626.028-1.626.028s-4.047-.111-6.999.287c-2.951.399-4.23.12-4.23.12s-.383 4.676.42 4.891c.101.029 3.119.02 3.912.395.793.376 2.504-.176 2.504-.176s.441-.097 1.106.303c.664.4 4.274.4 4.274.4s.257.055 1.181.33 2.551.037 2.551.037l3.809.503s.271 2.706-.026 3.688c-.298.983-.06 5.819-.06 5.819s.875 5.885.628 6.584c-.246.698 2.585-.508 2.585-.508s4.185-2.225 5.135-2.056c.95.17 3.053-.656 3.053-.656s.917-.975 1.997-.725a8.687 8.687 0 0 0 2.059.212s.304-1.476-1.549-1.686c0 0-.817-.557-.029-1.558.787-1.002-.46-3.557-.46-3.557s-.398-1.045-.186-1.484c.212-.44-.247-4.29-.247-4.29s0-3.56-.776-5.08c-.777-1.52-1.307-4.231-2.203-4.63-.896-.398-1.605-1.384-1.605-1.384Z" fill="#DCE6F2"/><path opacity=".1" d="M140 67.619s5.127 2.429 6.505 4.387c1.378 1.958-6.505-4.387-6.505-4.387ZM141.905 71.429s6.112 3.713 5.694 4.655c-.419.941-5.694-4.655-5.694-4.655ZM142.857 74.286s2.387 1.144 2.818 1.794c.431.65-2.818-1.794-2.818-1.794ZM132.381 60s4.492 2.6 3.72 3.655c-.771 1.056-3.72-3.655-3.72-3.655ZM129.685 61.905s.771 2.404.791 2.817c.02.413-1.425-2.476-.791-2.817ZM126.667 61.905c0 .135 2.772 2.241 1.628 2.795-1.144.554-1.628-2.795-1.628-2.795ZM128.571 94.286c.106.12.479 1.3 1.627 1.828 1.148.527-1.627-1.828-1.627-1.828ZM120.978 101.905c-.016.838-.193 3.507.665 3.795.858.288-.665-3.795-.665-3.795Z" fill="#000"/><path opacity=".1" d="M122.111 103.81s2.336 3.142 1.529 3.678c-.807.536-1.735-.747-1.735-.747l.206-2.931ZM150.476 110.396c.844.123 1.702.176 2.561.156 1.39-.036-2.561-.156-2.561-.156ZM150.476 109.533s2.029.361 2.757-.012c.729-.373-2.757.012-2.757.012ZM149.524 106.645s2.336.206 2.81-.664c.474-.87-2.81.664-2.81.664Z" fill="#000"/><path opacity=".1" d="M148.571 105.803s2.417.309 2.822-.121c.406-.43-2.822.121-2.822.121ZM146.667 101.905s2.556 1.142 2.839 1.794c.283.652-2.839-1.794-2.839-1.794ZM144.762 50.99a4.245 4.245 0 0 1-1.64 3.296.997.997 0 0 1-.032-.066c-.186-.398-.233-.846-.406-1.242a.6.6 0 0 0-.301-.346c-.274-.107-.547.143-.728.368-.181.225-.45.479-.725.38a.69.69 0 0 1-.339-.358c-.282-.507-.575-1.043-.594-1.622.021-.285.024-.57.01-.856-.072-.497-.446-.915-.876-1.195a10.95 10.95 0 0 0-1.396-.677 2.061 2.061 0 0 1-.592-.379 4.264 4.264 0 0 1 7.614 2.696h.005Z" fill="#000"/><path d="M136.209 48.037c-.113.243.316.22.502.426.202.196.447.35.718.452.524.195 1.033.424 1.523.684.471.286.877.706.957 1.21.014.289.011.577-.01.865.021.586.338 1.125.646 1.642a.745.745 0 0 0 .37.36c.302.1.592-.155.792-.382.199-.228.496-.481.795-.375a.624.624 0 0 1 .327.35c.185.406.24.856.443 1.258s.639.764 1.126.704a.967.967 0 0 0 .689-.468 1.49 1.49 0 0 0 .184-.778 2.898 2.898 0 0 1 .021-.632c.075-.342.325-.612.539-.894.44-.564.72-1.22.814-1.91a2.759 2.759 0 0 0-.519-1.978c-.214-.282-.495-.532-.629-.855-.061-.146-.089-.301-.137-.452-.293-.846-1.1-1.451-2.055-1.54-.771-.066-1.536.21-2.311.2-.899-.008-1.828-.393-2.666-.1a2.603 2.603 0 0 0-.973.684c-.453.463-.837.981-1.14 1.54" fill="#653C5B"/><path d="m117.633 113.322-.098.076s.366.658-.496 1.591c-.404.433-1.259.235-2.053-.095a7.775 7.775 0 0 1-2.539-1.753c-1.485-1.522-4.5-4.732-4.799-6.012-.169-.739.426-.944 1.273-.9 1.1.058 2.62.531 3.385.815 1.365.49 3.201-.681 3.201-.681.053-.246.137-.483.249-.707a1.558 1.558 0 0 1 1.016-.884c.66-.14 1 1.21 1.158 2.191 0 .039.012.08.018.118.075.49.104.863.104.863 1.173-.085 1.672 1.694 1.609 2.605-.062.911.339.918.339.918l-2.367 1.855Z" fill="#FFD6DB"/><path d="M117.037 113.488s.382.625-.519 1.513c-.423.412-1.317.225-2.147-.091a8.159 8.159 0 0 1-2.656-1.666c-1.554-1.448-4.705-4.499-5.018-5.716-.177-.703.446-.898 1.331-.856.076.71.267 1.681.735 2.197.796.878 3.071 3.834 5.916 3.867a4.608 4.608 0 0 1 2.464.673l-.106.079Z" fill="#C8A9B4"/><path opacity=".1" d="M112.381 110.476s2.587-2.861 4.762-1.57c0 0-1.916-.22-4.762 1.57ZM115.238 110.505s3.12.916 3.742.924c.621.007-3.209-1.149-3.742-.924ZM152.381 116.19s3.685.086 3.803 1.023c.118.937-1.375.882-1.375.882l-2.428-1.905Z" fill="#000"/><path d="m159.933 124.529.011.111s.701.02.989 1.115c.135.52-.455 1.087-1.121 1.561-.8.552-1.707.949-2.67 1.167-1.953.451-6.009 1.311-7.163.958-.669-.207-.524-.767-.059-1.405.605-.829 1.755-1.789 2.367-2.255 1.079-.833 1.1-2.801 1.1-2.801s-.959-.826-.609-1.722c.35-.897 3.142.468 3.142.468.532-.951 2.182-.52 2.866-.049.683.472.892.163.892.163l.255 2.689Z" fill="#FFD6DB"/><path d="M159.944 125.812s.701.02.989 1.065c.135.497-.455 1.038-1.121 1.491-.8.527-1.707.906-2.67 1.114-1.953.431-6.009 1.253-7.163.915-.669-.197-.524-.732-.059-1.342.623.273 1.517.588 2.173.497 1.112-.166 4.663-.404 6.079-2.403a3.981 3.981 0 0 1 1.761-1.435l.011.098Z" fill="#C8A9B4"/><path opacity=".1" d="M154.309 127.619s-.376-2.672 1.882-3.809c0 0-1.35 1.278-1.882 3.809Z" fill="#000"/><path opacity=".1" d="M155.238 124.762s1.662-1.481 1.888-1.855c.225-.373-1.837 1.452-1.888 1.855ZM151.429 80.952s-2.046 1.367-3.534.826c-1.489-.54 3.534-.826 3.534-.826ZM152.381 82.857s-.428 1.2-3.103.906c-2.674-.293 3.103-.906 3.103-.906Z" fill="#000"/><g opacity=".1" fill="#000"><path opacity=".1" d="m145.347 52.376.099-.14c.072-.105.141-.214.205-.325a4.444 4.444 0 0 0-.304.465ZM144.36 54.697c-.464.063-.882-.318-1.076-.736-.194-.417-.243-.892-.423-1.312a.636.636 0 0 0-.313-.366c-.285-.111-.569.153-.76.39-.19.238-.467.504-.756.4a.735.735 0 0 1-.353-.376c-.296-.536-.6-1.102-.619-1.713a8.01 8.01 0 0 0 0-.903c-.074-.527-.464-.966-.914-1.263-.449-.296-.966-.482-1.455-.714a1.965 1.965 0 0 1-.684-.471c-.176-.215-.589-.191-.48-.445.081-.164.177-.323.265-.48-.203.29-.385.594-.545.91-.108.254.301.23.48.445.193.205.427.365.686.471.5.205.986.443 1.455.715.449.298.837.737.913 1.264.014.3.011.602-.009.902.02.612.323 1.175.618 1.714a.742.742 0 0 0 .352.377c.29.103.567-.163.757-.4.191-.238.475-.502.76-.391a.63.63 0 0 1 .312.366c.177.423.23.893.424 1.313.194.42.61.798 1.076.735a.925.925 0 0 0 .657-.49 1.27 1.27 0 0 0 .074-.165.859.859 0 0 1-.442.223Z"/></g><path opacity=".1" d="M139.048 57.143s2.01-.087 3.348-.048c1.338.04 3.318-.905 3.318-.905" fill="#000"/><path d="M55.224 70.724c-.203-1.018-2.116-.854-3.506-.592-.117.022-.231.045-.34.069l.1-.409-.654-.266a17.427 17.427 0 0 0-4.004-1.092c-2.013-.296-5.203-.933-7.165-2.166-1.783-1.122-2.498-1.446-2.996-1.748v-.264c0-.5-.03-.96-.069-1.368a5.68 5.68 0 0 0-.22-1.11c-.418-1.36-1.357-1.797-2.299-2.65a8.624 8.624 0 0 0-2.074-1.42c.078-.451.212-.89.4-1.308l.08-.19c0-.009 0-.016.013-.024.028-.064.056-.128.084-.188a4.242 4.242 0 0 0 2.256-3.72 4.17 4.17 0 0 0-1.48-3.18l.204-.066c.433-.152.905-.57.779-.925h-.064a.353.353 0 0 0-.017-.074.885.885 0 0 1-.526-.195c-.202-.245-.263-.613-.633-.956a1.715 1.715 0 0 0-.275-.235 2.454 2.454 0 0 0-.892-.364c.026.018.054.032.08.05l.054.042c-.734-.173-1.563-.147-2.261-.442a3.294 3.294 0 0 1-.482-.26l.091.024c-.377-.214-.715-.488-1.106-.69a3.088 3.088 0 0 0-.682-.243l.175.101a4.134 4.134 0 0 0-3.036.48c-1.079.624-1.843 1.627-2.41 2.68a11.284 11.284 0 0 0-1.35 5.758c.034.966.192 1.968-.176 2.875-.305.76-.945 1.363-1.327 2.091-1.474 2.816 1.241 6.473-.423 9.196-.601.985-1.677 1.637-2.41 2.542-.733.906-.998 2.37-.021 3.05.701.49 1.698.332 2.535.58a3.949 3.949 0 0 1-1.194 2.222l-.137-.026c-.031.03-.061.06-.095.088l.13.033-.049.047c.915.26 1.855.424 2.805.49.843.058 1.736.027 2.468-.366.372-.207.7-.483.965-.811 0 .172.012.324.023.481.026.635.117 1.266.273 1.882.812 2.897-1.753 5.167-1.753 5.167a8.225 8.225 0 0 0-.86 4.054c.048.849.226 1.685.527 2.481.024.064.047.126.072.186.047.121.098.239.147.346.075.172.15.322.226.463.05.097.098.187.146.27.164.298.353.582.564.85.26-.174.519-.337.779-.492v.31c.014 1.067-.095 2.415-.095 2.415s-.814 2.858-.894 3.681c-.08.823-.395 5.912-.395 5.912s-1.097 3.29-3.127 5.286c-2.03 1.996-1.578 7.713-1.578 7.713s-1.422 4.815-.934 5.05a.503.503 0 0 0 .243.013v.195c-.876.599-1.543 1.084-1.543 1.084s-.243 3.954-.57 4.718c-.325.764.407 1.665.407 1.665s7.232-.197 7.861-.236c.29-.018 1.254-.327 2.251-.763.858-.188 3.445-1.18 4.383-2.103.14-.122.251-.272.33-.438.447-1.097-3.596-.274-4.693-.274-1.098 0-1.219-.823-1.727-1.45-.509-.626-.142-1.663-.142-1.663l-.105-2.932.482-.192s.65-2.507 1.706-3.719c1.055-1.213 2.925-5.835 2.966-6.069.04-.235.08-.666.852-1.726.771-1.059 1.529-3.322 1.529-3.322s1.753-5.403 3.087-8.183c.819-1.699 1.274-4.71 1.504-6.797.252.068.5.15.743.245 0 0 .375-2.365.526-5.065.09-1.379.079-2.763-.033-4.14-.214-2.243-1.545-6.585-1.466-10.625.321.203.633.396.914.569 0-.102.012-.202.019-.304.719.44 1.238.742 1.238.742s4.305 2.348 8.083 2.388c3.778.04 4.429.469 4.429.469l.238-.97.338-.062c1.592-.3 4.417-1.012 4.184-2.18Z" fill="url('#paint1_linear_20_282')"/><path d="m35.336 48.643-.196-.144c.036.04.063.087.08.137l.116.007Z" fill="url('#paint2_linear_20_282')"/><path d="M34.307 47.731h.117l-.11-.081h.03l-.196-.143c.034.04.061.086.078.136h.044a.385.385 0 0 1 .037.088Z" fill="url('#paint3_linear_20_282')"/><path d="M29.524 55.238h-3.81V60h3.81v-4.762Z" fill="#965D7B"/><path opacity=".1" d="M29.524 55.238h-3.81V60h3.81v-4.762Z" fill="#000"/><path d="M18.095 122.857h2.857v-3.809h-2.857v3.809Z" fill="#E8F4FF"/><path d="M26.764 55.385c.715.287 1.52 1.805 1.56 3.073.017.571-.623 1.542-.623 1.542l.658-.081c.337-.047.774-.109 1.238-.182.388-.062.794-.13 1.176-.205 1.047-.204 1.904-.447 1.669-.672-.114-.109-.143-.318-.114-.584.072-.447.194-.883.366-1.299.05-.136.106-.27.164-.398.242-.58.475-1.037.475-1.037s-2.238-.172-4.111-.254c-.64-.03-1.238-.048-1.696-.05h-.179c-.567-.003-.84.045-.584.147Z" fill="#FFC1C7"/><path d="M36.19 87.619s-.342 6.4-1.616 9.221c-1.274 2.822-2.926 8.309-2.926 8.309s-.732 2.306-1.463 3.379c-.732 1.073-.77 1.511-.81 1.75-.039.238-1.809 4.929-2.81 6.161-1.003 1.233-1.617 3.777-1.617 3.777s-4.39 1.906-4.852 1.668c-.461-.238.886-5.12.886-5.12s-.424-5.805 1.502-7.832c1.925-2.027 2.965-5.365 2.965-5.365s.308-5.17.385-6.003c.077-.833.846-3.737.846-3.737s.231-3.062-.037-3.657c-.269-.595 9.547-2.551 9.547-2.551Z" fill="#575A89"/><path opacity=".05" d="M36.19 87.619s-.342 6.4-1.616 9.221c-1.274 2.822-2.926 8.309-2.926 8.309s-.732 2.306-1.463 3.379c-.732 1.073-.77 1.511-.81 1.75-.039.238-1.809 4.929-2.81 6.161-1.003 1.233-1.617 3.777-1.617 3.777s-4.39 1.906-4.852 1.668c-.461-.238.886-5.12.886-5.12s-.424-5.805 1.502-7.832c1.925-2.027 2.965-5.365 2.965-5.365s.308-5.17.385-6.003c.077-.833.846-3.737.846-3.737s.231-3.062-.037-3.657c-.269-.595 9.547-2.551 9.547-2.551Z" fill="#000"/><path d="m24.201 120.141.115 3.326s-.337 1.025.131 1.634c.47.61.589 1.423 1.614 1.423 1.025 0 4.802-.808 4.383.27-.42 1.078-3.967 2.462-4.552 2.499-.585.038-7.34.231-7.34.231s-.683-.883-.379-1.633c.303-.75.531-4.636.531-4.636s5.27-4.052 5.497-3.114Z" fill="#444053"/><path opacity=".05" d="m24.202 120.142.113 3.327s-.337 1.024.133 1.632c.47.608.589 1.424 1.614 1.424 1.024 0 4.8-.808 4.382.268-.418 1.076-3.966 2.461-4.551 2.5-.585.04-7.344.231-7.344.231s-.674-.885-.38-1.634c.296-.75.525-4.633.525-4.633s5.28-4.058 5.508-3.115Z" fill="#000"/><path d="M18.19 121.884c.462.238 4.848-1.677 4.848-1.677s.616-2.543 1.618-3.775c1.003-1.232 2.773-5.922 2.81-6.16.038-.238.078-.676.81-1.749.732-1.073 1.464-3.379 1.464-3.379s1.656-5.484 2.927-8.304c.883-1.96 1.32-5.648 1.506-7.712.08-.91.113-1.509.113-1.509s-9.823 1.942-9.553 2.543c.09.198.123.666.128 1.206.014 1.084-.09 2.45-.09 2.45s-.77 2.902-.847 3.737c-.077.834-.385 6.001-.385 6.001s-1.04 3.338-2.966 5.364c-1.927 2.026-1.502 7.83-1.502 7.83s-1.336 4.896-.881 5.134Z" fill="#575A89"/><path opacity=".1" d="M28.571 95.616s-2.052-.933-2.761.133c-.71 1.066 2.761-.133 2.761-.133ZM28.572 97.383s-3.765-.715-3.81.322c-.044 1.037 3.81-.322 3.81-.322ZM26.667 100s-1.095 1.297-1.784.864c-.689-.433 1.784-.864 1.784-.864ZM23.81 104.762s2.364.927 1.824 1.899c-.54.973-.954 1.104-1.16.837-.207-.266-.664-2.736-.664-2.736Z" fill="#000"/><path d="m22.297 120.142.115 3.327s-.337 1.024.133 1.632c.47.608.588 1.424 1.613 1.424 1.024 0 4.8-.808 4.381.268-.418 1.076-3.965 2.461-4.55 2.5-.584.04-7.342.231-7.342.231s-.682-.885-.379-1.634c.303-.75.531-4.633.531-4.633s5.271-4.058 5.498-3.115Z" fill="#444053"/><path opacity=".1" d="M20.952 124.262s-.1 1.103-2.262.032 2.262-.032 2.262-.032ZM17.208 125.714s-.503.625 1.281.909c1.785.284-1.28-.909-1.28-.909ZM17.143 124.762s2.183 1.905 2.857 1.905l-2.857-1.905ZM27.619 55.239c.655 1.606 1.856 1.328 3.374 2.695.517.469 1.213-.199 1.734-.56.274-.923.606-1.762.606-1.762s-4.104-.392-5.714-.373Z" fill="#000"/><path d="M26.667 52.857a4.286 4.286 0 1 0 4.287-4.285 4.266 4.266 0 0 0-4.287 4.285Z" fill="#FFC1C7"/><path opacity=".1" d="M24.767 90.204c.09.2.123.676.128 1.225 3.675-2.4 7.073-2.564 9.278-2.276.08-.926.113-1.534.113-1.534s-9.788 1.978-9.519 2.585Z" fill="#000"/><path d="M21.914 87.722a8.685 8.685 0 0 0 1.634 4.659c6.88-4.756 13.03-2.101 13.03-2.101s.365-2.396.508-5.131a30.361 30.361 0 0 0-.032-4.19c-.224-2.415-1.681-7.237-1.403-11.54.124-1.894.86-3.659.833-5.119 0-.505-.028-.97-.065-1.384a5.895 5.895 0 0 0-.217-1.124c-.406-1.38-1.327-1.821-2.246-2.684a8.407 8.407 0 0 0-2.029-1.44c-1.492-.728-2.999-.728-4.294.184a5.072 5.072 0 0 0-.677.576 6.406 6.406 0 0 0-.722.88c-.037.052-.07.105-.104.156-.19.297-.367.836-.529 1.504-.598 2.51-.945 6.823-.945 6.823s-.676 5.212-.466 8.682c.025.643.114 1.282.266 1.907.796 2.935-1.707 5.235-1.707 5.235a8.57 8.57 0 0 0-.835 4.107Z" fill="#FF6584"/><path d="M49.524 74.286s.389-.072.941-.21c1.446-.37 4.021-1.233 3.808-2.645-.184-1.23-1.923-1.032-3.187-.715-.747.185-1.328.42-1.328.42l-.234 3.15Z" fill="#FFC1C7"/><path opacity=".1" d="M28.112 65.488c.871.66 3.028 2.479 4.685 3.76.934.72 2.236 1.572 3.196 2.18.129-1.973.219-3.852.193-5.366-.652-.524-.87-1.207-1.853-2.35-1.742-2.018-4.852-2.726-4.852-2.726-2.069-.455-2.234 3.834-1.369 4.502ZM49.524 73.333s.474-.057 1.148-.168l.757-2.689c-.91.148-1.62.336-1.62.336l-.285 2.521Z" fill="#000"/><path d="M30.318 60.984s2.902.654 4.528 2.544c1.625 1.89 1.03 1.027 4.371 3.2 1.868 1.213 4.906 1.84 6.824 2.13 1.31.203 2.591.565 3.813 1.078l.622.26-.967 4.09s-.619-.425-4.217-.463c-3.599-.037-7.7-2.352-7.7-2.352s-2.631-1.58-4.18-2.775c-1.548-1.195-3.558-2.895-4.376-3.511-.818-.616-.653-4.626 1.282-4.201Z" fill="#E8F4FF"/><path opacity=".1" d="M25.714 61.23c.572.29 1.264.171 2.093-.679 2.228-2.3 5.928-.009 8.383 1.354-.4-1.13-1.31-1.492-2.22-2.2-2.632-2.048-5.58-2.3-7.631.166-.037.042-.07.085-.103.127-.192.244-.367.686-.522 1.233Z" fill="#000"/><path d="M25.714 61.23c.572.29 1.264.171 2.093-.679a3.067 3.067 0 0 1 1.262-.805c.396-.131.821-.19 1.247-.172 1.965.052 4.21 1.406 5.874 2.33-.4-1.13-1.31-1.492-2.22-2.199a8.482 8.482 0 0 0-2.005-1.18c-1.475-.596-2.964-.596-4.244.151a4.9 4.9 0 0 0-.67.472 5.595 5.595 0 0 0-.712.722c-.037.042-.07.085-.103.127-.192.245-.367.687-.522 1.234Z" fill="#FF6584"/><path opacity=".1" d="M21.905 87.136a7.59 7.59 0 0 0 1.64 4.293c6.91-4.382 13.088-1.936 13.088-1.936s.366-2.208.51-4.728c-2.631-.021-10.125.036-12.639 1.298-.831.425-1.7.784-2.6 1.073Z" fill="#000"/><path d="M21.905 88.088a7.59 7.59 0 0 0 1.64 4.293c6.91-4.382 13.088-1.936 13.088-1.936s.366-2.207.51-4.728c-2.631-.02-10.125.036-12.639 1.299-.831.424-1.7.783-2.6 1.072Z" fill="#E8F4FF"/><path opacity=".1" d="m35.333 48.642-.19-.142c.035.04.061.086.078.136l.112.006ZM24.804 76.19c.241-.231.458-.484.648-.755 1.701-2.365 2.05-5.391 1.39-8.153-.145-.613-.337-1.262-.102-1.853.321-.812 1.333-1.235 1.793-1.989.562-.922.172-2.038-.054-3.08 0-.043-.016-.082-.025-.123a7.474 7.474 0 0 1 .343-4.146c.129-.343.296-.673.498-.983.416-.63.997-1.154 1.767-1.339a1.45 1.45 0 0 0 .608-.214c.457-.375-.063-1.019-.166-1.572-.126-.65.412-1.267 1.048-1.59.542-.274 1.147-.396 1.734-.568-1.602-1.54-4.189-1.679-5.967-.32-1.778 1.36-2.162 3.769-.886 5.558h-.197c-.608 0-.903.046-.626.147.785.282.977 2.33 1.02 3.576-.272.262-.52.547-.738.85-.038.049-.073.1-.107.15-.195.286-.376.806-.542 1.45-.612 2.42-.968 6.58-.968 6.58s-.686 5.028-.471 8.374Z" fill="#000"/><path d="M34.093 47.984c.324.379-.206.89-.687 1.062-.667.24-1.387.35-2.01.686-.623.337-1.149.968-1.028 1.635.104.568.612 1.223.164 1.618a1.402 1.402 0 0 1-.596.222c-1.126.283-1.839 1.34-2.22 2.386a8 8 0 0 0-.336 4.261c.214 1.106.65 2.31.078 3.295-.451.777-1.442 1.21-1.757 2.045-.23.608-.043 1.276.1 1.906.647 2.837.305 5.95-1.362 8.385a3.886 3.886 0 0 1-1.285 1.269c-.718.393-1.593.424-2.42.367a13.141 13.141 0 0 1-2.754-.495 4.004 4.004 0 0 0 1.32-2.374c-.821-.251-1.796-.09-2.487-.583-.957-.682-.699-2.154.02-3.064.718-.91 1.77-1.573 2.366-2.555 1.63-2.735-1.034-6.41.412-9.237.375-.734 1.004-1.34 1.303-2.096.354-.912.203-1.922.168-2.89-.069-2.008.387-4 1.325-5.784.556-1.059 1.306-2.065 2.363-2.692 1.056-.627 2.462-.818 3.557-.255.485.248.885.625 1.39.842.966.417 2.19.192 3.04.795.85.603.462 1.376 1.529 1.397" fill="#965D7B"/><path opacity=".1" d="M29.524 78.095c-.447.216-1.336 2.157-3.356 3.56-2.02 1.403 3.356-3.56 3.356-3.56ZM30.476 74.286s-2.358 4.938-5.126 5.657c-2.767.72 5.126-5.657 5.126-5.657ZM35.238 86.667s-1.152 2.622-.922 2.845c.23.223.922-2.845.922-2.845ZM34.286 86.667s-1.153 2.622-.922 2.845c.23.223.922-2.845.922-2.845ZM32.381 86.667s-1.152 2.622-.922 2.845c.23.223.922-2.845.922-2.845ZM23.81 87.619s.615 2.737.906 2.854c.292.117-.906-2.854-.906-2.854ZM26.667 87.619s.615 2.739.906 2.854c.292.115-.906-2.854-.906-2.854ZM24.762 87.619s.615 2.737.907 2.854c.291.117-.907-2.854-.907-2.854ZM40 67.619c-.16.037.478 1.79-1.34 1.9-1.82.11 1.34-1.9 1.34-1.9ZM49.524 71.429s-.632 1.568-1.669 1.875c-1.036.307 1.669-1.875 1.669-1.875ZM45.196 70.476s1.495 1.533-.591 1.87c-2.086.337.59-1.87.59-1.87ZM35.238 65.512s-3.26-1.4-3.768-.376c-.507 1.024 3.768.376 3.768.376ZM30.476 68.571c-.448.216-1.335 2.158-3.355 3.56-2.02 1.403 3.355-3.56 3.355-3.56Z" fill="#000"/><g opacity=".1" fill="#000"><path opacity=".1" d="M29.636 45.563c-.467-.197-.852-.523-1.29-.77.237.054.467.136.684.244.39.195.732.47 1.109.684a3.118 3.118 0 0 1-.503-.158ZM35.126 48.064l-.118-.008a.417.417 0 0 0-.08-.134l.198.142ZM18.985 73.785c-.01.053-.024.108-.034.163-.603-.064-1.21-.099-1.685-.425.557.108 1.17.098 1.719.262Z"/><path opacity=".1" d="M20.45 76.64c.846.059 1.741.028 2.476-.366a3.92 3.92 0 0 0 1.314-1.262c1.704-2.425 2.054-5.527 1.393-8.356-.146-.629-.338-1.296-.105-1.9.324-.832 1.337-1.265 1.799-2.038.584-.982.14-2.182-.082-3.284a7.797 7.797 0 0 1 .344-4.246c.39-1.044 1.119-2.089 2.271-2.38.218-.027.427-.102.61-.219.456-.386-.063-1.044-.168-1.612-.125-.665.414-1.3 1.05-1.63.634-.329 1.373-.445 2.055-.684.436-.151.905-.569.783-.924l.116.009-.195-.143c.035.04.062.085.08.134-.942-.078-.607-.806-1.448-1.393l-.082-.05c.324.061.632.185.905.364.84.581.505 1.31 1.448 1.392.126.348-.348.773-.782.925-.682.238-1.419.348-2.056.684-.637.336-1.174.964-1.051 1.63.107.565.626 1.218.168 1.611a1.457 1.457 0 0 1-.61.221c-1.15.283-1.88 1.336-2.269 2.379a7.797 7.797 0 0 0-.345 4.25c.22 1.101.666 2.3.081 3.282-.461.775-1.475 1.207-1.797 2.04-.235.605-.043 1.27.103 1.898.66 2.828.312 5.93-1.393 8.357-.329.514-.779.947-1.314 1.264-.734.391-1.628.423-2.475.365a13.74 13.74 0 0 1-2.816-.492c.035-.028.064-.06.096-.09.625.133 1.259.221 1.897.264Z"/></g><path d="M141.627 11.447s-14.639-.838-12.914 8.906c0 0-.348 1.723 1.3 2.504 0 0 .026-.722 1.503-.477a7.113 7.113 0 0 0 1.589.073 3.398 3.398 0 0 0 1.946-.764s4.115-1.613 5.715-8.003c0 0 1.184-1.392 1.137-1.75l-2.47 1s.845 1.695.173 3.1c0 0-.08-3.037-.554-2.973-.098.015-1.285.587-1.285.587s1.453 2.95.348 5.093c0 0 .417-3.633-.809-4.88l-1.739.964s1.699 3.047.548 5.531c0 0 .295-3.811-.913-5.295l-1.575 1.168s1.613 3.014.636 5.069c0 0-.127-4.438-.965-4.773 0 0-1.377 1.156-1.588 1.63 0 0 1.092 2.178.414 3.33 0 0-.415-2.959-.756-2.973 0 0-1.374 1.958-1.516 3.303 0 0 .059-1.997 1.184-3.49 0 0-1.329.216-2.104 1.035 0 0 .214-1.385 2.434-1.506 0 0 1.134-1.486 1.438-1.575 0 0-2.217-.177-3.561.39 0 0 1.184-1.307 3.968-.714l1.565-1.206s-2.92-.38-4.156.04c0 0 1.424-1.156 4.575-.314l1.694-.963s-2.489-.508-3.97-.33c0 0 1.565-.801 4.465.068l1.217-.517s-1.822-.34-2.356-.393c-.534-.053-.563-.194-.563-.194a6.614 6.614 0 0 1 3.425.362s2.567-.908 2.52-1.063ZM126.549 6.674s-6.27-.35-5.537 3.711c0 0-.147.717.558 1.043 0 0 .011-.304.643-.198.226.035.455.046.683.031.305-.022.594-.133.825-.318 0 0 1.764-.674 2.45-3.337 0 0 .509-.58.495-.73l-1.059.418s.361.707.078 1.292c0 0-.035-1.266-.238-1.235-.043 0-.551.243-.551.243s.622 1.23.153 2.122c0 0 .179-1.514-.348-2.032l-.745.4s.727 1.271.234 2.307c0 0 .127-1.589-.391-2.207l-.675.486s.683 1.25.266 2.11c0 0-.055-1.85-.413-1.98 0 0-.591.48-.681.677 0 0 .468.914.178 1.388 0 0-.178-1.232-.33-1.237 0 0-.589.816-.65 1.371.028-.518.203-1.02.508-1.455-.34.06-.654.21-.903.431 0 0 .093-.577 1.048-.627 0 0 .487-.619.617-.657 0 0-.95-.073-1.528.163 0 0 .509-.545 1.701-.305l.669-.502s-1.253-.153-1.782.016c0 0 .61-.482 1.96-.13l.728-.403s-1.068-.211-1.703-.135c0 0 .67-.334 1.915.029l.518-.217s-.78-.141-1.009-.163c-.23-.02-.241-.08-.241-.08a2.91 2.91 0 0 1 1.468.152s1.109-.373 1.089-.442Z" fill="#F8765E"/><path opacity=".1" d="M184.762 125.762c2.63 0 4.762-.448 4.762-1s-2.132-1-4.762-1c-2.63 0-4.762.448-4.762 1s2.132 1 4.762 1ZM5.714 139.095c2.63 0 4.762-.448 4.762-1s-2.132-1-4.762-1c-2.63 0-4.762.448-4.762 1s2.132 1 4.762 1ZM32.38 140.048c2.63 0 4.763-.448 4.763-1 0-.553-2.132-1-4.762-1-2.63 0-4.762.447-4.762 1 0 .552 2.132 1 4.762 1Z" fill="#F8765E"/><path d="M174.762 135.238c3.945 0 7.143-.639 7.143-1.428 0-.789-3.198-1.429-7.143-1.429s-7.143.64-7.143 1.429 3.198 1.428 7.143 1.428Z" fill="#F8765E"/><path d="M176.502 131.425a1.81 1.81 0 0 0 .62-.89c.081-.354-.078-.779-.434-.909-.399-.145-.825.119-1.147.384-.323.264-.694.568-1.117.511.443-.381.643-.954.527-1.511a.62.62 0 0 0-.148-.308c-.22-.225-.622-.128-.886.05-.843.562-1.077 1.65-1.082 2.628-.085-.353-.013-.721-.017-1.078-.003-.357-.105-.77-.427-.958a1.36 1.36 0 0 0-.648-.154c-.38-.013-.801.024-1.059.287-.324.326-.238.874.041 1.232.279.357.705.586 1.097.834.314.178.581.421.783.71a.67.67 0 0 1 .058.128h2.375a6.724 6.724 0 0 0 1.464-.956ZM8.336 117.143s.952 1.222-.438 3.064-2.54 3.404-2.081 4.555c0 0 2.101-3.428 3.815-3.476 1.713-.048.586-2.082-1.296-4.143Z" fill="#F8765E"/><path opacity=".1" d="M8.31 117.143c.084.117.15.246.196.383 1.687 1.922 2.586 3.716.964 3.762-1.51.041-3.323 2.662-3.756 3.324.014.05.032.101.051.15 0 0 2.125-3.426 3.858-3.474 1.732-.047.59-2.085-1.313-4.145Z" fill="#000"/><path d="M9.634 119.298c0 .388-.049.702-.11.702s-.11-.307-.11-.702c0-.396.061-.204.122-.204s.098-.19.098.204Z" fill="#FFD037"/><path d="M10.25 119.527c-.37.335-.696.537-.724.454-.029-.083.251-.427.623-.762s.226-.091.253 0c.026.092.22-.033-.151.308Z" fill="#FFD037"/><path d="M2.138 117.143s-.951 1.222.44 3.064c1.393 1.842 2.54 3.404 2.081 4.555 0 0-2.1-3.428-3.814-3.476-1.714-.048-.586-2.082 1.293-4.143Z" fill="#F8765E"/><path opacity=".1" d="M2.166 117.143c-.084.118-.15.247-.196.383-1.686 1.922-2.584 3.716-.964 3.762 1.51.041 3.33 2.662 3.756 3.324-.016.05-.032.101-.053.15 0 0-2.122-3.426-3.856-3.474-1.733-.047-.587-2.085 1.313-4.145Z" fill="#000"/><path d="M.841 119.298c0 .388.05.702.112.702.063 0 .11-.307.11-.702 0-.396-.063-.204-.124-.204-.06 0-.098-.19-.098.204Z" fill="#FFD037"/><path d="M.228 119.527c.371.335.694.537.722.454.029-.083-.25-.427-.621-.762-.372-.335-.225-.091-.253 0-.028.092-.224-.033.152.308Z" fill="#FFD037"/><path d="M.952 124.215s2.815-.077 3.665-.618c.85-.541 4.328-1.185 4.54-.31.213.875 4.232 4.308 1.052 4.331-3.179.023-7.382-.442-8.229-.904-.846-.462-1.028-2.499-1.028-2.499Z" fill="#A8A8A8"/><path opacity=".2" d="M10.267 128.236c-3.179.026-7.386-.496-8.233-1.015-.645-.393-.902-1.807-.988-2.459H.952s.184 2.277 1.025 2.794c.842.516 5.055 1.04 8.233 1.015.917 0 1.236-.335 1.218-.82-.121.296-.471.48-1.16.485Z" fill="#000"/><defs><linearGradient id="paint0_linear_20_282" x1="134.286" y1="130.468" x2="134.286" y2="44.735" gradientUnits="userSpaceOnUse"><stop stop-color="gray" stop-opacity=".25"/><stop offset=".54" stop-color="gray" stop-opacity=".12"/><stop offset="1" stop-color="gray" stop-opacity=".1"/></linearGradient><linearGradient id="paint1_linear_20_282" x1="35.23" y1="129.524" x2="35.23" y2="44.76" gradientUnits="userSpaceOnUse"><stop stop-color="gray" stop-opacity=".25"/><stop offset=".54" stop-color="gray" stop-opacity=".12"/><stop offset="1" stop-color="gray" stop-opacity=".1"/></linearGradient><linearGradient id="paint2_linear_20_282" x1="35.238" y1="48.631" x2="35.238" y2="48.512" gradientUnits="userSpaceOnUse"><stop stop-color="gray" stop-opacity=".25"/><stop offset=".54" stop-color="gray" stop-opacity=".12"/><stop offset="1" stop-color="gray" stop-opacity=".1"/></linearGradient><linearGradient id="paint3_linear_20_282" x1="34.286" y1="47.74" x2="34.286" y2="47.518" gradientUnits="userSpaceOnUse"><stop stop-color="gray" stop-opacity=".25"/><stop offset=".54" stop-color="gray" stop-opacity=".12"/><stop offset="1" stop-color="gray" stop-opacity=".1"/></linearGradient></defs></svg>