<svg width="184" height="130" fill="none" xmlns="http://www.w3.org/2000/svg"><path opacity=".1" d="M60.306 129.305c9.128 0 16.527-1.305 16.527-2.916s-7.4-2.917-16.527-2.917c-9.128 0-16.528 1.306-16.528 2.917 0 1.611 7.4 2.916 16.528 2.916ZM149.264 129.305c11.007 0 19.93-1.305 19.93-2.916s-8.923-2.917-19.93-2.917-19.931 1.306-19.931 2.917c0 1.611 8.924 2.916 19.931 2.916ZM1.351 54.444H18.5v23.282H2.607c-.042.239-.083.48-.127.72H18.5v18.776c-.029-.008-.054-.018-.081-.028a31.2 31.2 0 0 1-1.352-.57l-.287-.129c-.45-.212-.901-.436-1.352-.673a28.104 28.104 0 0 1-7.208-5.5c-.057-.056-.112-.115-.169-.169a28.906 28.906 0 0 1-.803-.902l-.287-.336c-.307-.376-.605-.761-.894-1.151-.042-.058-.082-.115-.126-.169a25.028 25.028 0 0 1-2.907-5.234c-.023-.056-.044-.116-.066-.168a22.495 22.495 0 0 1-.616-1.801 13.547 13.547 0 0 1-.217-.77 4.2 4.2 0 0 1-.062-.228C1.113 75.662 1 71.786 1 67.937v-1.346c0-1.557.019-3.124.046-4.689 0-.406.017-.81.025-1.217a158.233 158.233 0 0 1 .14-3.96c0-.165.009-.33.026-.495.04-.599.074-1.193.114-1.785ZM18.5 29.167H9.75a69.977 69.977 0 0 1 4.654-6.759A84.523 84.523 0 0 1 18.5 17.5v11.667ZM18.5 30.139v24.305H1c0-.07.012-.142.017-.212.016-.192.031-.384.049-.575.019-.223.04-.449.062-.668.022-.219.047-.486.073-.728.026-.243.05-.488.08-.73.029-.243.055-.485.086-.726.03-.24.059-.484.091-.725a45.343 45.343 0 0 1 .208-1.447c0-.042.012-.085.019-.125a56.076 56.076 0 0 1 1.289-6.103 44.083 44.083 0 0 1 2.17-6.182c.933-2.1 2.024-4.131 3.266-6.076l10.09-.008ZM23.361 56.026v22.917H59.38V56.026H23.361Zm0 23.625v19.68c.206.043.41.085.613.12a19.292 19.292 0 0 0 .997.164c.11.018.223.033.332.048.278.038.554.07.831.094.131.013.264.025.397.035l.321.025c.174.013.347.023.518.028.107 0 .213.01.323.013h1.185c.142 0 .285 0 .427-.013h.01c.098 0 .197 0 .297-.013a.72.72 0 0 0 .083 0c.083 0 .166 0 .246-.012h.058l.557-.043c.182-.017.367-.038.553-.058l.379-.045a33.22 33.22 0 0 0 4.56-.967c3.36-.935 6.647-2.242 10.005-3.2 4.342-1.233 9.139-1.84 13.334-.33V79.65H23.361ZM59.38 30.513V.003A46.434 46.434 0 0 0 47.677 1.37c-9.12 2.285-17.304 7.24-24.316 13.568V30.51h1.808v.707H23.36v24.1H59.38V31.22H32.591v-.707H59.38Zm46.263-10.306c-2.256-.08-4.499-.792-6.528-1.892-3.88-2.104-6.979-5.353-10.441-8.094C81.478 4.51 72.555 1.065 63.402.21v30.302h51.417l.128-.134-9.305-10.171Zm4.684-.829 4.967 5.434v-6.858c-1.664.205-3.121.694-4.96 1.418l-.007.006Zm4.967 84.84V79.651H104.71c-.028-.105-.056-.21-.09-.317.032.106.059.212.088.317h-41.3v17.767c.392.29.78.595 1.163.904.414.332.823.681 1.233 1.024l.414.341c.198.166.397.332.598.488.399.322.802.64 1.208.954.201.165.407.314.612.47a83.386 83.386 0 0 0 10.24 6.678c.8.442 1.609.873 2.424 1.294.544.276 1.09.551 1.639.818a91.752 91.752 0 0 0 26.751 8.205c1.86.274 3.727.49 5.601.646v-15.023h.166l-.164.001ZM63.408 31.22v24.099H115.3v-24.1h-51.89Zm0 24.806v22.917H115.3V56.026h-51.89Zm55.919-38.102v7.65l6.339-6.934a69.62 69.62 0 0 0-6.339-.724v.008Zm0 38.11v22.91h50.47V56.025l-50.47.008Zm50.286 50.003.178-26.386h-50.464v39.853a90.92 90.92 0 0 0 9.753-.116h.057a81.095 81.095 0 0 0 4.631-.424h.035a85.497 85.497 0 0 0 23.793-6.33l12.017-6.597Zm9.916-46.237a62.826 62.826 0 0 0-1.769-3.764h-3.938v22.907h9.956c-.005-6.487-1.652-13.113-4.244-19.152l-.005.009Zm-5.707 19.86v22.695c2.804-2.68 5.174-5.747 6.88-9.253 2.052-4.22 2.991-8.791 3.067-13.446l-9.947.003Zm0-30.304v5.964h3.569a64.77 64.77 0 0 0-3.564-5.972l-.005.008ZM139.593 22.42a72.2 72.2 0 0 0-9.315-2.853l-9.7 10.614-.186.197.125.136h34.524a73.908 73.908 0 0 0-15.443-8.102l-.005.008Zm16.46 8.808h-36.018l-.708.646V55.32h50.477V43.962a71.85 71.85 0 0 0-13.746-12.742l-.005.008Z" fill="#F8765E"/><path opacity=".1" d="M18.5 41.806v11.666H1c0-.068.012-.137.017-.205.016-.186.031-.373.049-.557.019-.217.04-.435.062-.647.022-.212.047-.471.073-.706.026-.235.05-.472.08-.707.029-.235.055-.47.086-.703.03-.233.059-.469.091-.702.026-.194.054-.387.082-.58.04-.274.081-.55.126-.821 0-.04.012-.083.019-.122.316-1.99.746-3.963 1.289-5.91l15.526-.006ZM1.351 54.444H18.5v23.282H2.607c-.042.239-.083.48-.127.72H18.5v18.776c-.029-.008-.054-.018-.081-.028a31.2 31.2 0 0 1-1.352-.57l-.287-.129c-.45-.212-.901-.436-1.352-.673a28.104 28.104 0 0 1-7.208-5.5c-.057-.056-.112-.115-.169-.169a28.906 28.906 0 0 1-.803-.902l-.287-.336c-.307-.376-.605-.761-.894-1.151-.042-.058-.082-.115-.126-.169a25.028 25.028 0 0 1-2.907-5.234c-.023-.056-.044-.116-.066-.168a22.495 22.495 0 0 1-.616-1.801 13.547 13.547 0 0 1-.217-.77 4.2 4.2 0 0 1-.062-.228C1.113 75.662 1 71.786 1 67.937v-1.346c0-1.557.019-3.124.046-4.689 0-.406.017-.81.025-1.217a158.233 158.233 0 0 1 .14-3.96c0-.165.009-.33.026-.495.04-.599.074-1.193.114-1.785ZM36 34.108v20.336H23.361V34.108h1.802v-6.886h7.397v6.886H36ZM36 54.444H23.361v23.334H36V54.444ZM23.361 78.75H36v19.255c-1.49.433-3.01.759-4.546.976l-.378.047c-.186.021-.37.04-.552.058a15.16 15.16 0 0 1-.555.044h-.057c-.08 0-.166.01-.244.012h-.084c-.1 0-.2.01-.299.013-.14.008-.281.01-.425.012h-1.173l-.32-.012c-.165 0-.344-.019-.516-.03l-.318-.024-.396-.037a16.689 16.689 0 0 1-.828-.095l-.331-.047-.166-.023c-.277-.044-.55-.09-.828-.144-.204-.035-.406-.079-.611-.12L23.36 78.75ZM114.75 31.111h-10.694v23.333h10.694V31.111ZM114.75 54.444v23.334H63.222V67.713h27.446v5.938h13.699V54.444h10.383ZM114.75 103.6h-.165v15.011a90.214 90.214 0 0 1-29.564-7.693 86.354 86.354 0 0 1-6.487-3.272 82.736 82.736 0 0 1-12.527-8.577c-.545-.451-1.086-.915-1.634-1.364-.38-.31-.763-.614-1.15-.905V79.066H104.1c-.028-.106-.056-.212-.086-.316.031.104.061.21.089.316h10.481v24.524c.056.002.111.007.165.01ZM141 29.167h-6.806v-1.955h3.051v-5.823c.265.089.528.18.79.275v5.548H141v1.955ZM158.5 54.436h-33.621l.012.008-.015-.008h-6.237V31.16h1.767v17.204h8.076V38.175h6.672V30.14h6.848v8.043h6.671V48.37h9.827v6.065ZM119.611 55.417v22.786h39.719V55.417h-39.719Zm50.501 49.608.055-18.036H159.33v-8.07h-39.719v39.613c3.256.135 6.518.097 9.77-.115h.057a81.335 81.335 0 0 0 4.638-.422h.035a86.14 86.14 0 0 0 23.834-6.294l12.167-6.676ZM175.642 79.722h8.136c-.072 4.385-.896 8.693-2.7 12.67-1.501 3.305-3.586 6.195-6.05 8.719V87.373h.614v-7.65ZM183.778 78.75h-8.75V59.306h4.735c2.45 6.13 4.007 12.858 4.015 19.444Z" fill="#F8765E"/><path opacity=".1" d="M114.75 38.889h-5.833v6.805h5.833V38.89ZM114.75 52.5h-5.833v1.944h5.833V52.5ZM114.75 54.444h-5.833v5.834h5.833v-5.834ZM114.75 68.055h-5.833v6.806h5.833v-6.806ZM114.75 83.611h-5.833v6.806h5.833V83.61ZM114.582 103.411c.057 0 .112 0 .168.01h-.168V105h-5.665v-6.805h5.665v5.216ZM114.75 112.778v5.833a96.92 96.92 0 0 1-5.833-.672v-5.161h5.833ZM86.556 77.778H62.25v1h24.306v-1Z" fill="#F8765E"/><path opacity=".1" d="M86.556 78.75H62.25v1.944h24.306V78.75ZM86.556 87.5H62.25v3.889h24.306V87.5ZM87.528 97.222v3.889h-19.18a88.116 88.116 0 0 1-2.468-2.269c-.562-.537-1.119-1.087-1.685-1.62h23.333ZM86.556 106.95v3.883h-1.807a75.14 75.14 0 0 1-5.971-3.889l7.778.006ZM133.222 58.333h-4.861v4.861h4.861v-4.86ZM30.167 35.972h-4.862v4.861h4.862v-4.86ZM30.167 46.667h-4.862v4.86h4.862v-4.86ZM30.167 58.333h-4.862v4.861h4.862v-4.86ZM30.167 68.055h-4.862v4.862h4.862v-4.862ZM30.167 78.75h-4.862v4.861h4.862V78.75ZM30.167 91.389h-4.862v4.861h4.862v-4.861ZM151.694 58.333h-4.861v4.861h4.861v-4.86ZM133.222 69.028h-4.861v4.86h4.861v-4.86ZM151.694 69.028h-4.861v4.86h4.861v-4.86ZM133.222 80.695h-4.861v4.86h4.861v-4.86ZM151.694 80.695h-4.861v4.86h4.861v-4.86ZM133.222 92.361h-4.861v4.861h4.861v-4.86ZM151.694 92.361h-4.861v4.861h4.861v-4.86ZM133.222 105h-4.861v4.861h4.861V105ZM151.694 105h-4.861v4.861h4.861V105ZM128.361 119.583v-3.889h4.861v3.336l-4.861.553ZM2.944 48.611V52.5h16.528v-3.889H2.944Zm1.648 3.645H3.243V48.85h1.359l-.01 3.406Zm1.645 0H4.88V48.85h1.358v3.406Zm1.642 0H6.521V48.85h1.358v3.406Zm1.646 0H8.168V48.85h1.358l-.001 3.406Zm1.643 0H9.81V48.85h1.358v3.406Zm1.646 0h-1.359V48.85h1.359v3.406Zm1.645 0h-1.358V48.85h1.358v3.406Zm1.644 0h-1.358V48.85h1.358v3.406Zm1.644 0h-1.358V48.85h1.358v3.406Zm1.644 0h-1.359V48.85h1.359v3.406ZM2.944 55.417v3.889h16.528v-3.89H2.944Zm1.648 3.642H3.243v-3.396h1.359l-.01 3.396Zm1.645 0H4.88v-3.396h1.358v3.396Zm1.642 0H6.521v-3.396h1.358v3.396Zm1.646 0H8.168v-3.396h1.358l-.001 3.396Zm1.643 0H9.81v-3.396h1.358v3.396Zm1.646 0h-1.359v-3.396h1.359v3.396Zm1.645 0h-1.358v-3.396h1.358v3.396Zm1.644 0h-1.358v-3.396h1.358v3.396Zm1.644 0h-1.358v-3.396h1.358v3.396Zm1.644 0h-1.359v-3.396h1.359v3.396ZM2.944 65.139v3.889h16.528v-3.89H2.944Zm1.648 3.636H3.243v-3.393h1.359l-.01 3.393Zm1.645 0H4.88v-3.393h1.358v3.393Zm1.642 0H6.521v-3.393h1.358v3.393Zm1.646 0H8.168v-3.393h1.358l-.001 3.393Zm1.643 0H9.81v-3.393h1.358v3.393Zm1.646 0h-1.359v-3.393h1.359v3.393Zm1.645 0h-1.358v-3.393h1.358v3.393Zm1.644 0h-1.358v-3.393h1.358v3.393Zm1.644 0h-1.358v-3.393h1.358v3.393Zm1.644 0h-1.359v-3.393h1.359v3.393ZM2.944 71.945v3.888h16.528v-3.888H2.944Zm1.648 3.647H3.243v-3.406h1.359l-.01 3.406Zm1.645 0H4.88v-3.406h1.358v3.406Zm1.642 0H6.521v-3.406h1.358v3.406Zm1.646 0H8.168v-3.406h1.358l-.001 3.406Zm1.643 0H9.81v-3.406h1.358v3.406Zm1.646 0h-1.359v-3.406h1.359v3.406Zm1.645 0h-1.358v-3.406h1.358v3.406Zm1.644 0h-1.358v-3.406h1.358v3.406Zm1.644 0h-1.358v-3.406h1.358v3.406Zm1.644 0h-1.359v-3.406h1.359v3.406ZM2.944 78.75c.067.366.142.733.22 1.094v-.85H4.53V82.4h-.73c.022.08.044.166.066.24h15.607V78.75H2.944Zm3.24 3.65H4.82v-3.406h1.365V82.4Zm1.65 0H6.47v-3.406h1.364V82.4Zm1.653 0H8.119v-3.406h1.364l.004 3.405Zm1.65 0H9.774v-3.406h1.365V82.4Zm1.653 0h-1.364v-3.406h1.364V82.4Zm1.653 0h-1.365v-3.406h1.365V82.4Zm1.65 0H14.73v-3.406h1.365V82.4Zm1.652 0H16.38v-3.406h1.365V82.4Zm1.65 0h-1.364v-3.406h1.364V82.4ZM5.861 87.5c.043.077.083.163.128.24h.899v1.636c.097.163.192.326.29.48V87.73h1.36v3.42h-.55c.054.078.107.162.17.239H18.5V87.5H5.861Zm4.32 3.65h-1.36v-3.406h1.36v3.405Zm1.648 0h-1.36v-3.406h1.36v3.405Zm1.647 0h-1.36v-3.406h1.36v3.405Zm1.646 0h-1.36v-3.406h1.36v3.405Zm1.645 0h-1.36v-3.406h1.36v3.405Zm1.646 0h-1.36v-3.406h1.36v3.405ZM15.583 95.278c.17.102.342.197.516.3v-.099h1.485v.889l.315.156v-1.045h1.484v1.708a.447.447 0 0 0 .09.035v-1.944h-3.89ZM114.584 104.028h.166-.166ZM103.89 78.76c.031.108.058.215.088.321a6.935 6.935 0 0 0-.088-.321ZM24.333 29.167v.718h7.433v-.718h-7.433Zm90.251 74.861h.166-.166ZM103.89 78.76c.031.108.058.215.088.321a6.935 6.935 0 0 0-.088-.321Zm10.694 25.263h.166-.166ZM103.89 78.76c.031.108.058.215.088.321a6.935 6.935 0 0 0-.088-.321Z" fill="#F8765E"/><path d="M77.356 61.8s-.657-.091-.657-1.044c0-.952-.47-2.73-.47-2.73 0-.009-.406-3.098-.968-3.589-.561-.491-1.282-3.374-1.282-3.374s-.124-1.565-.375-1.902c-.252-.336-.592-1.16-1.093-2.337-.502-1.176-2.592-1.991-2.592-1.991s-3.78-2.183-4.852-2.895a1.638 1.638 0 0 1-.271-.204c-.187-.244-1-.249-1-.249a16.25 16.25 0 0 1-.193-1.704c0-.06 0-.12-.009-.179a5.745 5.745 0 0 0 2.534-3.122c.02-.063.037-.13.055-.193a.54.54 0 0 0 .325-.292c.097-.214.099-.464.219-.663.14-.236.406-.362.616-.54.53-.447.666-1.202.641-1.89-.016-.555-.106-1.116-.071-1.668l.01-.14c.01-.082.021-.165.036-.245.082-.411.26-.8.36-1.208.1-.408.11-.867-.123-1.22-.342-.515-1.053-.618-1.678-.671-.708-.06-1.34.018-1.794-.567a6.379 6.379 0 0 0-.713-.858c-.093-.086-1-.637-1-.674a4.066 4.066 0 0 0-2.824-.215c-.47.136-.912.358-1.389.47-1.028.241-2.21-.02-3.084.565-.486.332-.778.86-1.05 1.373-.223.424-.449.847-.677 1.27-.368.695-.743 1.402-.898 2.171a3.425 3.425 0 0 0-.06.508v.27c0 .058 0 .115.01.166.01.052.008.068.013.103.005.035.014.113.023.166.01.053.03.146.05.22l.03.09c.017.057.037.111.059.166l.036.087c.025.058.055.114.085.165l.037.067c.047.077.098.151.153.222.357.443.882.725 1.27 1.14v.186a5.673 5.673 0 0 0 2.595 4.637c0 .063.009.127.012.19a9.45 9.45 0 0 1-.018 1.479.7.7 0 0 0-.553-.246.8.8 0 0 0-.214.018l-.015-.011v.015c-.366.09-.818.47-1.25 1.55 0 0-1.312 1.472-2.311 1.411-1-.061-3.53 1.533-3.53 1.533s-2.47 1.596-3 3.222a22.671 22.671 0 0 1-1.062 2.7l-3.052 6.264-.564 4.968s.312 2.21.25 2.547c-.061.337 1.281 3.374 1.281 3.374s4.437 7.763 6.25 8.161l.13-.091c.077.04.16.07.244.091l.374-.262a4.03 4.03 0 0 1-.029.876c-.25.766.093 5.768.53 6.749.437.98.282 13.836.282 13.836l-.062 1.135s0 .037.015.1l-.015.268.045.023c.047.36.031.726-.045 1.081-.157.497-.22 1.904-.22 1.904s-1.248 7.944-.656 9.539a54.604 54.604 0 0 1 1.094 3.345s.625 1.991.03 2.331c-.595.34-2.286.911-1.937 1.74.316.767 1.517 2.821 1.696 3.121l-.015.158-.245 2.642c.04.349.134.69.281 1.009.269.576.79 1.173 1.781 1.108.167-.011.36-.031.547-.056 1.814-.242 4.048-1.049 4.048-1.049a1.622 1.622 0 0 1-.317-.26.91.91 0 0 1-.278-.664c.027-.481-.878-2.774-1.103-3.338a5.827 5.827 0 0 1-.053-.127s2.063-2.147 1.72-4.05c0 0-2.283-1.327-1.532-2.056.752-.728 2.094-2.82 2.094-2.82s.062-7.822 0-8.99a9.631 9.631 0 0 1 .115-2.427 5.86 5.86 0 0 1 .087-.355 21.98 21.98 0 0 0 3.139.237c.383 0 .773 0 1.166-.023 0 .11.005.23.015.358.087 1.938.248 5.335.38 6.598.186 1.81 1.218 6.687 1.218 6.687s-1.968 1.258.343 4.357c0 0 0 1.123-.153 1.286a13.983 13.983 0 0 0-.395 1.619c-.097.584-.137 1.175.02 1.482.374.733 2.624.673 2.624.673l.055-.01a3.233 3.233 0 0 1 2.38.715c.855.684 4.099.383 5.855.166.688-.086 1.147-.166 1.147-.166a.658.658 0 0 0 .024-.239c-.019-.429-.357-1.372-2.65-2.213 0 0-2.155-1.443-2.125-2.701h-.295c.182-.01.298 0 .298 0s-.844-3.069-.5-3.318c.345-.249-.688-3.65-.688-3.65s-.59-5.707-.623-6.107a3.47 3.47 0 0 1 .155-1.012l-.155-3.128s-.03-1.041 0-1.379a6.865 6.865 0 0 0-.071-.878c-.015-.116-.03-.237-.047-.356.808-.205 1.333-.394 1.333-.394l-.093-10.891c.686-1.327.813-4.239.81-6.304 0-1.328-.06-2.31-.06-2.31l.937-1.525s.217-1.824-.126-2.224c-.152-.181-.084-.368.041-.523.065-.051.134-.098.205-.14 0 0-.01-.014-.021-.036.065-.054.135-.103.208-.147 0 0-.333-.515-.035-.732.28.19.53.332.72.448-.014.121-.027.19-.027.19l.08-.165.295.166s1.47-2.915 1.438-3.345c-.032-.43 1-2.24 1-2.24s.124-.95.687-1.348c.563-.398.437-3.283.437-3.283s.156-1.504.531-2.117c.375-.614-.341-1.442-.341-1.442ZM49.24 60.52l.029.696-.287-.46.258-.235Z" fill="url('#paint0_linear_20_112')"/><path d="m72.945 75.043-.452 1.763s-3.612-1.692-4.264-3.84C67.578 70.815 69.32 70 69.32 70l3.367 1.308.258 3.735Z" fill="#fff"/><path opacity=".1" d="m72.945 75.043-.452 1.763s-3.612-1.692-4.264-3.84C67.578 70.815 69.32 70 69.32 70l3.367 1.308.258 3.735Z" fill="#000"/><path d="M56.417 127.283s-2.782.929-4.695 1.046c-1.016.061-1.55-.504-1.824-1.049a2.954 2.954 0 0 1-.287-.956l.249-2.504.132-1.333 4.063-.959.576 1.599.054.121c.231.534 1.158 2.706 1.13 3.16-.002.234.1.46.285.624.093.095.2.18.317.251ZM74.887 125.696a.745.745 0 0 1-.023.249s-5.558.998-6.694 0a2.867 2.867 0 0 0-2.339-.737s-2.15.063-2.509-.699c-.15-.319-.11-.94-.018-1.551.095-.573.22-1.14.377-1.697l.086-.073.512-.442 5.989-.19h.045c-.029 1.317 2.034 2.828 2.034 2.828 2.19.874 2.514 1.861 2.54 2.312Z" fill="#fff"/><path opacity=".1" d="M74.887 125.603a.975.975 0 0 1-.024.283s-5.557 1.131-6.694 0c-.647-.667-1.496-.971-2.337-.835 0 0-2.152.071-2.51-.792-.149-.365-.111-1.066-.019-1.759.829.101 2.136.352 2.65.953.776.912 2.091 1.823 2.899 1.895.631.049 4.41.196 6.035.255ZM56.417 127.544s-2.906.698-4.903.786c-1.06.046-1.618-.379-1.903-.79.74.163 1.765.334 2.304.177.64-.185 2.906-.305 4.177-.356.096.069.206.131.325.183Z" fill="#000"/><path d="M60.779 49.38c-2.165-.898-4.949-3.861-4.254-5.246.155-.35.247-.727.27-1.112.046-.523.052-1.05.02-1.573a22.922 22.922 0 0 0-.29-2.56s6.758.162 6.364 1.224c-.114.311-.133.851-.101 1.456.03.605.113 1.289.198 1.867.118.794.236 1.4.236 1.4s-.413.616-.656.65c-.242.033 1.319 5.171-1.787 3.893Z" fill="#CF6F80"/><path opacity=".1" d="m55.444 122.949-.054.044c-2.158-1.944-4.768.479-4.768.479l-.039-.051.134-1.101 4.093-.792.58 1.32.054.101ZM70.028 121.674s-1.5-.025-2.3.543c-.8.569-4.667.124-4.5 0a.387.387 0 0 0 .086-.203l.525-.34 6.147-.146c.023.09.042.146.042.146Z" fill="#000"/><path d="M56.402 100.538a5.23 5.23 0 0 0-.222.861 11.338 11.338 0 0 0-.1 2.445c.053 1.175 0 9.051 0 9.051s-1.153 2.1-1.796 2.841c-.643.74 1.312 2.07 1.312 2.07.291 1.914-1.475 4.076-1.475 4.076-1.796-2.501-3.968.618-3.968.618s-1.18-2.351-1.475-3.19c-.294-.839 1.153-1.42 1.662-1.761.508-.341-.025-2.351-.025-2.351s-.43-1.761-.94-3.368c-.51-1.606.562-9.605.562-9.605s.056-1.42.188-1.915c.067-.358.08-.726.04-1.088a8.652 8.652 0 0 0-.026-.294c-.008-.069-.014-.1-.014-.1l.02-.041.73-1.565s5.877 2.33 5.527 3.316ZM69.056 120.542s-1.356-.031-2.079.648c-.723.679-4.217.149-4.067 0 .151-.149.14-1.253.14-1.253-2.05-3.011-.302-4.233-.302-4.233s-.916-4.741-1.082-6.5c-.116-1.228-.259-4.53-.335-6.415-.034-.81-.053-1.368-.053-1.368l1.675-.363.215-.047 4.04-.872s.111.81.186 1.473a7.4 7.4 0 0 1 .064.854c-.028.325 0 1.339 0 1.339l.137 3.042c-.09.32-.136.651-.137.984.027.388.552 5.934.552 5.934s.915 3.31.603 3.548c-.312.238.443 3.229.443 3.229Z" fill="#9BDBE7"/><path opacity=".1" d="M62.232 38.29c-.122.342-.141.935-.108 1.6-1.97 1.303-4.446 1.253-6.37-.13a25.926 25.926 0 0 0-.31-2.816s7.208.175 6.788 1.345Z" fill="#000"/><path d="M66.136 35.05a5.682 5.682 0 0 1-.286 1.794c-.882 2.678-3.581 4.337-6.392 3.928-2.81-.41-4.916-2.767-4.985-5.583v-.139a5.775 5.775 0 0 1 2.887-5.092 5.876 5.876 0 0 1 5.89 0 5.775 5.775 0 0 1 2.888 5.092h-.002Z" fill="#CF6F80"/><path opacity=".1" d="M60.779 48.4c-2.165-.931-4.949-4.005-4.254-5.441.155-.363.247-.754.27-1.154L59.76 44.5l1.833 1.662 1.394-3.924c.118.823.236 1.45.236 1.45s-.413.641-.656.675c-.242.035 1.319 5.363-1.787 4.037Z" fill="#000"/><path d="m68.083 58.947-2.567 41.951-3.347.213L53.5 76.786l1.422-28.879.3-6.101 3.854 3.08 1.904 1.517 1.488-3.686 2.768 2.347 2.847 13.883Z" fill="#9BDBE7"/><path opacity=".1" d="M57.373 101.078a6.481 6.481 0 0 0-.24 1.005c-2.258-.433-4.452-1.285-6.507-2.526l-.043-.028.015-.315.007-.165.789-1.827s6.357 2.705 5.979 3.856ZM63.222 102.826c-.624.113-1.253.19-1.885.23-.037-.911-.06-1.537-.06-1.537l1.896-.408.05 1.715ZM68.083 100.624c-1.231.297-3.134.63-4.837.422l-.024-1.017 4.646-.862s.129.793.215 1.457Z" fill="#000"/><path opacity=".1" d="M63.222 101.833c-6.456 1.182-12.369-2.206-12.369-2.206l.057-1.148s.147-13.013-.26-14.01c-.406-.998-.722-6.057-.492-6.834.23-.776-.84-12.42-.84-12.42l-.173-4.727-6.34-2.753 2.835-6.334a23.88 23.88 0 0 0 .986-2.734c.492-1.644 2.78-3.26 2.78-3.26s2.347-1.613 3.274-1.553c.928.061 2.143-1.428 2.143-1.428.898-2.453 1.71-1.342 1.71-1.342 0 .117 0 0-.044.363-.315 2.693 5.092 11.2 5.17 11.35l.514 13.447.522 17.017.527 18.572Z" fill="#000"/><path d="M63.222 101.833c-6.454 1.182-12.367-2.206-12.367-2.206l.058-1.147s.146-13.011-.261-14.009c-.408-.997-.723-6.055-.492-6.832.232-.776-.839-12.418-.839-12.418l-.174-4.726-6.341-2.763 2.833-6.332c.382-.888.711-1.802.986-2.734.49-1.644 2.78-3.26 2.78-3.26s2.346-1.613 3.271-1.552c.926.06 2.143-1.428 2.143-1.428.899-2.452 1.889-1.342 1.889-1.342 0 .117-.095.169-.044.363.692 2.611 4.918 11.198 4.995 11.348l.521 13.445.521 17.014.521 18.579Z" fill="#fff"/><path opacity=".1" d="M61.278 53.472c-.795-.303-5.004-4.696-5.004-4.696v-1c-.153-.329-1.063-.128-1.802.102l.317-6.072.36.273c.79 2.546 6.037 11.247 6.129 11.393Z" fill="#000"/><path d="M61.278 53.472c-.797-.303-5.005-4.696-5.005-4.696v-1c-.153-.329-1.062-.128-1.8.102l.318-6.072.36.273c.791 2.546 6.038 11.248 6.127 11.393Z" fill="#fff"/><path opacity=".1" d="M50.912 76.29c.08 0 4.16-.457 4.16-.457s2.471 5.166 2.31 6.423c-.163 1.257-.456 2.37-1.45 2.172-.994-.197-5.349.155-5.349.155l.329-8.293Z" fill="#000"/><path d="M49.94 76.29a668 668 0 0 0 4.16-.457s2.47 5.168 2.31 6.423c-.161 1.255-.458 2.37-1.45 2.172-.992-.197-5.349.155-5.349.155l.329-8.293Z" fill="#fff"/><path d="M53.09 72.917s4.206 2.753 4.296 3.593c.09.841-2.14-.367-2.623-.513a5.01 5.01 0 0 0-.965-.183l-3.215.106 2.507-3.003Z" fill="#CF6F80"/><path opacity=".1" d="M60.792 53.986a1 1 0 1 0 0-2 1 1 0 0 0 0 2Z" fill="#000"/><path d="M60.792 53.986a1 1 0 1 0 0-2 1 1 0 0 0 0 2Z" fill="#3F3D56"/><path opacity=".1" d="M60.792 74.403a1 1 0 1 0 0-2 1 1 0 0 0 0 2Z" fill="#000"/><path d="M60.792 73.43a1 1 0 1 0 0-2 1 1 0 0 0 0 2Z" fill="#3F3D56"/><path opacity=".1" d="M60.792 64.68a1 1 0 1 0 0-2 1 1 0 0 0 0 2Z" fill="#000"/><path d="M60.792 64.68a1 1 0 1 0 0-2 1 1 0 0 0 0 2Z" fill="#3F3D56"/><path d="M71.374 74.617s.298.462 0 .677c-.297.216.03.738.03.738s-.743.45-.416.855c.326.405.12 2.233.12 2.233l-.894 1.53s.053.985.057 2.316c0 2.078-.118 4.999-.772 6.33l.09 10.926s-3.127 1.181-5.745.821l-.389-17.532s.567-9.941.775-11.848c.122-.99.172-1.989.15-2.986 0 0-.09-2.985-.39-4.37 0 0-.323-6-.355-7.661-.015-.795.026-3.114.071-5.318.05-2.41.107-4.684.107-4.684l-.59-4.831s.59-.062.768.183c.08.078.166.146.259.206 1.02.713 4.621 2.904 4.621 2.904s1.994.82 2.47 1.994c.478 1.175.81 2.008 1.041 2.342.232.335.358 1.907.358 1.907s.686 2.894 1.222 3.385c.535.49.927 3.608.927 3.608l-4.733 3.847s-.416 6.4-.505 6.648c-.089.248 1.723 5.78 1.723 5.78Z" fill="#fff"/><path d="M71.146 74.638s.316.461 0 .677c-.315.215.03.737.03.737s-.787.454-.442.859c.345.404.128 2.23.128 2.23l-.953 1.528s.057.985.062 2.315c0 2.076-.126 4.994-.823 6.324l.095 10.914s-3.34 1.18-6.129.821l-.412-17.514s.604-9.932.827-11.837c.13-.99.182-1.987.157-2.983 0 0-.095-2.982-.413-4.366 0 0-.345-5.994-.381-7.654-.016-.794.03-3.11.076-5.313.053-2.408.114-4.679.114-4.679l-.832-4.892s.832 0 1.023.25c.084.077.177.146.276.205 1.087.712 4.93 2.901 4.93 2.901s2.124.82 2.633 1.992c.509 1.174.863 2.006 1.111 2.34.249.334.38 1.905.38 1.905s.731 2.891 1.302 3.381c.572.49.984 3.598.984 3.598l-5.047 3.844s-.444 6.394-.54 6.641c-.097.248 1.844 5.776 1.844 5.776Z" fill="#fff"/><path opacity=".1" d="m66.321 48.212.53 1.177-2.793 2.139c.063-2.2.133-4.278.133-4.278l-.969-4.472s.969 0 1.192.227c.098.071.206.134.322.187l2.375 5.21-.79-.19Z" fill="#000"/><path d="m65.347 48.212.533 1.177-2.792 2.139c.062-2.202.132-4.278.132-4.278l-.97-4.472s.97 0 1.191.227c.099.071.206.134.322.188l2.376 5.209-.791-.19Z" fill="#fff"/><path opacity=".1" d="M66.136 34.196a4.22 4.22 0 0 1-.286 1.533.278.278 0 0 1-.184-.039c-.044-1.3-.8-2.521-1.729-3.56a4.11 4.11 0 0 0-.937-.824 2.079 2.079 0 0 0-1.272-.305c-.511.06-.963.354-1.48.392-.681.047-1.292-.353-1.968-.373-.557.004-1.084.212-1.448.57-.355.356-.62.771-.775 1.219a6.168 6.168 0 0 0-.433 2.104c-.009.405-.055.912-.498 1.06.067-.602-.166-1.2-.643-1.65l-.01-.008v-.119c-.036-1.786 1.068-3.45 2.887-4.353 1.82-.902 4.072-.902 5.89 0 1.82.902 2.924 2.567 2.888 4.353h-.002Z" fill="#000"/><path d="M62.984 26.636a3.575 3.575 0 0 0-2.68-.224c-.446.141-.867.37-1.32.486-.967.25-2.095-.02-2.925.584-.462.344-.739.889-.997 1.417l-.645 1.313c-.35.718-.706 1.448-.852 2.24-.147.79-.058 1.675.41 2.31.343.464.847.755 1.218 1.191.449.536.669 1.247.606 1.964.42-.173.461-.779.47-1.261a9.033 9.033 0 0 1 .41-2.508 4.093 4.093 0 0 1 .734-1.454 1.787 1.787 0 0 1 1.368-.679c.645.024 1.224.5 1.862.443.484-.043.913-.396 1.4-.465a1.65 1.65 0 0 1 1.202.363c.341.277.64.608.885.982.88 1.239 1.595 2.69 1.636 4.245.183.142.445-.044.536-.264.09-.22.093-.479.208-.689.132-.243.385-.372.583-.555.503-.463.629-1.243.61-1.951-.02-.708-.149-1.427-.023-2.122.076-.428.247-.827.34-1.25.094-.421.105-.895-.116-1.258-.322-.534-1.001-.64-1.593-.69-.672-.061-1.273.018-1.702-.587a6.525 6.525 0 0 0-.677-.885c-.086-.09-.948-.658-.948-.696Z" fill="#512E4E"/><path opacity=".1" d="m43.149 61.621-1.738-3.288-.55 5.074s.306 2.253.245 2.599c-.062.345 1.253 3.443 1.253 3.443s4.345 7.92 6.12 8.329l5.993-4.384-1.59-2.067s-.55-.219-.688 0c0 0-2.951-5.197-3.257-5.573-.306-.376-.246-1.127-.246-1.127s-.459-.5-.306-.97c.153-.47-.886-2.098-.886-2.098l.947-.908-5.297.97Z" fill="#000"/><path d="m41.87 58.333-.459.368-.55 4.977s.306 2.211.245 2.55c-.062.339 1.255 3.378 1.255 3.378s4.342 7.771 6.116 8.172l5.995-4.302-1.59-2.027s-.551-.215-.69 0c0 0-2.95-5.1-3.256-5.468-.306-.37-.244-1.105-.244-1.105s-.46-.491-.306-.952c.153-.461-.888-2.06-.888-2.06l.948-.89-6.576-2.64Z" fill="#fff"/><path opacity=".1" d="M71.439 77.581c.415.371.154 2.038.154 2.038l-1.146 1.396s.069.9.073 2.115l-1.925.443a1.483 1.483 0 0 1-1.032-.133c-.295-.165-.463-.424-.451-.697l.332-7.882 4.49 1.265c-.38.195.038.675.038.675s-.952.41-.533.78Z" fill="#000"/><path d="M71.44 77.578c.414.37.153 2.037.153 2.037l-1.145 1.395s.069.899.075 2.114l-1.96.45c-.345.079-.722.03-1.01-.13-.288-.162-.452-.416-.441-.682l.334-7.9 4.49 1.263c-.383.195.036.673.036.673s-.947.41-.533.78Z" fill="#fff"/><path d="M71.972 73.382s-.33 1.676-1.156 1.774c-.826.099-1.197 2.712-2.02 2.62-.825-.093-.28-2.43-.25-2.884.03-.453-.898-2.331-.204-2.758.693-.427 2.89 0 2.89 0l.74 1.248Z" fill="#CF6F80"/><path opacity=".1" d="m73.417 61.634 1.046-2.328s.417 1.774.417 2.722.582 1.041.582 1.041.637.831.301 1.437c-.336.605-.472 2.112-.472 2.112s.11 2.875-.389 3.273c-.499.397-.603 1.347-.603 1.347s-.917 1.804-.888 2.233c.029.43-1.276 3.334-1.276 3.334s.638-3.61-3.079-5.17c0 0-.028-1.225.25-1.561.277-.336.71-.49.438-2.187-.272-1.698-.079-3.727-.079-4.135 0-.407.833-2.948.833-2.948l2.919.83Z" fill="#000"/><path d="m73.55 58.333.913.345s.418 1.838.418 2.82c0 .982.581 1.078.581 1.078s.637.862.301 1.489c-.336.627-.47 2.188-.47 2.188s.11 2.978-.388 3.39c-.5.411-.61 1.395-.61 1.395s-.915 1.87-.886 2.314c.028.444-1.276 3.454-1.276 3.454s.638-3.74-3.077-5.356c0 0-.027-1.27.25-1.618.278-.348.71-.506.439-2.265-.271-1.759-.079-3.86-.079-4.283 0-.422.832-3.054.832-3.054l3.052-1.897Z" fill="#fff"/><path opacity=".1" d="M51.556 118.411s2.192-1.435 3.631-.392c1.44 1.042-3.631.392-3.631.392ZM64.195 115.7s1.941-.119 3.572.719c1.63.838-3.572-.719-3.572-.719Z" fill="#000"/><g opacity=".1" fill="#000"><path opacity=".1" d="M67.038 34.025c-.197.153-.45.263-.581.467-.112.176-.116.391-.205.58-.09.188-.351.341-.532.223-.042-1.304-.754-2.527-1.627-3.57a3.912 3.912 0 0 0-.88-.825 1.858 1.858 0 0 0-1.197-.306c-.48.06-.904.355-1.39.391-.64.05-1.216-.351-1.852-.372a1.899 1.899 0 0 0-1.359.572 3.267 3.267 0 0 0-.73 1.22 6.542 6.542 0 0 0-.406 2.11c-.01.403-.052.907-.465 1.058.01.107.01.214 0 .321.417-.145.458-.654.468-1.06a6.533 6.533 0 0 1 .407-2.108c.146-.449.395-.865.73-1.222a1.904 1.904 0 0 1 1.358-.57c.641.02 1.218.42 1.853.371.48-.036.907-.333 1.39-.39.426-.037.853.072 1.196.305.34.232.636.51.88.825.873 1.041 1.585 2.262 1.627 3.568.18.12.442-.036.532-.221.09-.186.093-.403.205-.58.131-.204.385-.312.582-.466.5-.39.625-1.045.605-1.64v-.055c-.03.515-.182 1.04-.609 1.374ZM55.208 33.922c-.368-.366-.871-.611-1.21-1a1.995 1.995 0 0 1-.466-1.185c-.05.536.115 1.07.466 1.504.339.39.842.635 1.21 1 .354.36.567.813.605 1.292a2.045 2.045 0 0 0-.605-1.611ZM67.96 29.55c-.095.355-.263.692-.34 1.05a3.028 3.028 0 0 0-.05.724c.006-.138.023-.275.05-.411.077-.36.245-.695.34-1.05.055-.195.073-.398.053-.6-.01.097-.028.193-.053.287Z"/></g><path opacity=".1" d="M21.417 126.389c9.128 0 16.527-1.306 16.527-2.917 0-1.611-7.4-2.916-16.527-2.916-9.128 0-16.528 1.305-16.528 2.916s7.4 2.917 16.528 2.917Z" fill="#F8765E"/><path d="M22.417 72.917h-1V96.25h1V72.917Z" fill="#535461"/><path d="m28.218 96.824-.062 1.026-.09 1.452-.036.603-.088 1.453-.039.603-.09 1.452-1.01 16.47a2.777 2.777 0 0 1-2.761 2.617h-5.257a2.777 2.777 0 0 1-2.76-2.617l-1.005-16.481-.09-1.452-.037-.604-.09-1.452-.036-.603-.09-1.453-.064-1.026c-.022-.399.12-.79.392-1.08.273-.29.652-.455 1.048-.454h10.751c.395.003.771.171 1.04.464.267.293.403.684.374 1.082Z" fill="#3F3D56"/><path d="m28.222 97.222-.09.972h-13.43l-.09-.972h13.61ZM28.222 99.167l-.09.972H14.703l-.092-.972h13.611ZM28.222 102.083l-.092.973H14.705l-.094-.973h13.611Z" fill="#9D9CB5"/><path d="M14.02 82.602c5.904 4.564 8.369 11.704 8.369 11.704s-7.116-.261-13.023-4.826C3.46 84.915 1 77.778 1 77.778s7.113.259 13.02 4.824Z" fill="#9BDBE7"/><path d="M1 77.778s7.386 4.38 9.755 8.006c2.369 3.627 11.634 8.522 11.634 8.522" stroke="#535461" stroke-width="2"/><path d="M16.85 73.243c3.22 2.147 4.567 5.507 4.567 5.507s-3.881-.123-7.102-2.27c-3.222-2.146-4.565-5.508-4.565-5.508s3.88.123 7.1 2.271Z" fill="#9BDBE7"/><path d="M9.75 70.972s4.028 2.062 5.32 3.768c1.291 1.706 6.347 4.01 6.347 4.01" stroke="#535461" stroke-width="2"/><path d="M26.944 80.156c-3.76 4.027-4.555 9.288-4.555 9.288s5.3-1.267 9.056-5.295C35.201 80.121 36 74.861 36 74.861s-5.297 1.27-9.056 5.295Z" fill="#9BDBE7"/><path d="M36 74.861s-4.896 4.128-6.14 6.972c-1.245 2.843-7.471 7.611-7.471 7.611" stroke="#535461" stroke-width="2"/><path d="M165.272 77.338s-2.716-13.64-1.676-15.337c0 0 .038-1.578-.025-3.59v-.23c.183.123.374.234.571.332.957.497 2.057.64 3.108.405l-.822-.925c-.198-.22-.403-.46-.446-.752-.043-.292.076-.553.178-.814.781-1.992.822-4.498-.683-6.02-1.271-1.278-1.58-2.929-2.96-4.096-1.008-.856-1.562-2.11-2.085-3.322-.443-1.024-.888-2.057-1.142-3.143-.197-.849-.276-1.727-.547-2.556-.272-.829-.78-1.634-1.574-2.005-.283-.13-.597-.205-.855-.38-.339-.23-.543-.606-.788-.935-1.245-1.66-5.414-.682-7.387-.008a4.141 4.141 0 0 0-1.461.817l.018-.03c.015-.025.033-.05.05-.075a2.615 2.615 0 0 0-.553.623c-.288.46-.408.997-.648 1.495-.289.59-1.899 2.235-1.207 2.898.049.044.104.08.164.106.26.11.547.138.823.083l-.03.071a4.9 4.9 0 0 0-.357 1.842c0 2.728 2.229 4.94 4.98 4.94a4.98 4.98 0 0 0 1.524-.237c.012.063.022.126.033.19 0 .024.009.05.012.074l-.087.123a.505.505 0 0 0-.015-.022l-2.582 3.644c-.395.28-2.668 1.941-2.796 3.187-.135 1.363-.269 2.959-.269 2.959l-.019.342a1.008 1.008 0 0 1-.822.224c-.806-.133-.806 2.99-.806 2.99s-.536.497-.904.066c-.369-.432-1.342 1.031-1.342 1.031l-6.101.266-.14.008-.329-1.028a.429.429 0 0 0-.612-.246l-.023.014-.043.03-.021.02a.294.294 0 0 0-.033.034l-.02.023-.01.01a.421.421 0 0 0-.059.372l.283.882c-1.177.24-2.381.914-1.399 2.77l-4.977-.928 1.61 1.365 8.312 1.732c-.11.2-.038.488.306.895 1.48 1.755 4.177 2.232 5.262 2.355.287.647.645 1.26 1.068 1.827l-.094 1.748s-2.748 13.329-3.252 14.005c.255-.291.487-.6.696-.925-.797 2.738-1.913 6.486-2.205 7.047-.471.897-.906 4.526-.37 4.758.164.072.635.037 1.306-.015v.3l-.03 11.391s.135 6.987-.235 7.653c-.37.666-.469 2.062-.469 2.062s-1.48 2.755-2.653 3.863c-.008.008-.016.016-.026.023l-.036-.259s-1.41 1.797-4.528 1.696c0 0-1.876 1.232.907 1.298 2.782.067 6.336-.099 6.336-.099s2.482-3.82 4.56-3.322v2.895h.637v-2.941a2.64 2.64 0 0 0 1.133-1.732 2.117 2.117 0 0 0-.743-1.948 1.25 1.25 0 0 1-.407-.91l-.023.02c0-.058-.014-.118-.021-.18-.183-1.494-.411-4.578.396-6.86 1.107-3.129 1.443-7.486.637-10.08a23.323 23.323 0 0 1-.64-2.526c-.02-.108-.038-.21-.054-.307.551.075 1.096.186 1.633.332 1.866.52 5.95.616 9.436.588.009.096.018.198.03.299.062.704.192 1.4.388 2.079.437 1.328.638 7.186.638 7.186s.564 4.815.257 6.775c-.165 1.089-.329 2.184-.423 3.283v.022s-.924 2.657-1.6 4.1l-.051.108c-.18.016-.358.056-.528.118 0 0-.906 1.826-1.809 2.129-.903.302-.604 1.297 1.441.931 2.044-.365 5.131-.664 5.131-.664l.133-1.863.628-.794-.164 1.858.669-.133-.089-2.26 1.028-1.298s1.242-1.116-.604-3.312v.048c-.019-.031-.037-.064-.059-.096v-.01c-.306-.478-.549-1.37-.103-2.952.805-2.86 1.274-5.456 1.274-5.456s1.799-6.953-.363-10.243h.095a5.552 5.552 0 0 1-.495-1.645c1.6-.093 3.171-.386 4.452-1.017-.005-.006-.776-16.507-1.414-19.134ZM144.956 65.83v.033l-.329.017.329-.05Zm-1.128.158a.36.36 0 0 0-.148.071c-.141.202-.23.437-.258.683l-.513-.117s-.36-.078-.878-.166l-.245-.249c.674-.056 1.374-.14 2.042-.222Z" fill="url('#paint1_linear_20_112')"/><path d="m162.679 122.009-.29 3.408.972-.193-.146-3.696-.536.481Z" fill="#1D2366"/><path d="M147.649 111.785c-.846 2.352-.607 5.526-.417 7.068.07.569.135.916.135.916s-1.264 2.812-1.369 2.919c-.106.106-3.72 2.261-3.72 2.261l-2.527 1.44s-2.563-1.097-1.334-1.475c.251-.098.477-.249.663-.441 1.23-1.142 2.776-3.979 2.776-3.979s.105-1.441.492-2.126c.387-.685.246-7.883.246-7.883l.03-11.733v-1.53l4.808.035c.031.519.1 1.035.208 1.544.172.88.396 1.749.67 2.603.847 2.676.495 7.159-.661 10.381Z" fill="#FFB0B1"/><path opacity=".1" d="M145.861 119.436s-1.059 2.541-1.147 2.637c-.089.096-3.117 2.042-3.117 2.042l-2.116 1.302s-2.148-.991-1.118-1.333c.21-.089.4-.225.555-.398l.091.678.706-.031 6.039-5.722c.053.512.107.825.107.825Z" fill="#000"/><path d="m145.718 119.583-6.63 5.968-.77.032-.161-1.124s-1.348 1.732-4.342 1.635c0 0-1.798 1.188.867 1.252 2.665.064 6.067-.096 6.067-.096s2.377-3.696 4.366-3.214v2.791h.611v-2.817c.574-.386.966-.99 1.084-1.671a2.046 2.046 0 0 0-.709-1.877 1.21 1.21 0 0 1-.383-.879Z" fill="#1D2366"/><path d="M162.467 114.484c-.423 1.534-.192 2.398.097 2.861v.01c.372.572.63 1.211.761 1.883l.026.146-2.987 4.415-1.62.645s-2.606-.902-2.13-1.16c.119-.063.305-.399.519-.862.636-1.397 1.515-3.973 1.515-3.973v-.021a48.62 48.62 0 0 1 .401-3.18c.292-1.9-.243-6.564-.243-6.564s-.191-5.671-.605-6.96a10.79 10.79 0 0 1-.371-2.009c-.086-.807-.105-1.472-.105-1.472s1.716-2.421 4.862.194c.251.209.472.452.657.723 2.173 3.135.424 10.041.424 10.041s-.438 2.512-1.201 5.283Z" fill="#FFB0B1"/><path opacity=".1" d="m163.361 119.62-2.991 4.209-1.623.615s-2.61-.86-2.133-1.106c.119-.06.306-.38.519-.822 1.105-.009 1.678 1.007 1.678 1.007l1.4-.216s1.846-3.503 2.26-3.717c.415-.214.064-1.599.064-1.599v-.352c.011.012.021.026.034.038v.01a4.94 4.94 0 0 1 .762 1.796l.03.137Z" fill="#000"/><path d="M158.9 123.437s-.76-1.392-2.214-.878c0 0-.819 1.668-1.637 1.938-.819.27-.546 1.18 1.304.848 1.85-.332 4.638-.607 4.638-.607l.121-1.697 1.881-2.391s1.12-1.014-.547-3.011v.347s.334 1.365-.061 1.576c-.395.21-2.147 3.663-2.147 3.663l-1.338.212Z" fill="#1D2366"/><path opacity=".1" d="M146.592 97.243c.036.32.116.638.241.951-2.3-.174-4.434-.087-5.833-.03v-.942l5.592.021ZM164.333 99.048s-3.046.099-6.679.119c-.103-.63-.126-1.149-.126-1.149s2.053-1.888 5.815.151c.301.163.566.353.787.565.059.107.127.212.203.314Z" fill="#000"/><path d="M163.361 99.004s-11.795.576-15.39-.441c-3.596-1.018-7.159-.136-7.696-.373-.537-.236-.101-3.935.371-4.85.471-.916 3.056-10.178 3.056-10.178l2.488-13.093 2.62-.73.186-.052 4.566-1.27 3.346-.934s6.653 26.223 6.083 28.156a5 5 0 0 0-.098 2.275 5.72 5.72 0 0 0 .468 1.49Z" fill="#1D2366"/><path d="M136.497 62.222s-2.528 2.672-.614 4.16c1.914 1.49 3.173.143 3.173.143l-2.559-4.303Z" fill="#C7DAF5"/><path opacity=".1" d="M136.497 62.222s-2.528 2.672-.614 4.16c1.914 1.49 3.173.143 3.173.143l-2.559-4.303Z" fill="#000"/><path d="M156.555 45.02s-.319.239-.8.591c-.686.504-1.7 1.24-2.6 1.858-1.247.852-2.275 1.479-1.907.944.368-.534.298-1.465.115-2.336-.014-.059-.025-.117-.039-.173a13.4 13.4 0 0 0-.602-1.893s2.014-2.046 3.128-2.853c.415-.306.705-.431.723-.219.019.287.292.92.631 1.59.01.021.019.041.031.063.226.459.481.93.705 1.338.343.625.615 1.09.615 1.09Z" fill="#FFB0B1"/><path opacity=".1" d="M155.583 42.788c-.415 1.814-2.013 3.3-4.171 3.879a14.934 14.934 0 0 0-.69-2.3s4.085-4.285 4.148-3.418c.015.33.334 1.059.713 1.84ZM150.932 48.24l.407-.601s.269 1.721 1.26.962c.991-.76 1.04 5.713 1.04 5.713l-1.064 16.658-7.686-.482.218-8.049.87-4.058 2.151-5.899 1.28-1.949 1.524-2.296Z" fill="#000"/><path d="m153.639 54.32-.969 15.057-.102 1.595-4.288-.268-.161-.01-3.23-.203.218-8.049.87-4.056 2.153-5.897 1.281-1.948 1.524-2.304.407-.598s.27 1.72 1.262.962l.021-.016c.969-.642 1.014 5.735 1.014 5.735Z" fill="#1D2366"/><path d="M147.408 57.361s-.399.728-1.2.61c-.801-.118-.799 2.62-.799 2.62s-.532.436-.9.057c-.367-.378-1.334.901-1.334.901l-6.064.233s2.698 1.075 2.169 4.33c0 0 9.161-.496 9.461-1.25.3-.756-1.333-7.5-1.333-7.5Z" fill="#fff"/><path opacity=".03" d="M147.408 57.361s-.399.728-1.2.61c-.801-.118-.799 2.62-.799 2.62s-.532.436-.9.057c-.367-.378-1.334.901-1.334.901l-6.064.233s2.698 1.075 2.169 4.33c0 0 9.161-.496 9.461-1.25.3-.756-1.333-7.5-1.333-7.5Z" fill="#000"/><path d="m129.333 64.167 1.58 1.606 13.004 3.255-1.613-1.96-12.971-2.901ZM151.311 49.165c-.192.327-.741 1.998-1.2 3.458-.383 1.216-.702 2.285-.702 2.285s-.746 5.41-1.127 6.389c-.381.977-.174 4.791-.174 4.791l-1.421 9.418s-.643 4.857-1.637 7.758c-.98 2.855-2.072 4.194-2.106 4.236.44-.663 2.836-13.713 2.836-13.713l.792-16.46s.115-1.563.233-2.9c.117-1.337 2.491-3.162 2.491-3.162l2.289-3.626c.23.343.077.94-.274 1.526Z" fill="#fff"/><path d="M144.671 70s-4.181-.176-6.207-2.529c-2.025-2.353 4.682-.939 4.682-.939l1.743.387-.218 3.081Z" fill="#FFB0B1"/><path opacity=".1" d="M163.328 95.87a5.042 5.042 0 0 0-.094 2.233c-4.043.297-8.369-.834-8.369-.834-.806.767-2.928 1.898-2.928 1.898l-1.157-14.84c-.74-2.002-1.03-12.485-1.03-12.485s.066-.549.161-1.371c0-.02 0-.042.008-.062.289-2.296.861-6.606 1.141-7.188.387-.8-1.189-2.93-1.189-2.93l.717-6.328.087-.764c1.512-.698 2.671-2.93 2.671-2.93l.889-1.612c.967-.642 1.017 5.65 1.017 5.65l-.967 14.855 3.204-.915s6.385 25.725 5.839 27.623Z" fill="#000"/><path d="M166.278 96.162c-4.644 2.23-13.084.164-13.084.164-.848.756-3.085 1.868-3.085 1.868l-1.22-14.608c-.778-1.97-1.083-12.289-1.083-12.289s.981-7.7 1.388-8.485c.119-.23.061-.572-.079-.94a11.514 11.514 0 0 1-.744-5.496l.326-2.677.09-.75c1.594-.69 2.815-2.886 2.815-2.886l.849-1.438 1.562-2.649.74-1.254.126.11.959.84 1.019.821c1.329 1.084 3.626 2.99 4.811 4.158 1.043 1.027 1.372 5.024 1.467 8.033.063 1.98.026 3.533.026 3.533-1.051 1.673 1.697 15.1 1.697 15.1.64 2.596 1.42 18.845 1.42 18.845Z" fill="#fff"/><path opacity=".03" d="M158.637 49.818s-3.283 5.934-2.902 8.189c.382 2.255 1.466 4.808.943 5.404a1.968 1.968 0 0 1-1.537.73c-.525.032-1.925.96-1.925 1.06 0 .1-1.292.1-2.448.565-1.157.465-2.864.73-2.864.73s-3.323-.1-3.633.199c-.309.299-.628 2.087.035 3.514.663 1.426 1.4 2.49 1.956 2.685.556.195 4.086-.928 6.949-1.194 2.864-.266 5.972-2.42 5.972-2.42s3.423-1.162 4.023-3.117c.6-1.955-.733-12.698-.733-12.698s-1.008-5.008-3.836-3.647Z" fill="#000"/><path opacity=".03" d="M158.64 49.817s-3.285 5.936-2.9 8.19c.385 2.253 1.467 4.808.942 5.406a1.961 1.961 0 0 1-1.537.729c-.525.033-1.925.961-1.925 1.061 0 .1-1.293.1-2.45.563-1.157.463-2.865.73-2.865.73s-3.325-.1-3.633.198c-.308.3-.63 2.09.035 3.515.665 1.425 1.4 2.49 1.956 2.685.557.195 4.089-.928 6.954-1.192 2.865-.264 5.975-2.422 5.975-2.422s3.423-1.162 4.016-3.115c.594-1.954-.733-12.7-.733-12.7s-1.005-5.006-3.835-3.648Z" fill="#000"/><path d="M158.633 49.815s-3.283 5.937-2.898 8.19c.385 2.254 1.465 4.809.942 5.405-.363.46-.932.73-1.537.731-.525.033-1.924.962-1.924 1.06 0 .098-1.291.1-2.449.564-1.158.466-2.863.73-2.863.73s-3.323-.1-3.633.199c-.309.299-.628 2.09.035 3.514.663 1.426 1.399 2.492 1.956 2.686.556.195 4.086-.928 6.949-1.194 2.863-.266 5.971-2.42 5.971-2.42s3.423-1.163 4.023-3.118c.6-1.955-.724-12.7-.724-12.7s-1.021-4.999-3.848-3.647Z" fill="#fff"/><path opacity=".1" d="M157.955 65.283s-1.929-.483-1.258.322c.672.804.668 1.51 1.489 1.477.822-.032-.231-1.8-.231-1.8ZM162.665 83.611s-1.057 1.007.966 3.33c2.023 2.32-.966-3.33-.966-3.33ZM159.531 90.417c0 .104-.483 3.827 1.324 4.758 1.807.93-1.324-4.758-1.324-4.758Z" fill="#000"/><path d="M136.152 61.25c-1.244.05-3.933.488-2.539 3.487 1.233 2.654 3.305.88 4.47-.466-.284-1.255-.975-2.336-1.931-3.021ZM138.058 65.165l.05-.052-.05.052Z" fill="#FFB0B1"/><path opacity=".1" d="M158.5 46.452c-1.243.84-2.285 1.548-2.489 1.696-.557.408-1.618 2.803-2.303 4.025-.545.984-2.317 1.237-2.986 1.3l.086-.732c1.52-.672 2.683-2.813 2.683-2.813l3.004-5.206 1.034.93.971.8Z" fill="#000"/><path d="M158.5 46.452c-1.243.84-2.285 1.548-2.489 1.697-.557.407-1.618 2.802-2.303 4.024-.545.984-2.317 1.237-2.986 1.3l.086-.732c1.52-.672 2.683-2.813 2.683-2.813l3.004-5.206 1.034.926s.388.317.971.804Z" fill="#DCE7FF"/><path d="M154.611 42.29a4.374 4.374 0 1 1-8.749.002 4.374 4.374 0 0 1 8.749-.001Z" fill="#FFB0B1"/><path opacity=".1" d="M164.333 58.333a4.305 4.305 0 0 1-1.623-1.622c-.283-.52-.471-1.121-.954-1.49-.436-.332-1.018-.412-1.56-.56-1.784-.491-3.28-2.006-3.336-3.735-.027-.814.246-1.627.122-2.433a2.595 2.595 0 0 0-.566-1.254 4.576 4.576 0 0 0-.49-.49c-.238-.209-.487-.41-.704-.632a2.464 2.464 0 0 1-.356-.45 2.068 2.068 0 0 1-.195-.418c-.339-.965-.031-2.11-.404-3.087l-.02-.054c-.141-.347-.428-.694-.826-.72-.399-.028-.739.28-1.119.417-.796.288-1.654-.202-2.317-.7-.663-.499-1.411-1.068-2.253-.958-.558.074-.999.428-1.513.61a2.25 2.25 0 0 1-.358.097c.897-2.081 3.255-3.277 5.621-2.852 2.366.426 4.075 2.353 4.074 4.595 0 .329-.036.656-.11.977a37.998 37.998 0 0 0 .641 1.444l.958.807 1.017.79c1.328 1.04 3.622 2.874 4.806 3.995 1.041.991 1.367 4.831 1.465 7.723Z" fill="#000"/><path d="M146.284 37.678c.243-.472.364-1.001.655-1.45.427-.648 1.171-1.063 1.936-1.315 1.998-.657 6.219-1.61 7.481 0 .248.325.454.685.797.909.262.17.578.243.865.371.804.36 1.318 1.146 1.592 1.947.273.801.355 1.661.556 2.487.256 1.06.707 2.064 1.156 3.061.528 1.178 1.089 2.4 2.109 3.232 1.393 1.136 1.7 2.743 2.993 3.99 1.53 1.479 1.48 3.92.691 5.86-.103.254-.221.52-.18.79.041.272.252.518.451.734l.836.9c-1.979.456-4.218-.53-5.139-2.26-.284-.536-.473-1.153-.959-1.534-.435-.34-1.02-.422-1.562-.574-1.789-.507-3.288-2.066-3.344-3.844-.028-.835.246-1.67.122-2.498a2.686 2.686 0 0 0-.57-1.298c-.467-.582-1.173-.973-1.553-1.622-.645-1.086-.155-2.495-.619-3.66-.143-.357-.429-.714-.828-.742-.4-.027-.741.29-1.124.43-.796.296-1.656-.206-2.321-.72-.664-.514-1.414-1.098-2.261-.983-.559.075-.999.438-1.514.628-.381.14-1.153.264-1.486-.043-.704-.618.926-2.219 1.22-2.796Z" fill="#591D4B"/><path opacity=".1" d="M163.593 56.316c-.286-.549-.473-1.18-.959-1.57-.435-.35-1.02-.434-1.564-.59-1.787-.518-3.287-2.116-3.344-3.94-.028-.856.246-1.714.124-2.562a2.823 2.823 0 0 0-.57-1.322c-.469-.598-1.175-.998-1.554-1.664-.644-1.11-.154-2.556-.62-3.752-.141-.364-.429-.73-.827-.76-.397-.03-.743.298-1.123.443-.796.302-1.658-.213-2.321-.739-.663-.526-1.416-1.126-2.261-1.01-.56.079-1.002.451-1.515.644-.381.143-1.155.273-1.488-.041-.7-.666.93-2.304 1.223-2.893.243-.486.363-1.026.656-1.485.015-.025.032-.05.049-.075a2.656 2.656 0 0 0-.559.622c-.291.46-.412.998-.655 1.485-.294.59-1.924 2.232-1.222 2.893.34.316 1.105.186 1.486.043.51-.195.955-.567 1.515-.644.85-.118 1.598.483 2.261 1.008.663.526 1.53 1.041 2.322.739.381-.145.714-.471 1.122-.441.408.03.68.394.828.76.464 1.194-.025 2.64.619 3.752.381.654 1.087 1.063 1.554 1.663.304.388.501.847.57 1.331.124.848-.15 1.705-.123 2.562.056 1.829 1.556 3.42 3.344 3.94.539.156 1.128.24 1.563.588.488.391.68 1.023.959 1.572.921 1.775 3.16 2.786 5.139 2.319l-.394-.436c-1.716.025-3.451-.93-4.235-2.44ZM151.076 49.439c-.311.38-1.201 2.33-1.944 4.033-.695-.217-1.326-1.601-1.326-1.601l3.707-4.232c.38.419.13 1.114-.437 1.8Z" fill="#000"/><path d="M151.076 48.465c-.311.381-1.201 2.332-1.944 4.035-.695-.215-1.326-1.602-1.326-1.602l3.707-4.231c.38.417.13 1.114-.437 1.798Z" fill="#DCE7FF"/><path d="m136.418 65.418-1.234-4.582a.496.496 0 0 1 .023-.327.386.386 0 0 1 .214-.212c.191-.07.394.055.456.279l1.234 4.577-.123.958-.57-.693Z" fill="#BE8B87"/><path opacity=".1" d="M135.244 60.427c.198-.072.409.053.472.278l1.272 4.577-.096.718.093.111.126-.958-1.279-4.577c-.063-.224-.273-.349-.47-.279a.383.383 0 0 0-.195.168.513.513 0 0 1 .077-.038Z" fill="#fff"/><path d="m136.139 66.373.972-.262-.142.797-.03.175-.284-.252-.516-.458Z" fill="#EFC8C4"/><path d="M136.98 66.02a.167.167 0 0 1 .052-.043.073.073 0 0 1 .078 0 .205.205 0 0 1 .029.045c.022.037.06.062.103.068l-.025.166-.237-.236Z" fill="#727A9C"/><path d="M135.167 64.167s2.429-.013 1.857.91c-.572.923-1.466 1.034-1.466 1.034l-.391-1.944Z" fill="#FFB0B1"/><path d="M117.406 7.778h-.124c-4.917 0-9.266 2.604-11.767 6.446-2.502-3.842-6.85-6.446-11.768-6.446h-.123c-7.68.073-13.87 6.322-13.874 14.008 0 4.586 2.007 11.093 5.92 16.447 7.457 10.202 19.845 19.128 19.845 19.128s12.387-8.924 19.842-19.128c3.915-5.354 5.921-11.861 5.921-16.447-.004-7.685-6.192-13.934-13.872-14.008Zm-1.768 31.24a2.778 2.778 0 0 1-2.583-1.784h-2.939a.929.929 0 0 1-.875-.634l-.903-2.722-2.858 9.991a.924.924 0 0 1-.886.668h-.058a.913.913 0 0 1-.857-.765l-2.945-17.723-2.152 10.487a.918.918 0 0 1-.891.698h-4.142a.921.921 0 1 1 0-1.842h3.416l3.049-14.1a.924.924 0 0 1 1.813.075l3.007 18.08 2.561-8.94a.906.906 0 0 1 .862-.66h.018a.92.92 0 0 1 .873.634l1.633 4.916h2.238a2.762 2.762 0 0 1 5.37 1.156 2.762 2.762 0 0 1-2.746 2.472l-.005-.007Z" fill="#9BDBE7"/><defs><linearGradient id="paint0_linear_20_112" x1="59.818" y1="127.365" x2="59.818" y2="25.278" gradientUnits="userSpaceOnUse"><stop stop-color="gray" stop-opacity=".25"/><stop offset=".54" stop-color="gray" stop-opacity=".12"/><stop offset="1" stop-color="gray" stop-opacity=".1"/></linearGradient><linearGradient id="paint1_linear_20_112" x1="147.8" y1="126.389" x2="147.8" y2="33.06" gradientUnits="userSpaceOnUse"><stop stop-color="gray" stop-opacity=".25"/><stop offset=".54" stop-color="gray" stop-opacity=".12"/><stop offset="1" stop-color="gray" stop-opacity=".1"/></linearGradient></defs></svg>