<svg width="149" height="165" viewBox="0 0 149 165" fill="none" xmlns="http://www.w3.org/2000/svg">
<path d="M0 16C0 8.45753 0 4.68629 2.34315 2.34315C4.68629 0 8.45753 0 16 0H49.91C57.4525 0 61.2237 0 63.5669 2.34315C65.91 4.68629 65.91 8.45753 65.91 16V77.458C65.91 80.2497 65.91 81.6456 65.4552 82.9361C65.0004 84.2267 64.1253 85.3141 62.3751 87.489L28.4651 129.628C16.6098 144.36 10.6822 151.726 5.34109 149.844C0 147.961 0 138.506 0 119.597V16Z" fill="#FDE8E1"/>
<path d="M82.239 16C82.239 8.45753 82.239 4.68629 84.5822 2.34315C86.9253 0 90.6965 0 98.239 0H132.149C139.691 0 143.463 0 145.806 2.34315C148.149 4.68629 148.149 8.45753 148.149 16V77.458C148.149 80.2497 148.149 81.6456 147.694 82.9361C147.239 84.2267 146.364 85.3141 144.614 87.489L110.704 129.628C98.8488 144.36 92.9212 151.726 87.5801 149.844C82.239 147.961 82.239 138.506 82.239 119.597V16Z" fill="#FDE8E1"/>
</svg>
