<svg width="184" height="130" viewBox="0 0 184 130" fill="none" xmlns="http://www.w3.org/2000/svg">
<path opacity="0.1" d="M60.3056 129.305C69.4337 129.305 76.8334 128 76.8334 126.389C76.8334 124.778 69.4337 123.472 60.3056 123.472C51.1776 123.472 43.7778 124.778 43.7778 126.389C43.7778 128 51.1776 129.305 60.3056 129.305Z" fill="#F8765E"/>
<path opacity="0.1" d="M149.264 129.305C160.271 129.305 169.194 128 169.194 126.389C169.194 124.778 160.271 123.472 149.264 123.472C138.257 123.472 129.333 124.778 129.333 126.389C129.333 128 138.257 129.305 149.264 129.305Z" fill="#F8765E"/>
<path opacity="0.1" d="M1.35145 54.4445H18.5V77.7259H2.60688C2.56464 77.9649 2.52409 78.2056 2.48016 78.4463H18.5V97.2222C18.4713 97.2138 18.4459 97.2037 18.4189 97.1936C17.9661 97.0152 17.5166 96.8267 17.0672 96.6248L16.7799 96.4952C16.3293 96.2831 15.8787 96.0587 15.4282 95.822C15.271 95.7395 15.1139 95.6536 14.9584 95.5661C12.457 94.1704 10.1846 92.4019 8.22 90.3218C8.16255 90.2662 8.10848 90.2073 8.05103 90.1535C7.7773 89.8573 7.50864 89.5577 7.24843 89.2514L6.96119 88.9148C6.65366 88.5394 6.35628 88.154 6.06735 87.7636C6.0251 87.7063 5.98455 87.6491 5.94062 87.5953C4.76553 85.9724 3.78983 84.2151 3.03437 82.361C3.01072 82.3055 2.99044 82.2449 2.96848 82.1927C2.73643 81.598 2.53085 80.9978 2.35174 80.3919C2.27402 80.1377 2.19967 79.8869 2.13546 79.6227C2.11181 79.5453 2.09153 79.4696 2.07295 79.3938C1.11321 75.6625 1 71.7865 1 67.9374C1 67.488 1 67.037 1 66.591C1 65.0341 1.01859 63.4672 1.04562 61.902C1.04562 61.4964 1.06252 61.0925 1.07097 60.6852C1.09462 59.6518 1.12842 58.6184 1.17235 57.585C1.18249 57.2972 1.196 57.0111 1.21121 56.725C1.21121 56.56 1.21966 56.3951 1.23656 56.2302C1.27711 55.631 1.3109 55.0369 1.35145 54.4445Z" fill="#F8765E"/>
<path opacity="0.1" d="M18.5 29.1667H9.75C11.1724 26.818 12.7265 24.5612 14.404 22.4081C15.7038 20.7234 17.076 19.0819 18.5 17.5V29.1667Z" fill="#F8765E"/>
<path opacity="0.1" d="M18.5 30.1389V54.4445H1C1 54.3743 1.01211 54.3024 1.0173 54.2323C1.03287 54.0401 1.04843 53.8479 1.06573 53.6575C1.08476 53.4336 1.10552 53.208 1.128 52.9891C1.15049 52.7702 1.17471 52.5028 1.20065 52.2605C1.2266 52.0183 1.25082 51.7726 1.28022 51.5303C1.30963 51.2881 1.33557 51.0458 1.36671 50.8052C1.39785 50.5645 1.42552 50.3206 1.45839 50.08C1.48433 49.8795 1.51201 49.6806 1.53969 49.4801C1.57947 49.1977 1.62098 48.9136 1.66596 48.6329C1.66596 48.5912 1.67807 48.5477 1.68499 48.5076C2.0007 46.4526 2.43088 44.4156 2.97366 42.4053C3.54181 40.2966 4.26733 38.2303 5.14451 36.2228C6.07679 34.1227 7.16836 32.092 8.4103 30.1473L18.5 30.1389Z" fill="#F8765E"/>
<path opacity="0.1" d="M23.3611 56.0259V78.9434H59.379V56.0259H23.3611ZM23.3611 79.6508V99.3313C23.5671 99.3744 23.7715 99.4158 23.9742 99.4506C24.25 99.5036 24.5242 99.5516 24.805 99.593C24.8582 99.6013 24.913 99.6096 24.9711 99.6146C25.0808 99.6328 25.1938 99.6477 25.3035 99.6626C25.5809 99.7007 25.8568 99.7322 26.1343 99.757C26.2655 99.7703 26.3984 99.7819 26.5314 99.7918L26.8521 99.8167C27.0265 99.8299 27.1993 99.8399 27.3705 99.8448C27.4768 99.8448 27.5831 99.8548 27.6928 99.8581C27.7759 99.8581 27.859 99.8581 27.9454 99.8581C28.0318 99.8581 28.1547 99.8581 28.2594 99.8581C28.4023 99.8581 28.5452 99.8581 28.6864 99.8581H28.8775C29.0204 99.8581 29.1633 99.8581 29.3045 99.8448H29.3145C29.4125 99.8448 29.5122 99.8448 29.6119 99.8316C29.6396 99.8332 29.6673 99.8332 29.695 99.8316C29.7781 99.8316 29.8612 99.8316 29.9409 99.82H29.9991L30.5557 99.7769C30.7385 99.7604 30.9229 99.7388 31.109 99.7189L31.4878 99.6742C33.0291 99.4589 34.5532 99.1356 36.0489 98.7067C39.4086 97.7724 42.6952 96.4654 46.0532 95.5078C50.3949 94.2737 55.1919 93.6673 59.3873 95.1765V79.6508H23.3611ZM59.379 30.5125V0.00270919C55.4357 -0.0398861 51.503 0.419955 47.6766 1.37107C38.5562 3.65553 30.3729 8.61045 23.3611 14.9387V30.5108H25.1689V31.2182H23.3611V55.3185H59.379V31.2198H32.5911V30.5125H59.379ZM105.642 20.2067C103.386 20.1272 101.143 19.4148 99.1139 18.3149C95.2341 16.211 92.1353 12.9624 88.6726 10.2207C81.478 4.51034 72.5553 1.0646 63.4017 0.209785V30.5125H114.819L114.947 30.3783L105.642 20.2067ZM110.326 19.3784L115.293 24.8121V17.9537C113.629 18.1591 112.172 18.6478 110.333 19.3718L110.326 19.3784ZM115.293 104.218V79.6508H104.71C104.682 79.5464 104.654 79.4404 104.62 79.3344C104.652 79.4404 104.679 79.5464 104.708 79.6508H63.4083V97.4179C63.8005 97.7078 64.1876 98.0126 64.5714 98.3224C64.9852 98.6537 65.3939 99.0033 65.8043 99.3462L66.2181 99.6875C66.4158 99.8531 66.6152 100.019 66.8162 100.175C67.215 100.497 67.6177 100.815 68.0242 101.129C68.2252 101.294 68.4313 101.443 68.6357 101.599C71.8802 104.072 75.3029 106.304 78.8759 108.277C79.6768 108.719 80.4849 109.15 81.3002 109.571C81.8435 109.847 82.3902 110.122 82.9385 110.389C83.7626 110.79 84.5934 111.177 85.4308 111.549C93.1516 115.004 101.316 117.375 109.69 118.594C111.55 118.868 113.417 119.084 115.291 119.24V104.217H115.457L115.293 104.218ZM63.4083 31.2198V55.3185H115.299V31.2198H63.4083ZM63.4083 56.0259V78.9434H115.299V56.0259H63.4083ZM119.327 17.9239V25.5741L125.666 18.6396C123.566 18.3016 121.453 18.0603 119.327 17.9156V17.9239ZM119.327 56.0342V78.9434H169.797V56.0259L119.327 56.0342ZM169.613 106.037L169.791 79.6508H119.327V119.504C122.578 119.64 125.834 119.601 129.08 119.388H129.137C130.688 119.291 132.231 119.149 133.768 118.964H133.803C141.999 118.013 150.014 115.88 157.596 112.634L169.613 106.037ZM179.529 59.7996C179.34 59.354 179.142 58.9117 178.941 58.4744C178.565 57.646 178.168 56.8409 177.76 56.0358H173.822V78.9434H183.778C183.773 72.4561 182.126 65.8297 179.534 59.7914L179.529 59.7996ZM173.822 79.6591V102.355C176.626 99.6742 178.996 96.6078 180.702 93.1024C182.754 88.8814 183.693 84.3108 183.769 79.6558L173.822 79.6591ZM173.822 49.3564V55.3202H177.391C176.311 53.2672 175.121 51.2736 173.827 49.3481L173.822 49.3564ZM139.593 22.4199C139.331 22.3205 139.068 22.2195 138.804 22.1217C136.018 21.0959 133.17 20.2427 130.278 19.5673L120.578 30.1811L120.392 30.3783L120.517 30.5141H155.041C150.233 27.2142 145.049 24.4944 139.598 22.4116L139.593 22.4199ZM156.053 31.2281H120.035L119.327 31.8742V55.3185H125.531H125.541H169.804V43.9625C165.8 39.1344 161.178 34.8504 156.058 31.2198L156.053 31.2281Z" fill="#F8765E"/>
<path opacity="0.1" d="M18.5 41.8055V53.4722H1C1 53.4042 1.01211 53.3346 1.0173 53.2667C1.03287 53.0806 1.04843 52.8945 1.06573 52.71C1.08476 52.4931 1.10552 52.2746 1.128 52.0626C1.15049 51.8506 1.17471 51.5917 1.20065 51.357C1.2266 51.1224 1.25082 50.8845 1.28022 50.6498C1.30963 50.4152 1.33557 50.1805 1.36671 49.9474C1.39785 49.7144 1.42552 49.4781 1.45839 49.2451C1.48433 49.0509 1.51201 48.8583 1.53969 48.6641C1.57947 48.3906 1.62098 48.1155 1.66596 47.8436C1.66596 47.8031 1.67807 47.7611 1.68499 47.7222C2.0007 45.7319 2.43088 43.759 2.97366 41.812L18.5 41.8055Z" fill="#F8765E"/>
<path opacity="0.1" d="M1.35145 54.4445H18.5V77.7259H2.60688C2.56464 77.9649 2.52409 78.2056 2.48016 78.4463H18.5V97.2222C18.4713 97.2138 18.4459 97.2037 18.4189 97.1936C17.9661 97.0152 17.5166 96.8267 17.0672 96.6248L16.7799 96.4952C16.3293 96.2831 15.8787 96.0587 15.4282 95.822C15.271 95.7395 15.1139 95.6536 14.9584 95.5661C12.457 94.1704 10.1846 92.4019 8.22 90.3218C8.16255 90.2662 8.10848 90.2073 8.05103 90.1535C7.7773 89.8573 7.50864 89.5577 7.24843 89.2514L6.96119 88.9148C6.65366 88.5394 6.35628 88.154 6.06735 87.7636C6.0251 87.7063 5.98455 87.6491 5.94062 87.5953C4.76553 85.9724 3.78983 84.2151 3.03437 82.361C3.01072 82.3055 2.99044 82.2449 2.96848 82.1927C2.73643 81.598 2.53085 80.9978 2.35174 80.3919C2.27402 80.1377 2.19967 79.8869 2.13546 79.6227C2.11181 79.5453 2.09153 79.4696 2.07295 79.3938C1.11321 75.6625 1 71.7865 1 67.9374C1 67.488 1 67.037 1 66.591C1 65.0341 1.01859 63.4672 1.04562 61.902C1.04562 61.4964 1.06252 61.0925 1.07097 60.6852C1.09462 59.6518 1.12842 58.6184 1.17235 57.585C1.18249 57.2972 1.196 57.0111 1.21121 56.725C1.21121 56.56 1.21966 56.3951 1.23656 56.2302C1.27711 55.631 1.3109 55.0369 1.35145 54.4445Z" fill="#F8765E"/>
<path opacity="0.1" d="M36 34.1077V54.4444H23.3611V34.1077H25.1631V27.2222H32.5599V34.1077H36Z" fill="#F8765E"/>
<path opacity="0.1" d="M36 54.4445H23.3611V77.7778H36V54.4445Z" fill="#F8765E"/>
<path opacity="0.1" d="M23.3611 78.75H36V98.0047C34.5091 98.4378 32.9899 98.7639 31.4536 98.9808L31.0759 99.0277C30.8904 99.0495 30.7066 99.0679 30.5244 99.0863C30.3422 99.1047 30.1534 99.1181 29.9695 99.1298H29.9116C29.8321 99.1298 29.746 99.1399 29.6681 99.1416H29.5836C29.4843 99.1416 29.3849 99.1516 29.2855 99.1549C29.1447 99.1633 29.0039 99.165 28.8599 99.1667C28.7986 99.1667 28.7406 99.1667 28.6793 99.1667C28.5369 99.1667 28.3961 99.1667 28.2537 99.1667H27.9406C27.8562 99.1667 27.775 99.1667 27.6872 99.1667L27.3676 99.1549C27.2019 99.1549 27.0231 99.1365 26.8508 99.1248L26.5328 99.1014L26.137 99.0645C25.8587 99.0394 25.5821 99.0076 25.3088 98.9691L24.9776 98.9222L24.812 98.8988C24.5354 98.8552 24.2621 98.8084 23.9838 98.7548C23.7801 98.7196 23.5781 98.6761 23.3727 98.6342L23.3611 78.75Z" fill="#F8765E"/>
<path opacity="0.1" d="M114.75 31.1111H104.056V54.4444H114.75V31.1111Z" fill="#F8765E"/>
<path opacity="0.1" d="M114.75 54.4445V77.7778H63.2222V67.7135H90.6681V73.6505H104.367V54.4445H114.75Z" fill="#F8765E"/>
<path opacity="0.1" d="M114.75 103.6H114.585V118.611C112.732 118.453 110.885 118.239 109.043 117.968C100.75 116.747 92.6653 114.374 85.0207 110.918C82.8136 109.919 80.6514 108.828 78.5341 107.646C74.9975 105.675 71.6091 103.447 68.3963 100.978C67.5893 100.356 66.7928 99.7199 66.0066 99.0693C65.4622 98.6177 64.9211 98.1545 64.3734 97.7046C63.9935 97.3953 63.6103 97.0909 63.2222 96.7998V79.0659H104.101C104.073 78.9601 104.045 78.8542 104.015 78.75C104.046 78.8542 104.076 78.9601 104.104 79.0659H114.585V103.59C114.641 103.592 114.696 103.597 114.75 103.6Z" fill="#F8765E"/>
<path opacity="0.1" d="M141 29.1667H134.194V27.2119H137.245V21.3889C137.51 21.4779 137.773 21.5695 138.035 21.6636V27.2119H141V29.1667Z" fill="#F8765E"/>
<path opacity="0.1" d="M158.5 54.4361H124.879C124.879 54.4361 124.879 54.4361 124.891 54.4445L124.876 54.4361H118.639V31.1595H120.406V48.3643H128.482V38.1751H135.154V30.1389H142.002V38.1818H148.673V48.371H158.5V54.4361Z" fill="#F8765E"/>
<path opacity="0.1" d="M119.611 55.4166V78.2033H159.33V55.4166H119.611ZM170.112 105.025L170.167 86.9891H159.33V78.9181H119.611V118.532C122.867 118.667 126.129 118.629 129.381 118.417H129.438C130.991 118.32 132.537 118.18 134.076 117.995H134.111C142.322 117.049 150.35 114.929 157.945 111.701L170.112 105.025Z" fill="#F8765E"/>
<path opacity="0.1" d="M175.642 79.7222H183.778C183.706 84.1074 182.882 88.4145 181.078 92.3922C179.577 95.6971 177.492 98.5867 175.028 101.111V87.3732H175.642V79.7222Z" fill="#F8765E"/>
<path opacity="0.1" d="M183.778 78.75H175.028V59.3055H179.763C182.213 65.4361 183.77 72.1637 183.778 78.75Z" fill="#F8765E"/>
<path opacity="0.1" d="M114.75 38.8889H108.917V45.6945H114.75V38.8889Z" fill="#F8765E"/>
<path opacity="0.1" d="M114.75 52.5H108.917V54.4444H114.75V52.5Z" fill="#F8765E"/>
<path opacity="0.1" d="M114.75 54.4445H108.917V60.2778H114.75V54.4445Z" fill="#F8765E"/>
<path opacity="0.1" d="M114.75 68.0555H108.917V74.8611H114.75V68.0555Z" fill="#F8765E"/>
<path opacity="0.1" d="M114.75 83.6111H108.917V90.4166H114.75V83.6111Z" fill="#F8765E"/>
<path opacity="0.1" d="M114.582 103.411C114.639 103.411 114.694 103.411 114.75 103.421H114.582V105H108.917V98.1945H114.582V103.411Z" fill="#F8765E"/>
<path opacity="0.1" d="M114.75 112.778V118.611C112.8 118.446 110.855 118.222 108.917 117.939V112.778H114.75Z" fill="#F8765E"/>
<path opacity="0.1" d="M86.5556 77.7778H62.25V78.7778H86.5556V77.7778Z" fill="#F8765E"/>
<path opacity="0.1" d="M86.5556 78.75H62.25V80.6944H86.5556V78.75Z" fill="#F8765E"/>
<path opacity="0.1" d="M86.5556 87.5H62.25V91.3889H86.5556V87.5Z" fill="#F8765E"/>
<path opacity="0.1" d="M87.5278 97.2222V101.111H68.3479C67.515 100.374 66.6924 99.6182 65.8799 98.8422C65.3181 98.3055 64.7614 97.755 64.1945 97.2222H87.5278Z" fill="#F8765E"/>
<path opacity="0.1" d="M86.5556 106.95V110.833H84.749C82.7187 109.645 80.7283 108.349 78.7778 106.944L86.5556 106.95Z" fill="#F8765E"/>
<path opacity="0.1" d="M133.222 58.3334H128.361V63.1945H133.222V58.3334Z" fill="#F8765E"/>
<path opacity="0.1" d="M30.1667 35.9722H25.3055V40.8333H30.1667V35.9722Z" fill="#F8765E"/>
<path opacity="0.1" d="M30.1667 46.6666H25.3055V51.5277H30.1667V46.6666Z" fill="#F8765E"/>
<path opacity="0.1" d="M30.1667 58.3334H25.3055V63.1945H30.1667V58.3334Z" fill="#F8765E"/>
<path opacity="0.1" d="M30.1667 68.0555H25.3055V72.9167H30.1667V68.0555Z" fill="#F8765E"/>
<path opacity="0.1" d="M30.1667 78.75H25.3055V83.6111H30.1667V78.75Z" fill="#F8765E"/>
<path opacity="0.1" d="M30.1667 91.3889H25.3055V96.25H30.1667V91.3889Z" fill="#F8765E"/>
<path opacity="0.1" d="M151.694 58.3334H146.833V63.1945H151.694V58.3334Z" fill="#F8765E"/>
<path opacity="0.1" d="M133.222 69.0278H128.361V73.8889H133.222V69.0278Z" fill="#F8765E"/>
<path opacity="0.1" d="M151.694 69.0278H146.833V73.8889H151.694V69.0278Z" fill="#F8765E"/>
<path opacity="0.1" d="M133.222 80.6945H128.361V85.5556H133.222V80.6945Z" fill="#F8765E"/>
<path opacity="0.1" d="M151.694 80.6945H146.833V85.5556H151.694V80.6945Z" fill="#F8765E"/>
<path opacity="0.1" d="M133.222 92.3611H128.361V97.2222H133.222V92.3611Z" fill="#F8765E"/>
<path opacity="0.1" d="M151.694 92.3611H146.833V97.2222H151.694V92.3611Z" fill="#F8765E"/>
<path opacity="0.1" d="M133.222 105H128.361V109.861H133.222V105Z" fill="#F8765E"/>
<path opacity="0.1" d="M151.694 105H146.833V109.861H151.694V105Z" fill="#F8765E"/>
<path opacity="0.1" d="M128.361 119.583V115.694H133.222V119.03L128.361 119.583Z" fill="#F8765E"/>
<path opacity="0.1" d="M2.94446 48.6111V52.5H19.4722V48.6111H2.94446ZM4.59163 52.2562H3.24333V48.8501H4.60182L4.59163 52.2562ZM6.23711 52.2562H4.87861V48.8501H6.23711V52.2562ZM7.87919 52.2562H6.52069V48.8501H7.87919V52.2562ZM9.52466 52.2562H8.16787V48.8501H9.52636L9.52466 52.2562ZM11.1684 52.2562H9.80995V48.8501H11.1684V52.2562ZM12.8139 52.2562H11.4554V48.8501H12.8139V52.2562ZM14.4594 52.2562H13.1009V48.8501H14.4594V52.2562ZM16.1032 52.2562H14.7447V48.8501H16.1032V52.2562ZM17.7469 52.2562H16.3885V48.8501H17.7469V52.2562ZM19.3907 52.2562H18.0322V48.8501H19.3907V52.2562Z" fill="#F8765E"/>
<path opacity="0.1" d="M2.94446 55.4166V59.3055H19.4722V55.4166H2.94446ZM4.59163 59.0593H3.24333V55.6628H4.60182L4.59163 59.0593ZM6.23711 59.0593H4.87861V55.6628H6.23711V59.0593ZM7.87919 59.0593H6.52069V55.6628H7.87919V59.0593ZM9.52466 59.0593H8.16787V55.6628H9.52636L9.52466 59.0593ZM11.1684 59.0593H9.80995V55.6628H11.1684V59.0593ZM12.8139 59.0593H11.4554V55.6628H12.8139V59.0593ZM14.4594 59.0593H13.1009V55.6628H14.4594V59.0593ZM16.1032 59.0593H14.7447V55.6628H16.1032V59.0593ZM17.7469 59.0593H16.3885V55.6628H17.7469V59.0593ZM19.3907 59.0593H18.0322V55.6628H19.3907V59.0593Z" fill="#F8765E"/>
<path opacity="0.1" d="M2.94446 65.1389V69.0278H19.4722V65.1389H2.94446ZM4.59163 68.7749H3.24333V65.3823H4.60182L4.59163 68.7749ZM6.23711 68.7749H4.87861V65.3823H6.23711V68.7749ZM7.87919 68.7749H6.52069V65.3823H7.87919V68.7749ZM9.52466 68.7749H8.16787V65.3823H9.52636L9.52466 68.7749ZM11.1684 68.7749H9.80995V65.3823H11.1684V68.7749ZM12.8139 68.7749H11.4554V65.3823H12.8139V68.7749ZM14.4594 68.7749H13.1009V65.3823H14.4594V68.7749ZM16.1032 68.7749H14.7447V65.3823H16.1032V68.7749ZM17.7469 68.7749H16.3885V65.3823H17.7469V68.7749ZM19.3907 68.7749H18.0322V65.3823H19.3907V68.7749Z" fill="#F8765E"/>
<path opacity="0.1" d="M2.94446 71.9445V75.8334H19.4722V71.9445H2.94446ZM4.59163 75.5916H3.24333V72.1862H4.60182L4.59163 75.5916ZM6.23711 75.5916H4.87861V72.1862H6.23711V75.5916ZM7.87919 75.5916H6.52069V72.1862H7.87919V75.5916ZM9.52466 75.5916H8.16787V72.1862H9.52636L9.52466 75.5916ZM11.1684 75.5916H9.80995V72.1862H11.1684V75.5916ZM12.8139 75.5916H11.4554V72.1862H12.8139V75.5916ZM14.4594 75.5916H13.1009V72.1862H14.4594V75.5916ZM16.1032 75.5916H14.7447V72.1862H16.1032V75.5916ZM17.7469 75.5916H16.3885V72.1862H17.7469V75.5916ZM19.3907 75.5916H18.0322V72.1862H19.3907V75.5916Z" fill="#F8765E"/>
<path opacity="0.1" d="M2.94446 78.75C3.01097 79.1164 3.08601 79.4828 3.16446 79.8444V78.9943H4.52885V82.3994H3.7989C3.82107 82.4785 3.84324 82.5647 3.86542 82.6389H19.4722V78.75H2.94446ZM6.18486 82.3994H4.82048V78.9943H6.18486V82.3994ZM7.83406 82.3994H6.46968V78.9943H7.83406V82.3994ZM9.48667 82.3994H8.11887V78.9943H9.48326L9.48667 82.3994ZM11.1376 82.3994H9.77319V78.9943H11.1376V82.3994ZM12.7902 82.3994H11.4258V78.9943H12.7902V82.3994ZM14.4428 82.3994H13.0784V78.9943H14.4428V82.3994ZM16.0937 82.3994H14.7293V78.9943H16.0937V82.3994ZM17.7446 82.3994H16.3802V78.9943H17.7446V82.3994ZM19.3955 82.3994H18.0311V78.9943H19.3955V82.3994Z" fill="#F8765E"/>
<path opacity="0.1" d="M5.86108 87.5C5.90359 87.5767 5.94439 87.6629 5.9886 87.7396H6.88797V89.3762C6.98488 89.5391 7.08009 89.702 7.1787 89.8554V87.73H8.53882V91.1493H7.98797C8.04237 91.2283 8.09508 91.3122 8.15798 91.3889H18.5V87.5H5.86108ZM10.1812 91.1493H8.82104V87.7444H10.1812V91.1493ZM11.8286 91.1493H10.4685V87.7444H11.8286V91.1493ZM13.476 91.1493H12.1159V87.7444H13.476V91.1493ZM15.1218 91.1493H13.7617V87.7444H15.1218V91.1493ZM16.7675 91.1493H15.4074V87.7444H16.7675V91.1493ZM18.4133 91.1493H17.0531V87.7444H18.4133V91.1493Z" fill="#F8765E"/>
<path opacity="0.1" d="M15.5834 95.2778C15.7522 95.3805 15.9248 95.4752 16.0992 95.5779V95.4792H17.5835V96.3675L17.8989 96.5235V95.4792H19.3832V97.1867C19.4117 97.2018 19.4415 97.2137 19.4723 97.2223V95.2778H15.5834Z" fill="#F8765E"/>
<path opacity="0.1" d="M114.584 104.028H114.75H114.584ZM103.89 78.7599C103.921 78.8676 103.948 78.9753 103.978 79.0813C103.951 78.9753 103.923 78.8676 103.89 78.7599ZM24.3334 29.1666V29.8851H31.766V29.1666H24.3334ZM114.584 104.028H114.75H114.584ZM103.89 78.7599C103.921 78.8676 103.948 78.9753 103.978 79.0813C103.951 78.9753 103.923 78.8676 103.89 78.7599ZM114.584 104.023H114.75H114.584ZM103.89 78.7599C103.921 78.8676 103.948 78.9753 103.978 79.0813C103.951 78.9753 103.923 78.8676 103.89 78.7599Z" fill="#F8765E"/>
<path d="M77.3555 61.7999C77.3555 61.7999 76.6991 61.7086 76.6991 60.7563C76.6991 59.804 76.2293 58.0256 76.2293 58.0256C76.2293 58.0173 75.8228 54.9282 75.2614 54.4371C74.6999 53.946 73.9786 51.0626 73.9786 51.0626C73.9786 51.0626 73.8553 49.4982 73.6037 49.1614C73.3522 48.8246 73.0123 48.0001 72.5108 46.8238C72.0094 45.6476 69.9186 44.833 69.9186 44.833C69.9186 44.833 66.1384 42.6497 65.0672 41.938C64.9698 41.8795 64.8788 41.8111 64.7957 41.7339C64.6091 41.49 63.7961 41.4851 63.7961 41.4851C63.7111 40.9509 63.6295 40.337 63.6028 39.7812C63.6028 39.7215 63.6028 39.6618 63.5945 39.6021C64.789 38.8989 65.6887 37.7903 66.1284 36.4798C66.1484 36.4167 66.1651 36.3504 66.1834 36.2873C66.3281 36.2399 66.4461 36.1339 66.5083 35.9953C66.6049 35.7813 66.6066 35.5308 66.7265 35.3317C66.8665 35.0961 67.133 34.9701 67.3429 34.7925C67.8727 34.3446 68.0093 33.5897 67.9844 32.9029C67.9677 32.3471 67.8777 31.7864 67.9127 31.2339L67.9227 31.0946C67.9327 31.0116 67.9444 30.9287 67.9594 30.849C68.041 30.4376 68.2193 30.0494 68.3192 29.6413C68.4192 29.2331 68.4292 28.7736 68.1959 28.4219C67.8544 27.9059 67.143 27.8031 66.5183 27.75C65.8102 27.6902 65.1772 27.7682 64.724 27.1826C64.5119 26.8765 64.2733 26.5895 64.011 26.3249C63.9177 26.2386 63.0114 25.6878 63.0114 25.6513C62.1268 25.2433 61.1242 25.1668 60.1875 25.4356C59.7177 25.5717 59.2746 25.794 58.7981 25.9051C57.7702 26.1473 56.5873 25.8852 55.7144 26.4709C55.2279 26.8027 54.9364 27.3302 54.6631 27.8445C54.441 28.2681 54.2155 28.6912 53.9867 29.1137C53.6186 29.8088 53.2437 30.5156 53.0888 31.2854C53.0562 31.4529 53.0361 31.6226 53.0288 31.793V31.8013C53.0288 31.8627 53.0288 31.9241 53.0288 31.9855V32.0634C53.0288 32.1215 53.0288 32.1779 53.0388 32.2293C53.0488 32.2808 53.0471 32.2974 53.0521 32.3322C53.0571 32.367 53.0655 32.445 53.0754 32.4981C53.0854 32.5512 53.1054 32.6441 53.1254 32.7171C53.1338 32.7486 53.1454 32.7785 53.1554 32.8083C53.1721 32.8648 53.1921 32.9195 53.2137 32.9742C53.2254 33.0025 53.237 33.0323 53.2504 33.0605C53.2754 33.1186 53.3054 33.175 53.3353 33.2264C53.3487 33.2496 53.3587 33.2712 53.372 33.2928C53.4185 33.3699 53.4697 33.4442 53.5253 33.5151C53.8818 33.9581 54.4066 34.2401 54.7947 34.6548C54.7947 34.6714 54.7947 34.688 54.7947 34.703C54.7947 34.7494 54.7947 34.7942 54.7947 34.8407C54.8365 36.7187 55.8083 38.4546 57.3904 39.4776C57.3904 39.5407 57.3987 39.6054 57.402 39.6684C57.4345 40.1609 57.4284 40.6551 57.3837 41.1466C57.2463 40.9854 57.0428 40.8951 56.8306 40.9011C56.759 40.8976 56.6873 40.9037 56.6173 40.9193L56.6023 40.9077V40.9226C56.2358 41.0122 55.7843 41.3922 55.3529 42.4722C55.3529 42.4722 54.0401 43.9454 53.0405 43.884C52.0409 43.8226 49.5102 45.417 49.5102 45.417C49.5102 45.417 47.0412 47.0129 46.5115 48.6388C46.2153 49.5607 45.8603 50.4629 45.4486 51.3397L42.3965 57.6025L41.8334 62.5713C41.8334 62.5713 42.1449 64.7811 42.0833 65.1179C42.0216 65.4547 43.3644 68.4924 43.3644 68.4924C43.3644 68.4924 47.8009 76.255 49.6135 76.6531L49.7435 76.5619C49.821 76.6022 49.9033 76.6329 49.9884 76.6531L50.3616 76.391C50.384 76.6832 50.3745 76.9769 50.3332 77.267C50.0833 78.0334 50.4265 83.0354 50.863 84.0159C51.2995 84.9964 51.1446 97.8522 51.1446 97.8522L51.0829 98.987C51.0829 98.987 51.0829 99.0235 51.0979 99.0865L51.0829 99.3553L51.1279 99.3785C51.1746 99.7384 51.1594 100.104 51.0829 100.459C50.9263 100.956 50.863 102.363 50.863 102.363C50.863 102.363 49.6152 110.307 50.2066 111.902C50.798 113.498 51.3012 115.247 51.3012 115.247C51.3012 115.247 51.9259 117.238 51.3312 117.578C50.7364 117.918 49.0454 118.489 49.3936 119.318C49.7102 120.085 50.9113 122.139 51.0896 122.439L51.0746 122.597L50.8297 125.239C50.8694 125.588 50.9644 125.929 51.1112 126.248C51.3795 126.824 51.9009 127.421 52.8922 127.356C53.0588 127.345 53.252 127.325 53.4386 127.3C55.2529 127.058 57.487 126.251 57.487 126.251C57.371 126.178 57.2647 126.091 57.1704 125.991C56.9902 125.817 56.8896 125.577 56.8922 125.327C56.9189 124.846 56.0142 122.553 55.7893 121.989C55.7544 121.908 55.736 121.862 55.736 121.862C55.736 121.862 57.7985 119.715 57.4553 117.812C57.4553 117.812 55.1729 116.485 55.9243 115.756C56.6756 115.028 58.0184 112.936 58.0184 112.936C58.0184 112.936 58.0801 105.114 58.0184 103.946C57.9541 103.135 57.9928 102.32 58.1334 101.519C58.1584 101.398 58.1884 101.28 58.22 101.164C59.2591 101.318 60.3081 101.397 61.3587 101.401C61.7419 101.401 62.1317 101.401 62.5249 101.378C62.5249 101.488 62.5299 101.608 62.5399 101.736C62.6265 103.674 62.7881 107.071 62.9198 108.334C63.1064 110.144 64.1376 115.021 64.1376 115.021C64.1376 115.021 62.1701 116.279 64.4808 119.378C64.4808 119.378 64.4808 120.501 64.3275 120.664C64.1639 121.195 64.032 121.736 63.9327 122.283C63.8361 122.867 63.7961 123.458 63.9527 123.765C64.3275 124.498 66.5766 124.438 66.5766 124.438L66.6316 124.428C67.4892 124.34 68.3467 124.597 69.0123 125.143C69.8669 125.827 73.1106 125.526 74.8665 125.309C75.5546 125.223 76.0144 125.143 76.0144 125.143C76.0367 125.066 76.0446 124.985 76.0377 124.904C76.0194 124.475 75.6812 123.532 73.3888 122.691C73.3888 122.691 71.233 121.248 71.263 119.99H71.218H70.9681C71.1497 119.98 71.2663 119.99 71.2663 119.99C71.2663 119.99 70.4217 116.921 70.7666 116.672C71.1114 116.423 70.0785 113.022 70.0785 113.022C70.0785 113.022 69.4871 107.315 69.4554 106.915C69.4567 106.572 69.509 106.231 69.6104 105.903L69.4554 102.775C69.4554 102.775 69.4254 101.734 69.4554 101.396C69.4504 101.102 69.4264 100.809 69.3838 100.518C69.3688 100.402 69.3538 100.281 69.3371 100.162C70.1451 99.9575 70.6699 99.7684 70.6699 99.7684L70.5766 88.8768C71.263 87.5496 71.3896 84.638 71.3863 82.5725C71.3863 81.2453 71.3263 80.2632 71.3263 80.2632L72.2643 78.7385C72.2643 78.7385 72.4809 76.9136 72.1377 76.5138C71.9861 76.3329 72.0544 76.1455 72.1793 75.9912C72.2442 75.9399 72.3127 75.8934 72.3842 75.8518C72.3842 75.8518 72.3742 75.8369 72.3626 75.8153C72.4281 75.7608 72.4977 75.7115 72.5708 75.6677C72.5708 75.6677 72.2376 75.1534 72.5358 74.936C72.8157 75.1252 73.0656 75.2678 73.2555 75.384C73.2422 75.5051 73.2289 75.5748 73.2289 75.5748L73.3088 75.4089C73.4921 75.5117 73.6037 75.5748 73.6037 75.5748C73.6037 75.5748 75.0731 72.6599 75.0415 72.2302C75.0098 71.8005 76.0411 69.9905 76.0411 69.9905C76.0411 69.9905 76.166 69.0399 76.7291 68.6417C77.2922 68.2435 77.1656 65.3585 77.1656 65.3585C77.1656 65.3585 77.3222 63.8554 77.6971 63.2416C78.0719 62.6277 77.3555 61.7999 77.3555 61.7999ZM49.2403 60.5207L49.2687 61.2159C49.1021 60.9488 48.9821 60.7563 48.9821 60.7563L49.2403 60.5207Z" fill="url(#paint0_linear_20_112)"/>
<path d="M72.9445 75.0434L72.4934 76.8056C72.4934 76.8056 68.8808 75.1142 68.2293 72.9651C67.5778 70.816 69.3193 70 69.3193 70L72.6856 71.3083L72.9445 75.0434Z" fill="white"/>
<path opacity="0.1" d="M72.9445 75.0434L72.4934 76.8056C72.4934 76.8056 68.8808 75.1142 68.2293 72.9651C67.5778 70.816 69.3193 70 69.3193 70L72.6856 71.3083L72.9445 75.0434Z" fill="black"/>
<path d="M56.4166 127.283C56.4166 127.283 53.6346 128.212 51.722 128.329C50.7065 128.39 50.1727 127.825 49.898 127.28C49.7479 126.977 49.6511 126.654 49.6111 126.324L49.8597 123.82L49.9919 122.487L54.0554 121.528L54.6309 123.127L54.6848 123.248C54.9161 123.782 55.8428 125.954 55.815 126.408C55.8127 126.642 55.9157 126.868 56.1002 127.032C56.1935 127.127 56.2998 127.212 56.4166 127.283Z" fill="white"/>
<path d="M74.8866 125.696C74.8931 125.78 74.8854 125.864 74.8639 125.945C74.8639 125.945 69.3065 126.943 68.1697 125.945C67.5216 125.356 66.6724 125.088 65.8311 125.208C65.8311 125.208 63.6809 125.271 63.322 124.509C63.1726 124.19 63.2116 123.569 63.3042 122.958C63.3986 122.385 63.5244 121.818 63.6809 121.261L63.767 121.188L64.2786 120.746L70.2679 120.556H70.3134C70.2842 121.873 72.3466 123.384 72.3466 123.384C74.5374 124.258 74.8606 125.245 74.8866 125.696Z" fill="white"/>
<path opacity="0.1" d="M74.8871 125.603C74.8928 125.699 74.8845 125.794 74.8627 125.886C74.8627 125.886 69.3063 127.017 68.1694 125.886C67.5216 125.219 66.673 124.915 65.8322 125.051C65.8322 125.051 63.6801 125.122 63.3228 124.259C63.1734 123.894 63.2107 123.193 63.3033 122.5C64.1316 122.601 65.4391 122.852 65.9524 123.453C66.7287 124.365 68.0443 125.276 68.8516 125.348C69.4834 125.397 73.2629 125.544 74.8871 125.603Z" fill="black"/>
<path opacity="0.1" d="M56.4166 127.544C56.4166 127.544 53.5114 128.242 51.514 128.33C50.4536 128.376 49.8962 127.951 49.6111 127.54C50.3501 127.703 51.376 127.874 51.9153 127.717C52.5545 127.532 54.8206 127.412 56.0916 127.361C56.1884 127.43 56.2975 127.492 56.4166 127.544Z" fill="black"/>
<path d="M60.7789 49.3792C58.6144 48.4823 55.83 45.5188 56.5253 44.134C56.6797 43.7846 56.7715 43.4075 56.7959 43.0221C56.8406 42.4989 56.8472 41.9728 56.8156 41.4485C56.7668 40.5899 56.6699 39.7352 56.5253 38.8889C56.5253 38.8889 63.2829 39.0515 62.8893 40.1128C62.7745 40.424 62.7565 40.9642 62.7876 41.5692C62.8188 42.1741 62.9008 42.8577 62.986 43.4364C63.1041 44.2302 63.2222 44.8351 63.2222 44.8351C63.2222 44.8351 62.809 45.4523 62.5663 45.4855C62.3236 45.5188 63.8846 50.6572 60.7789 49.3792Z" fill="#CF6F80"/>
<path opacity="0.1" d="M55.4445 122.949L55.3902 122.993C53.232 121.049 50.6219 123.472 50.6219 123.472L50.5834 123.421L50.7165 122.32L54.8103 121.528L55.3902 122.848L55.4445 122.949Z" fill="black"/>
<path opacity="0.1" d="M70.0277 121.674C70.0277 121.674 68.5276 121.649 67.7276 122.217C66.9276 122.786 63.0607 122.341 63.2274 122.217C63.2768 122.156 63.3066 122.086 63.3141 122.014L63.8391 121.674L69.986 121.528C70.0094 121.618 70.0277 121.674 70.0277 121.674Z" fill="black"/>
<path d="M56.4017 100.538C56.304 100.816 56.2298 101.105 56.1801 101.399C56.0586 102.206 56.0248 103.027 56.0796 103.844C56.1335 105.019 56.0796 112.895 56.0796 112.895C56.0796 112.895 54.9266 114.995 54.2838 115.736C53.6411 116.476 55.5956 117.806 55.5956 117.806C55.8872 119.72 54.1206 121.882 54.1206 121.882C52.3249 119.381 50.1531 122.5 50.1531 122.5C50.1531 122.5 48.9725 120.149 48.678 119.31C48.3836 118.471 49.831 117.89 50.3397 117.549C50.8484 117.208 50.3149 115.198 50.3149 115.198C50.3149 115.198 49.8849 113.437 49.3748 111.83C48.8646 110.224 49.9374 102.225 49.9374 102.225C49.9374 102.225 49.9928 100.805 50.1254 100.31C50.1923 99.9523 50.2056 99.5843 50.1648 99.2218C50.156 99.0992 50.1458 98.9968 50.1385 98.9279C50.1312 98.8591 50.1254 98.8272 50.1254 98.8272L50.1458 98.7869L50.8746 97.2222C50.8746 97.2222 56.7515 99.5525 56.4017 100.538Z" fill="#9BDBE7"/>
<path d="M69.0556 120.542C69.0556 120.542 67.7001 120.511 66.9771 121.19C66.2542 121.869 62.7599 121.339 62.9105 121.19C63.0611 121.041 63.0491 119.937 63.0491 119.937C60.9992 116.926 62.7478 115.704 62.7478 115.704C62.7478 115.704 61.8321 110.963 61.6664 109.204C61.5504 107.976 61.4074 104.674 61.3306 102.789C61.2974 101.979 61.2778 101.421 61.2778 101.421L62.9527 101.058L63.1681 101.011L67.2076 100.139C67.2076 100.139 67.319 100.949 67.3943 101.612C67.4319 101.895 67.453 102.181 67.4576 102.466C67.4305 102.791 67.4576 103.805 67.4576 103.805L67.5946 106.847C67.5051 107.167 67.4589 107.498 67.4576 107.831C67.4847 108.219 68.0103 113.765 68.0103 113.765C68.0103 113.765 68.9246 117.075 68.6128 117.313C68.301 117.551 69.0556 120.542 69.0556 120.542Z" fill="#9BDBE7"/>
<path opacity="0.1" d="M62.2324 38.2895C62.1099 38.6315 62.0907 39.2252 62.1239 39.8901C60.1538 41.1934 57.6785 41.1426 55.754 39.7594C55.7021 38.8151 55.5987 37.8751 55.4445 36.9445C55.4445 36.9445 62.6521 37.1193 62.2324 38.2895Z" fill="black"/>
<path d="M66.1363 35.0501C66.1376 35.6592 66.041 36.2647 65.8499 36.8436C64.9681 39.5218 62.2689 41.1805 59.458 40.7716C56.6471 40.3627 54.542 38.0051 54.473 35.1887C54.473 35.1414 54.473 35.0974 54.473 35.0501C54.437 32.9602 55.5407 31.0136 57.3601 29.9582C59.1795 28.9028 61.4315 28.9028 63.2509 29.9582C65.0703 31.0136 66.174 32.9602 66.138 35.0501H66.1363Z" fill="#CF6F80"/>
<path opacity="0.1" d="M60.7789 48.3993C58.6144 47.469 55.83 44.3952 56.5253 42.9589C56.6797 42.5965 56.7715 42.2053 56.7959 41.8055L59.759 44.4985L61.5922 46.1615L62.986 42.2371C63.1041 43.0605 63.2222 43.6879 63.2222 43.6879C63.2222 43.6879 62.809 44.3281 62.5663 44.3625C62.3236 44.397 63.8846 49.7249 60.7789 48.3993Z" fill="black"/>
<path d="M68.0833 58.9467L65.5164 100.898L62.1687 101.111L53.5 76.7862L54.9221 47.907L55.2215 41.8055L59.0761 44.8853L60.9796 46.4028L62.4681 42.7174L65.2357 45.064L68.0833 58.9467Z" fill="#9BDBE7"/>
<path opacity="0.1" d="M57.3727 101.078C57.267 101.403 57.1867 101.739 57.133 102.083C54.8746 101.65 52.6812 100.798 50.626 99.5567L50.5834 99.5292L50.5976 99.2137L50.6054 99.049L51.394 97.2222C51.394 97.2222 57.7512 99.9271 57.3727 101.078Z" fill="black"/>
<path opacity="0.1" d="M63.2223 102.826C62.5984 102.939 61.9692 103.016 61.3375 103.056C61.3 102.145 61.2778 101.519 61.2778 101.519L63.1729 101.111L63.2223 102.826Z" fill="black"/>
<path opacity="0.1" d="M68.0833 100.624C66.8515 100.921 64.9494 101.254 63.2464 101.046L63.2222 100.029L67.8685 99.1666C67.8685 99.1666 67.9967 99.9604 68.0833 100.624Z" fill="black"/>
<path opacity="0.1" d="M63.2222 101.833C56.7662 103.015 50.8535 99.6269 50.8535 99.6269L50.9102 98.4791C50.9102 98.4791 51.0566 85.466 50.6504 84.4684C50.2441 83.4708 49.9276 78.4117 50.1575 77.6353C50.3874 76.8588 49.3182 65.2147 49.3182 65.2147L49.145 60.4882L42.8055 57.735L45.6399 51.4015C46.0227 50.5135 46.352 49.6001 46.6256 48.6669C47.1185 47.0228 49.4064 45.4073 49.4064 45.4073C49.4064 45.4073 51.7526 43.7936 52.6801 43.8543C53.6075 43.9151 54.8231 42.4262 54.8231 42.4262C55.7207 39.9735 56.5332 41.0843 56.5332 41.0843C56.5332 41.2007 56.5332 41.0843 56.4891 41.4472C56.1742 44.1396 61.5814 52.6473 61.6586 52.7975L62.1735 66.2444L62.6947 83.2615L63.2222 101.833Z" fill="black"/>
<path d="M63.2222 101.833C56.7677 103.015 50.8548 99.6273 50.8548 99.6273L50.913 98.4797C50.913 98.4797 51.0594 85.4688 50.6517 84.4713C50.244 83.4739 49.9291 78.4157 50.1605 77.6393C50.3919 76.8629 49.3214 65.2208 49.3214 65.2208L49.1467 60.4951L42.8055 57.7322L45.6392 51.3998C46.0211 50.5116 46.3503 49.5983 46.6247 48.6656C47.1159 47.0217 49.4049 45.4066 49.4049 45.4066C49.4049 45.4066 51.7505 43.7931 52.6762 43.8538C53.6019 43.9146 54.8188 42.426 54.8188 42.426C55.7177 39.9737 56.7079 41.0842 56.7079 41.0842C56.7079 41.2007 56.6134 41.253 56.6638 41.4471C57.3565 44.058 61.5818 52.6453 61.659 52.7955L62.18 66.2402L62.7011 83.2544L63.2222 101.833Z" fill="white"/>
<path opacity="0.1" d="M61.2777 53.4722C60.4831 53.1691 56.274 48.7762 56.274 48.7762V47.7764C56.1209 47.447 55.2109 47.6479 54.4722 47.8785L54.7893 41.8055L55.1497 42.079C55.9389 44.6254 61.1858 53.3256 61.2777 53.4722Z" fill="black"/>
<path d="M61.2777 53.4722C60.4815 53.1691 56.2735 48.7762 56.2735 48.7762V47.7764C56.1204 47.447 55.2107 47.6479 54.4722 47.8785L54.791 41.8055L55.1513 42.079C55.9421 44.6254 61.1895 53.3273 61.2777 53.4722Z" fill="white"/>
<path opacity="0.1" d="M50.9117 76.2896C50.992 76.2896 55.0725 75.8334 55.0725 75.8334C55.0725 75.8334 57.5433 80.999 57.3813 82.2558C57.2193 83.5127 56.926 84.6253 55.9321 84.4282C54.9382 84.2311 50.5834 84.5834 50.5834 84.5834L50.9117 76.2896Z" fill="black"/>
<path d="M49.9395 76.2896C50.0197 76.2896 54.1003 75.8334 54.1003 75.8334C54.1003 75.8334 56.5697 81.0005 56.4091 82.2558C56.2486 83.5112 55.9523 84.6253 54.9599 84.4282C53.9675 84.2311 49.6111 84.5834 49.6111 84.5834L49.9395 76.2896Z" fill="white"/>
<path d="M53.0898 72.9166C53.0898 72.9166 57.2961 75.6699 57.3863 76.5105C57.4764 77.3511 55.2454 76.1431 54.7635 75.9974C54.4463 75.9043 54.1234 75.8428 53.7979 75.8137L50.5834 75.9195L53.0898 72.9166Z" fill="#CF6F80"/>
<path opacity="0.1" d="M60.7916 53.9861C61.3439 53.9861 61.7916 53.5384 61.7916 52.9861C61.7916 52.4338 61.3439 51.9861 60.7916 51.9861C60.2393 51.9861 59.7916 52.4338 59.7916 52.9861C59.7916 53.5384 60.2393 53.9861 60.7916 53.9861Z" fill="black"/>
<path d="M60.7916 53.9861C61.3439 53.9861 61.7916 53.5384 61.7916 52.9861C61.7916 52.4338 61.3439 51.9861 60.7916 51.9861C60.2393 51.9861 59.7916 52.4338 59.7916 52.9861C59.7916 53.5384 60.2393 53.9861 60.7916 53.9861Z" fill="#3F3D56"/>
<path opacity="0.1" d="M60.7916 74.4028C61.3439 74.4028 61.7916 73.9551 61.7916 73.4028C61.7916 72.8505 61.3439 72.4028 60.7916 72.4028C60.2393 72.4028 59.7916 72.8505 59.7916 73.4028C59.7916 73.9551 60.2393 74.4028 60.7916 74.4028Z" fill="black"/>
<path d="M60.7916 73.4305C61.3439 73.4305 61.7916 72.9828 61.7916 72.4305C61.7916 71.8783 61.3439 71.4305 60.7916 71.4305C60.2393 71.4305 59.7916 71.8783 59.7916 72.4305C59.7916 72.9828 60.2393 73.4305 60.7916 73.4305Z" fill="#3F3D56"/>
<path opacity="0.1" d="M60.7916 64.6805C61.3439 64.6805 61.7916 64.2328 61.7916 63.6805C61.7916 63.1283 61.3439 62.6805 60.7916 62.6805C60.2393 62.6805 59.7916 63.1283 59.7916 63.6805C59.7916 64.2328 60.2393 64.6805 60.7916 64.6805Z" fill="black"/>
<path d="M60.7916 64.6805C61.3439 64.6805 61.7916 64.2328 61.7916 63.6805C61.7916 63.1283 61.3439 62.6805 60.7916 62.6805C60.2393 62.6805 59.7916 63.1283 59.7916 63.6805C59.7916 64.2328 60.2393 64.6805 60.7916 64.6805Z" fill="#3F3D56"/>
<path d="M71.3743 74.617C71.3743 74.617 71.672 75.0787 71.3743 75.2945C71.0765 75.5103 71.4034 76.0322 71.4034 76.0322C71.4034 76.0322 70.6607 76.4822 70.9875 76.887C71.3144 77.2919 71.1073 79.1203 71.1073 79.1203L70.2141 80.6493C70.2141 80.6493 70.2675 81.6346 70.2707 82.9662C70.2707 85.0438 70.1526 87.9646 69.4989 89.2962L69.5895 100.222C69.5895 100.222 66.4617 101.403 63.8435 101.043L63.4552 83.5115C63.4552 83.5115 64.0215 73.5698 64.2303 71.6628C64.3524 70.6727 64.4022 69.6745 64.3791 68.6767C64.3791 68.6767 64.2901 65.6924 63.9908 64.3072C63.9908 64.3072 63.6672 58.3067 63.6348 56.6456C63.6202 55.851 63.6607 53.5324 63.706 51.3276C63.7561 48.9171 63.8128 46.6437 63.8128 46.6437L63.2222 41.8125C63.2222 41.8125 63.8128 41.7506 63.9908 41.9965C64.0705 42.0735 64.1572 42.1424 64.2497 42.2023C65.2691 42.9149 68.871 45.1063 68.871 45.1063C68.871 45.1063 70.8646 45.926 71.3419 47.1003C71.8193 48.2747 72.151 49.1078 72.3824 49.4423C72.6138 49.7769 72.74 51.3494 72.74 51.3494C72.74 51.3494 73.4261 54.2434 73.9617 54.7335C74.4973 55.2237 74.8888 58.3419 74.8888 58.3419L70.1558 62.1894C70.1558 62.1894 69.74 68.5897 69.651 68.8373C69.562 69.0849 71.3743 74.617 71.3743 74.617Z" fill="white"/>
<path d="M71.1464 74.638C71.1464 74.638 71.4622 75.0993 71.1464 75.3148C70.8306 75.5304 71.1757 76.0518 71.1757 76.0518C71.1757 76.0518 70.3889 76.5064 70.734 76.9108C71.0791 77.3153 70.8617 79.1419 70.8617 79.1419L69.9093 80.6694C69.9093 80.6694 69.9662 81.6537 69.9714 82.984C69.9714 85.0596 69.8454 87.9775 69.1483 89.3078L69.2432 100.222C69.2432 100.222 65.9028 101.402 63.1144 101.043L62.7021 83.5288C62.7021 83.5288 63.306 73.5968 63.5286 71.6917C63.659 70.7026 63.7114 69.7054 63.6856 68.7086C63.6856 68.7086 63.5907 65.7271 63.2732 64.3434C63.2732 64.3434 62.9281 58.3488 62.8919 56.6893C62.8763 55.8955 62.9212 53.5792 62.9678 51.3765C63.0213 48.9683 63.0817 46.6972 63.0817 46.6972L62.25 41.8055C62.25 41.8055 63.0817 41.8055 63.2732 42.0546C63.3574 42.1324 63.45 42.2013 63.5493 42.2601C64.6363 42.972 68.4789 45.1613 68.4789 45.1613C68.4789 45.1613 70.6029 45.9802 71.1119 47.1534C71.6209 48.3266 71.9746 49.1588 72.2231 49.4931C72.4715 49.8273 72.6027 51.3983 72.6027 51.3983C72.6027 51.3983 73.3343 54.2894 73.9054 54.7791C74.4765 55.2688 74.8889 58.3772 74.8889 58.3772L69.842 62.221C69.842 62.221 69.3985 68.615 69.3019 68.8623C69.2053 69.1097 71.1464 74.638 71.1464 74.638Z" fill="white"/>
<path opacity="0.1" d="M66.3212 48.2124L66.8518 49.3888L64.0582 51.5278C64.1205 49.3277 64.1909 47.2499 64.1909 47.2499L63.2222 42.7778C63.2222 42.7778 64.1909 42.7778 64.414 43.0055C64.5118 43.0764 64.6196 43.139 64.7355 43.1919L67.1111 48.4019L66.3212 48.2124Z" fill="black"/>
<path d="M65.3475 48.2124L65.8798 49.3888L63.0876 51.5278C63.1499 49.3262 63.2202 47.2499 63.2202 47.2499L62.25 42.7778C62.25 42.7778 63.2202 42.7778 63.4412 43.0055C63.5397 43.0762 63.6474 43.1392 63.7626 43.1934L66.1389 48.4019L65.3475 48.2124Z" fill="white"/>
<path opacity="0.1" d="M66.1363 34.1962C66.1376 34.7169 66.041 35.2345 65.8499 35.7294C65.7848 35.738 65.7184 35.7239 65.6658 35.6904C65.6215 34.3898 64.8663 33.1687 63.9373 32.1297C63.6764 31.816 63.3602 31.5382 62.9997 31.3061C62.6352 31.074 62.1819 30.9653 61.728 31.0011C61.2166 31.0604 60.7649 31.3552 60.2484 31.3928C59.5665 31.4404 58.9563 31.0402 58.2795 31.0199C57.7229 31.0244 57.1956 31.2319 56.8323 31.5893C56.4767 31.9458 56.2126 32.3612 56.0566 32.8089C55.7886 33.4879 55.6427 34.1972 55.6237 34.9129C55.6151 35.3176 55.5691 35.8248 55.1259 35.9722C55.1934 35.3705 54.9603 34.7725 54.4833 34.3234L54.473 34.3147C54.473 34.2742 54.473 34.2367 54.473 34.1962C54.437 32.4096 55.5407 30.7455 57.3601 29.8433C59.1795 28.9411 61.4315 28.9411 63.2509 29.8433C65.0703 30.7455 66.174 32.4096 66.138 34.1962H66.1363Z" fill="black"/>
<path d="M62.984 26.636C62.1463 26.215 61.1935 26.1353 60.3048 26.4121C59.8582 26.5533 59.4375 26.7824 58.9845 26.8978C58.0172 27.1476 56.8888 26.8771 56.0586 27.4817C55.5975 27.8262 55.3203 28.3706 55.0623 28.8994L54.4175 30.2119C54.0661 30.9302 53.7114 31.6605 53.5647 32.4512C53.418 33.2418 53.5067 34.1272 53.9758 34.7628C54.3176 35.2261 54.8221 35.5172 55.1929 35.953C55.6419 36.4889 55.8616 37.2005 55.799 37.9167C56.2198 37.7444 56.2601 37.1381 56.2698 36.6558C56.2877 35.8026 56.4258 34.9571 56.6792 34.1478C56.8264 33.614 57.0762 33.1188 57.4127 32.694C57.7566 32.2684 58.2551 32.0212 58.7814 32.0154C59.4262 32.0395 60.0049 32.5149 60.6433 32.4581C61.1269 32.415 61.5557 32.0619 62.0426 31.993C62.4718 31.9496 62.9008 32.0792 63.2452 32.3564C63.586 32.6328 63.8846 32.964 64.1302 33.3383C65.0104 34.5767 65.7245 36.0288 65.7664 37.5825C65.9486 37.7255 66.2114 37.5394 66.3017 37.319C66.3919 37.0985 66.3952 36.8401 66.5096 36.63C66.6418 36.3871 66.8949 36.2579 67.0932 36.0753C67.5961 35.612 67.7219 34.8317 67.7025 34.1237C67.6832 33.4158 67.5542 32.6975 67.68 32.0016C67.7557 31.5744 67.9266 31.1748 68.0201 30.7528C68.1136 30.3308 68.1249 29.8571 67.9041 29.4936C67.5816 28.9597 66.903 28.8546 66.3113 28.8046C65.6391 28.7426 65.0378 28.8219 64.609 28.2173C64.4077 27.9018 64.1812 27.6055 63.9319 27.3319C63.8465 27.2423 62.984 26.6739 62.984 26.636Z" fill="#512E4E"/>
<path opacity="0.1" d="M43.149 61.6215L41.4114 58.3334L40.8611 63.4068C40.8611 63.4068 41.167 65.6601 41.1055 66.0056C41.044 66.3511 42.3592 69.4486 42.3592 69.4486C42.3592 69.4486 46.7039 77.3694 48.4781 77.7778L54.4722 73.3937L52.8826 71.3275C52.8826 71.3275 52.3323 71.108 52.1943 71.3275C52.1943 71.3275 49.2429 66.1299 48.937 65.7537C48.631 65.3776 48.6909 64.6271 48.6909 64.6271C48.6909 64.6271 48.232 64.1267 48.3849 63.657C48.5379 63.1873 47.4987 61.5585 47.4987 61.5585L48.4465 60.6514L43.149 61.6215Z" fill="black"/>
<path d="M41.8702 58.3334L41.4114 58.7007L40.8611 63.6783C40.8611 63.6783 41.167 65.8891 41.1055 66.228C41.044 66.567 42.3607 69.606 42.3607 69.606C42.3607 69.606 46.7032 77.3771 48.4771 77.7778L54.4722 73.4765L52.8812 71.4494C52.8812 71.4494 52.3309 71.234 52.1929 71.4494C52.1929 71.4494 49.2419 66.3499 48.936 65.9809C48.6301 65.6119 48.6916 64.8755 48.6916 64.8755C48.6916 64.8755 48.2327 64.3846 48.3857 63.9238C48.5386 63.4629 47.4979 61.8649 47.4979 61.8649L48.4455 60.9749L41.8702 58.3334Z" fill="white"/>
<path opacity="0.1" d="M71.439 77.5812C71.8539 77.9523 71.5926 79.6186 71.5926 79.6186L70.4474 81.0146C70.4474 81.0146 70.5159 81.9157 70.52 83.1299L68.5949 83.5728C68.2419 83.654 67.8573 83.6044 67.5628 83.4397C67.2683 83.275 67.1002 83.0156 67.1116 82.7435L67.4435 74.8611L71.9349 76.1257C71.5531 76.3212 71.9722 76.8008 71.9722 76.8008C71.9722 76.8008 71.02 77.2101 71.439 77.5812Z" fill="black"/>
<path d="M71.4393 77.5777C71.854 77.9485 71.5927 79.6151 71.5927 79.6151L70.4481 81.01C70.4481 81.01 70.5165 81.9089 70.5227 83.1237L68.5631 83.574C68.2176 83.653 67.8414 83.6042 67.5533 83.4431C67.2652 83.2819 67.1007 83.0282 67.1116 82.762L67.4455 74.8611L71.9369 76.1247C71.5533 76.3201 71.9722 76.7978 71.9722 76.7978C71.9722 76.7978 71.0245 77.2083 71.4393 77.5777Z" fill="white"/>
<path d="M71.9723 73.382C71.9723 73.382 71.6422 75.0583 70.8159 75.1565C69.9896 75.2546 69.6192 77.8682 68.7951 77.7754C67.9711 77.6825 68.5167 75.3457 68.5459 74.8922C68.5751 74.4388 67.6478 72.5608 68.3416 72.1341C69.0354 71.7074 71.2313 72.1341 71.2313 72.1341L71.9723 73.382Z" fill="#CF6F80"/>
<path opacity="0.1" d="M73.417 61.6338L74.4634 59.3055C74.4634 59.3055 74.8796 61.08 74.8796 62.0279C74.8796 62.9758 75.4616 63.069 75.4616 63.069C75.4616 63.069 76.0994 63.9005 75.7632 64.5058C75.427 65.1112 75.2913 66.6179 75.2913 66.6179C75.2913 66.6179 75.4013 69.4932 74.9022 69.8907C74.4031 70.2881 74.2991 71.2377 74.2991 71.2377C74.2991 71.2377 73.3823 73.0421 73.411 73.4712C73.4396 73.9002 72.1354 76.8055 72.1354 76.8055C72.1354 76.8055 72.7732 73.1951 69.0564 71.6352C69.0564 71.6352 69.0277 70.4096 69.3052 70.0736C69.5826 69.7377 70.0154 69.5847 69.7439 67.8867C69.4725 66.1888 69.6655 64.1599 69.6655 63.7525C69.6655 63.345 70.4979 60.8039 70.4979 60.8039L73.417 61.6338Z" fill="black"/>
<path d="M73.5502 58.3334L74.4632 58.6779C74.4632 58.6779 74.8805 60.516 74.8805 61.4979C74.8805 62.4798 75.462 62.5763 75.462 62.5763C75.462 62.5763 76.0992 63.4377 75.7633 64.0647C75.4273 64.6918 75.2933 66.2525 75.2933 66.2525C75.2933 66.2525 75.4032 69.231 74.9046 69.6427C74.4059 70.0544 74.2944 71.0381 74.2944 71.0381C74.2944 71.0381 73.38 72.9072 73.4086 73.3516C73.4372 73.7961 72.1326 76.8056 72.1326 76.8056C72.1326 76.8056 72.7713 73.0657 69.0563 71.4498C69.0563 71.4498 69.0292 70.1802 69.3064 69.8322C69.5836 69.4842 70.0159 69.3258 69.7447 67.5669C69.4736 65.8081 69.6664 63.7064 69.6664 63.2843C69.6664 62.8623 70.498 60.23 70.498 60.23L73.5502 58.3334Z" fill="white"/>
<path opacity="0.1" d="M51.5555 118.411C51.5555 118.411 53.7482 116.976 55.1873 118.019C56.6264 119.061 51.5555 118.411 51.5555 118.411Z" fill="black"/>
<path opacity="0.1" d="M64.1945 115.7C64.1945 115.7 66.1363 115.581 67.7669 116.419C69.3976 117.257 64.1945 115.7 64.1945 115.7Z" fill="black"/>
<g opacity="0.1">
<path opacity="0.1" d="M67.0384 34.0247C66.8413 34.1782 66.5881 34.2882 66.4567 34.4924C66.3445 34.6676 66.3413 34.8834 66.2516 35.0716C66.1618 35.2598 65.9006 35.4133 65.7195 35.2946C65.6779 33.9914 64.9663 32.7678 64.0929 31.7253C63.8487 31.4107 63.5519 31.1322 63.2131 30.8999C62.8701 30.6669 62.4432 30.558 62.016 30.5944C61.5352 30.6538 61.1122 30.9492 60.6266 30.9854C59.9856 31.0346 59.4102 30.6335 58.774 30.6132C58.251 30.6179 57.7556 30.8264 57.415 31.1852C57.0805 31.5417 56.8321 31.9575 56.6859 32.4058C56.4341 33.0862 56.2968 33.7969 56.2788 34.5141C56.2692 34.9181 56.2275 35.422 55.8141 35.5726C55.8237 35.6796 55.8237 35.7871 55.8141 35.8941C56.2308 35.7493 56.2724 35.2396 56.282 34.8341C56.2999 34.1169 56.4371 33.4062 56.6891 32.7259C56.8354 32.2771 57.0837 31.8608 57.4183 31.5038C57.7595 31.146 58.2546 30.9381 58.7772 30.9332C59.4183 30.9535 59.9952 31.3532 60.6298 31.3054C61.1106 31.2692 61.5368 30.9723 62.0192 30.9144C62.4464 30.878 62.8733 30.9869 63.2163 31.2199C63.5551 31.4522 63.852 31.7307 64.0961 32.0453C64.9695 33.0864 65.6811 34.3071 65.7227 35.6131C65.9038 35.7333 66.165 35.5769 66.2548 35.3916C66.3445 35.2063 66.3477 34.9891 66.4599 34.8124C66.5913 34.6082 66.8445 34.4996 67.0417 34.3462C67.5417 33.9566 67.6667 33.3007 67.6474 32.7056C67.6474 32.6868 67.6474 32.6679 67.6474 32.6506C67.617 33.166 67.4647 33.6917 67.0384 34.0247Z" fill="black"/>
<path opacity="0.1" d="M55.2084 33.9218C54.8398 33.5555 54.3366 33.3108 53.9984 32.9227C53.7137 32.5792 53.5511 32.1657 53.5321 31.7368C53.4816 32.2727 53.6473 32.807 53.9984 33.2413C54.3366 33.6308 54.8398 33.8755 55.2084 34.2418C55.5622 34.6002 55.7747 35.0544 55.8125 35.5334C55.8621 34.9444 55.6439 34.3624 55.2084 33.9218Z" fill="black"/>
<path opacity="0.1" d="M67.96 29.5504C67.8654 29.9051 67.6972 30.2425 67.6202 30.6002C67.5747 30.8392 67.558 31.0819 67.5706 31.3242C67.5759 31.1862 67.5925 31.0487 67.6202 30.9129C67.6972 30.5538 67.8654 30.2179 67.96 29.8631C68.0151 29.6675 68.033 29.4648 68.0129 29.2637C68.0029 29.3603 67.9852 29.4561 67.96 29.5504Z" fill="black"/>
</g>
<path opacity="0.1" d="M21.4167 126.389C30.5447 126.389 37.9445 125.083 37.9445 123.472C37.9445 121.861 30.5447 120.556 21.4167 120.556C12.2887 120.556 4.88892 121.861 4.88892 123.472C4.88892 125.083 12.2887 126.389 21.4167 126.389Z" fill="#F8765E"/>
<path d="M22.4166 72.9166H21.4166V96.25H22.4166V72.9166Z" fill="#535461"/>
<path d="M28.2185 96.8236L28.1561 97.8498L28.0665 99.302L28.0298 99.9055L27.9418 101.358L27.9034 101.961L27.8138 103.413L26.8028 119.883C26.7116 121.354 25.5027 122.5 24.0418 122.5H18.7853C17.3247 122.499 16.1163 121.353 16.0259 119.883L15.0197 103.402L14.9301 101.95L14.8933 101.346L14.8038 99.8942L14.767 99.2907L14.6774 97.8385L14.6134 96.8123C14.5909 96.4131 14.7326 96.0223 15.0051 95.7318C15.2776 95.4414 15.6567 95.2772 16.0531 95.2778H26.8044C27.1993 95.2813 27.5753 95.4493 27.8431 95.7421C28.1109 96.0348 28.2468 96.4263 28.2185 96.8236Z" fill="#3F3D56"/>
<path d="M28.2222 97.2222L28.1318 98.1944H14.7015L14.6111 97.2222H28.2222Z" fill="#9D9CB5"/>
<path d="M28.2222 99.1666L28.1317 100.139H14.7032L14.6111 99.1666H28.2222Z" fill="#9D9CB5"/>
<path d="M28.2222 102.083L28.1299 103.056H14.705L14.6111 102.083H28.2222Z" fill="#9D9CB5"/>
<path d="M14.0193 82.6017C19.9241 87.1665 22.3889 94.3056 22.3889 94.3056C22.3889 94.3056 15.2727 94.0447 9.36633 89.48C3.45992 84.9152 1 77.7778 1 77.7778C1 77.7778 8.11292 78.037 14.0193 82.6017Z" fill="#9BDBE7"/>
<path d="M1 77.7778C1 77.7778 8.38618 82.1577 10.755 85.7843C13.1238 89.4109 22.3889 94.3056 22.3889 94.3056" stroke="#535461" stroke-width="2"/>
<path d="M16.8505 73.2431C20.0701 75.3899 21.4167 78.7499 21.4167 78.7499C21.4167 78.7499 17.5359 78.6274 14.3146 76.4806C11.0933 74.3337 9.75 70.9722 9.75 70.9722C9.75 70.9722 13.6292 71.0947 16.8505 73.2431Z" fill="#9BDBE7"/>
<path d="M9.75 70.9722C9.75 70.9722 13.7782 73.0339 15.0697 74.74C16.3611 76.4462 21.4167 78.7499 21.4167 78.7499" stroke="#535461" stroke-width="2"/>
<path d="M26.9435 80.1565C23.1842 84.1827 22.3889 89.4444 22.3889 89.4444C22.3889 89.4444 27.6894 88.1767 31.4454 84.149C35.2014 80.1212 36 74.8611 36 74.8611C36 74.8611 30.7028 76.1304 26.9435 80.1565Z" fill="#9BDBE7"/>
<path d="M36 74.8611C36 74.8611 31.1041 78.9888 29.8596 81.8326C28.615 84.6764 22.3889 89.4444 22.3889 89.4444" stroke="#535461" stroke-width="2"/>
<path d="M165.272 77.3383C165.272 77.3383 162.556 63.6977 163.596 62.0005C163.596 62.0005 163.634 60.4228 163.571 58.4118C163.571 58.3354 163.571 58.259 163.571 58.181C163.754 58.3041 163.945 58.415 164.142 58.5131C165.099 59.0099 166.199 59.1532 167.25 58.9183L166.428 57.9933C166.23 57.7724 166.025 57.5333 165.982 57.241C165.939 56.9487 166.058 56.688 166.16 56.4273C166.941 54.4345 166.982 51.9286 165.477 50.4074C164.206 49.1287 163.897 47.478 162.517 46.3106C161.509 45.4554 160.955 44.2016 160.432 42.9893C159.989 41.9647 159.544 40.9317 159.29 39.8457C159.093 38.9971 159.014 38.1186 158.743 37.2899C158.471 36.4612 157.963 35.6558 157.169 35.2855C156.886 35.1543 156.572 35.0796 156.314 34.9052C155.975 34.6744 155.771 34.2991 155.526 33.9703C154.281 32.3096 150.112 33.2877 148.139 33.962C147.602 34.1317 147.105 34.4097 146.678 34.779L146.696 34.7491C146.711 34.7242 146.729 34.6993 146.746 34.6744C146.53 34.8508 146.343 35.061 146.193 35.2971C145.905 35.7571 145.785 36.2935 145.545 36.7917C145.256 37.3812 143.646 39.027 144.338 39.6896C144.387 39.7341 144.442 39.77 144.502 39.7958C144.762 39.9051 145.049 39.934 145.325 39.8789L145.295 39.9503C145.059 40.5349 144.937 41.1605 144.938 41.7919C144.938 44.5204 147.167 46.7324 149.918 46.7324C150.435 46.7329 150.949 46.6528 151.442 46.4949C151.454 46.558 151.464 46.6211 151.475 46.6842C151.475 46.7091 151.484 46.7341 151.487 46.759L151.4 46.8819C151.395 46.8743 151.39 46.8671 151.385 46.8603L148.803 50.5037C148.408 50.7844 146.135 52.4451 146.007 53.6905C145.872 55.0539 145.738 56.6498 145.738 56.6498L145.719 56.9919C145.491 57.1846 145.191 57.2666 144.897 57.2161C144.091 57.0833 144.091 60.2053 144.091 60.2053C144.091 60.2053 143.555 60.7035 143.187 60.2717C142.818 59.84 141.845 61.303 141.845 61.303L135.744 61.5687L135.604 61.577L135.275 60.549C135.201 60.3234 134.961 60.1997 134.737 60.2717C134.712 60.2802 134.687 60.2907 134.663 60.3033L134.64 60.3166L134.597 60.3465L134.576 60.3664C134.564 60.3772 134.553 60.3888 134.543 60.4013L134.523 60.4245L134.513 60.4345C134.436 60.542 134.414 60.68 134.454 60.8064L134.737 61.6883C133.56 61.9274 132.356 62.6016 133.338 64.4582L128.361 63.5299L129.971 64.895L138.283 66.627C138.173 66.8263 138.245 67.1153 138.589 67.5221C140.069 69.2775 142.766 69.7541 143.851 69.877C144.138 70.5244 144.496 71.1372 144.919 71.7037L144.825 73.4523C144.825 73.4523 142.077 86.7808 141.573 87.4566C141.828 87.166 142.06 86.8568 142.269 86.5317C141.472 89.2701 140.356 93.0182 140.064 93.5795C139.593 94.4762 139.158 98.1048 139.694 98.3373C139.858 98.4087 140.329 98.3738 141 98.3223V98.6229L140.97 110.013C140.97 110.013 141.105 117 140.735 117.666C140.365 118.332 140.266 119.728 140.266 119.728C140.266 119.728 138.786 122.483 137.613 123.591C137.605 123.599 137.597 123.607 137.587 123.614L137.551 123.355C137.551 123.355 136.141 125.152 133.023 125.051C133.023 125.051 131.147 126.283 133.93 126.349C136.712 126.416 140.266 126.25 140.266 126.25C140.266 126.25 142.748 122.43 144.826 122.928V125.823H145.463V122.882C146.059 122.485 146.469 121.859 146.596 121.15C146.707 120.413 146.424 119.673 145.853 119.202C145.597 118.969 145.45 118.639 145.446 118.292L145.423 118.312C145.423 118.254 145.409 118.194 145.402 118.132C145.219 116.638 144.991 113.554 145.798 111.272C146.905 108.143 147.241 103.786 146.435 101.192C146.175 100.363 145.961 99.5195 145.795 98.6661C145.775 98.5581 145.757 98.4552 145.741 98.3588C146.292 98.4341 146.837 98.545 147.374 98.691C149.24 99.2108 153.324 99.3071 156.81 99.2789C156.819 99.3752 156.828 99.4765 156.84 99.5778C156.902 100.282 157.032 100.978 157.228 101.657C157.665 102.985 157.866 108.843 157.866 108.843C157.866 108.843 158.43 113.658 158.123 115.618C157.958 116.707 157.794 117.802 157.7 118.901V118.923C157.7 118.923 156.776 121.58 156.1 123.023C156.083 123.059 156.065 123.096 156.049 123.131C155.869 123.147 155.691 123.187 155.521 123.249C155.521 123.249 154.615 125.075 153.712 125.378C152.809 125.68 153.108 126.675 155.153 126.309C157.197 125.944 160.284 125.645 160.284 125.645L160.417 123.782L161.045 122.988L160.881 124.846L161.55 124.713L161.461 122.453L162.489 121.155C162.489 121.155 163.731 120.039 161.885 117.843V117.891C161.866 117.86 161.848 117.827 161.826 117.795V117.785C161.52 117.307 161.277 116.415 161.723 114.833C162.528 111.973 162.997 109.377 162.997 109.377C162.997 109.377 164.796 102.424 162.634 99.1344H162.729C162.507 98.6715 162.351 98.1796 162.264 97.673C162.253 97.6132 162.243 97.5518 162.234 97.4887C163.834 97.3957 165.405 97.1034 166.686 96.4723C166.681 96.4657 165.91 79.9654 165.272 77.3383ZM144.956 65.8299V65.8631L144.627 65.8798L144.956 65.8299ZM143.828 65.9877C143.774 65.9998 143.723 66.0242 143.68 66.0591C143.539 66.2611 143.45 66.4959 143.422 66.7416L142.909 66.6254C142.909 66.6254 142.549 66.5473 142.031 66.4593L141.786 66.2102C142.46 66.1538 143.16 66.0707 143.828 65.9877Z" fill="url(#paint1_linear_20_112)"/>
<path d="M162.679 122.009L162.389 125.417L163.361 125.224L163.215 121.528L162.679 122.009Z" fill="#1D2366"/>
<path d="M147.649 111.785C146.803 114.137 147.042 117.311 147.232 118.853C147.302 119.422 147.367 119.769 147.367 119.769C147.367 119.769 146.103 122.581 145.998 122.688C145.892 122.794 142.278 124.949 142.278 124.949L139.751 126.389C139.751 126.389 137.188 125.292 138.417 124.914C138.668 124.816 138.894 124.665 139.08 124.473C140.31 123.331 141.856 120.494 141.856 120.494C141.856 120.494 141.961 119.053 142.348 118.368C142.735 117.683 142.594 110.485 142.594 110.485L142.624 98.7517V97.2222L147.432 97.2565C147.463 97.7758 147.532 98.2922 147.64 98.8015C147.812 99.6807 148.036 100.55 148.31 101.404C149.157 104.08 148.805 108.563 147.649 111.785Z" fill="#FFB0B1"/>
<path opacity="0.1" d="M145.861 119.436C145.861 119.436 144.802 121.977 144.714 122.073C144.625 122.169 141.597 124.115 141.597 124.115L139.481 125.417C139.481 125.417 137.333 124.426 138.363 124.084C138.573 123.995 138.763 123.859 138.918 123.686L139.009 124.364L139.715 124.333L145.754 118.611C145.807 119.123 145.861 119.436 145.861 119.436Z" fill="black"/>
<path d="M145.718 119.583L139.088 125.551L138.318 125.583L138.157 124.459C138.157 124.459 136.809 126.191 133.815 126.094C133.815 126.094 132.017 127.282 134.682 127.346C137.347 127.41 140.749 127.25 140.749 127.25C140.749 127.25 143.126 123.554 145.115 124.036V126.827H145.726V124.01C146.3 123.624 146.692 123.02 146.81 122.339C146.918 121.633 146.649 120.921 146.101 120.462C145.858 120.234 145.719 119.917 145.718 119.583Z" fill="#1D2366"/>
<path d="M162.467 114.484C162.044 116.018 162.275 116.882 162.564 117.345V117.355C162.936 117.927 163.194 118.566 163.325 119.238L163.351 119.384L160.364 123.799L158.744 124.444C158.744 124.444 156.138 123.542 156.614 123.284C156.733 123.221 156.919 122.885 157.133 122.422C157.769 121.025 158.648 118.449 158.648 118.449V118.428C158.74 117.364 158.887 116.304 159.049 115.248C159.341 113.348 158.806 108.684 158.806 108.684C158.806 108.684 158.615 103.013 158.201 101.724C158.014 101.068 157.89 100.395 157.83 99.7154C157.744 98.9082 157.725 98.2432 157.725 98.2432C157.725 98.2432 159.441 95.8218 162.587 98.4369C162.838 98.6455 163.059 98.8889 163.244 99.1601C165.417 102.295 163.668 109.201 163.668 109.201C163.668 109.201 163.23 111.713 162.467 114.484Z" fill="#FFB0B1"/>
<path opacity="0.1" d="M163.361 119.62L160.37 123.829L158.747 124.444C158.747 124.444 156.137 123.584 156.614 123.338C156.733 123.278 156.92 122.958 157.133 122.516C158.238 122.507 158.811 123.523 158.811 123.523L160.211 123.307C160.211 123.307 162.057 119.804 162.471 119.59C162.886 119.376 162.535 117.991 162.535 117.991V117.639C162.546 117.651 162.556 117.665 162.569 117.677V117.687C162.941 118.232 163.2 118.842 163.331 119.483L163.361 119.62Z" fill="black"/>
<path d="M158.9 123.437C158.9 123.437 158.14 122.045 156.686 122.559C156.686 122.559 155.867 124.227 155.049 124.497C154.23 124.767 154.503 125.677 156.353 125.345C158.203 125.013 160.991 124.738 160.991 124.738L161.112 123.041L162.993 120.65C162.993 120.65 164.113 119.636 162.446 117.639V117.986C162.446 117.986 162.78 119.351 162.385 119.562C161.99 119.772 160.238 123.225 160.238 123.225L158.9 123.437Z" fill="#1D2366"/>
<path opacity="0.1" d="M146.592 97.2433C146.628 97.563 146.708 97.8808 146.833 98.1944C144.533 98.02 142.399 98.1067 141 98.1637V97.2222L146.592 97.2433Z" fill="black"/>
<path opacity="0.1" d="M164.333 99.0483C164.333 99.0483 161.287 99.1465 157.654 99.1666C157.551 98.5371 157.528 98.0184 157.528 98.0184C157.528 98.0184 159.581 96.13 163.343 98.1695C163.644 98.3322 163.909 98.5221 164.13 98.7335C164.189 98.8409 164.257 98.9459 164.333 99.0483Z" fill="black"/>
<path d="M163.361 99.0043C163.361 99.0043 151.566 99.5803 147.971 98.5626C144.375 97.5448 140.812 98.4266 140.275 98.1905C139.738 97.9543 140.174 94.2554 140.646 93.3395C141.117 92.4237 143.702 83.1619 143.702 83.1619L146.19 70.0687L148.81 69.3398L148.996 69.2871L153.562 68.0162L156.908 67.0834C156.908 67.0834 163.561 93.3056 162.991 95.2391C162.784 95.9795 162.75 96.7585 162.893 97.5142C162.98 98.0303 163.138 98.5318 163.361 99.0043Z" fill="#1D2366"/>
<path d="M136.497 62.2222C136.497 62.2222 133.969 64.8936 135.883 66.3825C137.797 67.8714 139.056 66.525 139.056 66.525L136.497 62.2222Z" fill="#C7DAF5"/>
<path opacity="0.1" d="M136.497 62.2222C136.497 62.2222 133.969 64.8936 135.883 66.3825C137.797 67.8714 139.056 66.525 139.056 66.525L136.497 62.2222Z" fill="black"/>
<path d="M156.555 45.02C156.555 45.02 156.236 45.2589 155.755 45.6111C155.069 46.1149 154.055 46.8514 153.155 47.4685C151.908 48.3214 150.88 48.9477 151.248 48.4133C151.616 47.8789 151.546 46.9479 151.363 46.0766C151.349 46.0184 151.338 45.9602 151.324 45.9036C151.172 45.2637 150.971 44.6317 150.722 44.011C150.722 44.011 152.736 41.9652 153.85 41.1583C154.265 40.852 154.555 40.7265 154.573 40.9393C154.592 41.2257 154.865 41.8581 155.204 42.5287C155.214 42.5502 155.223 42.5701 155.235 42.5915C155.461 43.0509 155.716 43.5225 155.94 43.9298C156.283 44.5546 156.555 45.02 156.555 45.02Z" fill="#FFB0B1"/>
<path opacity="0.1" d="M155.583 42.7881C155.168 44.6021 153.57 46.0886 151.412 46.6667C151.246 45.8888 151.015 45.1208 150.722 44.3678C150.722 44.3678 154.807 40.0819 154.87 40.9493C154.885 41.2782 155.204 42.0076 155.583 42.7881Z" fill="black"/>
<path opacity="0.1" d="M150.932 48.2391L151.339 47.6389C151.339 47.6389 151.608 49.36 152.599 48.6009C153.59 47.8418 153.639 54.3138 153.639 54.3138L152.575 70.9722L144.889 70.4904L145.107 62.441L145.977 58.3833L148.128 52.4845L149.408 50.5351L150.932 48.2391Z" fill="black"/>
<path d="M153.639 54.3198L152.67 69.3768L152.568 70.9722L148.28 70.7035L148.119 70.6934L144.889 70.4906L145.107 62.4424L145.977 58.3862L148.13 52.4895L149.411 50.5408L150.935 48.2372L151.342 47.6389C151.342 47.6389 151.612 49.3594 152.604 48.6006L152.625 48.5854C153.594 47.9431 153.639 54.3198 153.639 54.3198Z" fill="#1D2366"/>
<path d="M147.408 57.3611C147.408 57.3611 147.009 58.0887 146.208 57.9708C145.407 57.8529 145.409 60.5901 145.409 60.5901C145.409 60.5901 144.877 61.0267 144.509 60.6483C144.142 60.27 143.175 61.5491 143.175 61.5491L137.111 61.7819C137.111 61.7819 139.809 62.8573 139.28 66.1111C139.28 66.1111 148.441 65.6163 148.741 64.8611C149.041 64.1058 147.408 57.3611 147.408 57.3611Z" fill="white"/>
<path opacity="0.03" d="M147.408 57.3611C147.408 57.3611 147.009 58.0887 146.208 57.9708C145.407 57.8529 145.409 60.5901 145.409 60.5901C145.409 60.5901 144.877 61.0267 144.509 60.6483C144.142 60.27 143.175 61.5491 143.175 61.5491L137.111 61.7819C137.111 61.7819 139.809 62.8573 139.28 66.1111C139.28 66.1111 148.441 65.6163 148.741 64.8611C149.041 64.1058 147.408 57.3611 147.408 57.3611Z" fill="black"/>
<path d="M129.333 64.1666L130.913 65.7732L143.917 69.0277L142.304 67.0676L129.333 64.1666Z" fill="white"/>
<path d="M151.311 49.1653C151.119 49.4918 150.57 51.1635 150.111 52.623C149.728 53.8392 149.409 54.9085 149.409 54.9085C149.409 54.9085 148.663 60.3187 148.282 61.2965C147.901 62.2744 148.108 66.088 148.108 66.088L146.687 75.5059C146.687 75.5059 146.044 80.3627 145.05 83.2637C144.07 86.1189 142.978 87.4576 142.944 87.5C143.384 86.8372 145.78 73.7869 145.78 73.7869L146.572 57.3279C146.572 57.3279 146.687 55.7639 146.805 54.4269C146.922 53.0899 149.296 51.2647 149.296 51.2647L151.585 47.6389C151.815 47.9817 151.662 48.5792 151.311 49.1653Z" fill="white"/>
<path d="M144.671 70C144.671 70 140.49 69.8241 138.464 67.4713C136.439 65.1185 143.146 66.5323 143.146 66.5323L144.889 66.9192L144.671 70Z" fill="#FFB0B1"/>
<path opacity="0.1" d="M163.328 95.87C163.13 96.5967 163.098 97.3611 163.234 98.1028C159.191 98.3996 154.865 97.2691 154.865 97.2691C154.059 98.0361 151.937 99.1666 151.937 99.1666L150.78 84.3261C150.04 82.3251 149.75 71.8417 149.75 71.8417C149.75 71.8417 149.816 71.2931 149.911 70.471C149.911 70.451 149.911 70.4293 149.919 70.4093C150.208 68.1132 150.78 63.8028 151.06 63.2208C151.447 62.4204 149.871 60.2911 149.871 60.2911L150.588 53.963L150.675 53.1993C152.187 52.5006 153.346 50.2695 153.346 50.2695L154.235 48.6571C155.202 48.0151 155.252 54.3065 155.252 54.3065L154.285 69.1621L157.489 68.2466C157.489 68.2466 163.874 93.9724 163.328 95.87Z" fill="black"/>
<path d="M166.278 96.1624C161.634 98.3914 153.194 96.3265 153.194 96.3265C152.346 97.0815 150.109 98.1944 150.109 98.1944L148.889 83.5863C148.111 81.6167 147.806 71.2974 147.806 71.2974C147.806 71.2974 148.787 63.5978 149.194 62.8116C149.313 62.5818 149.255 62.2404 149.115 61.8727C148.422 60.1228 148.167 58.2392 148.371 56.3758L148.697 53.6988L148.787 52.9487C150.381 52.2593 151.602 50.0632 151.602 50.0632L152.451 48.6253L154.013 45.9762L154.753 44.7222L154.879 44.8321L155.838 45.6725C155.838 45.6725 156.245 46.0008 156.857 46.4932C158.186 47.5765 160.483 49.4837 161.668 50.6508C162.711 51.6782 163.04 55.675 163.135 58.6836C163.198 60.6647 163.161 62.2174 163.161 62.2174C162.11 63.89 164.858 77.3179 164.858 77.3179C165.498 79.9129 166.278 96.1624 166.278 96.1624Z" fill="white"/>
<path opacity="0.03" d="M158.637 49.8176C158.637 49.8176 155.354 55.7516 155.735 58.007C156.117 60.2623 157.201 62.8149 156.678 63.4112C156.314 63.8691 155.745 64.1388 155.141 64.1402C154.616 64.1735 153.216 65.1018 153.216 65.2015C153.216 65.3011 151.924 65.3011 150.768 65.7662C149.611 66.2312 147.904 66.4952 147.904 66.4952C147.904 66.4952 144.581 66.3956 144.271 66.6945C143.962 66.9935 143.643 68.7821 144.306 70.2087C144.969 71.6354 145.706 72.6999 146.262 72.8942C146.818 73.0886 150.348 71.9659 153.211 71.7001C156.075 71.4344 159.183 69.2804 159.183 69.2804C159.183 69.2804 162.606 68.1178 163.206 66.1631C163.806 64.2083 162.473 53.4647 162.473 53.4647C162.473 53.4647 161.465 48.4574 158.637 49.8176Z" fill="black"/>
<path opacity="0.03" d="M158.64 49.8172C158.64 49.8172 155.355 55.7529 155.74 58.0067C156.125 60.2604 157.207 62.8147 156.682 63.4126C156.319 63.8711 155.75 64.1411 155.145 64.1417C154.62 64.1749 153.22 65.1033 153.22 65.203C153.22 65.3026 151.927 65.3026 150.77 65.766C149.613 66.2294 147.905 66.4951 147.905 66.4951C147.905 66.4951 144.58 66.3955 144.272 66.6944C143.964 66.9934 143.642 68.7837 144.307 70.2087C144.972 71.6337 145.707 72.6999 146.263 72.8942C146.82 73.0886 150.352 71.9658 153.217 71.7018C156.082 71.4377 159.192 69.2803 159.192 69.2803C159.192 69.2803 162.615 68.1177 163.208 66.1646C163.802 64.2115 162.475 53.4643 162.475 53.4643C162.475 53.4643 161.47 48.4586 158.64 49.8172Z" fill="black"/>
<path d="M158.633 49.8153C158.633 49.8153 155.35 55.7516 155.735 58.0055C156.12 60.2594 157.2 62.8139 156.677 63.4102C156.314 63.8698 155.745 64.1405 155.14 64.141C154.615 64.1742 153.216 65.1027 153.216 65.2007C153.216 65.2987 151.925 65.3004 150.767 65.7654C149.609 66.2305 147.904 66.4946 147.904 66.4946C147.904 66.4946 144.581 66.3949 144.271 66.6939C143.962 66.9929 143.643 68.7834 144.306 70.2085C144.969 71.6336 145.705 72.6999 146.262 72.8942C146.818 73.0886 150.348 71.9658 153.211 71.7C156.074 71.4343 159.182 69.28 159.182 69.28C159.182 69.28 162.605 68.1173 163.205 66.1624C163.805 64.2075 162.481 53.4628 162.481 53.4628C162.481 53.4628 161.46 48.4633 158.633 49.8153Z" fill="white"/>
<path opacity="0.1" d="M157.955 65.2826C157.955 65.2826 156.026 64.7997 156.697 65.6045C157.369 66.4094 157.365 67.1145 158.186 67.0823C159.008 67.0501 157.955 65.2826 157.955 65.2826Z" fill="black"/>
<path opacity="0.1" d="M162.665 83.6111C162.665 83.6111 161.608 84.6184 163.631 86.9402C165.654 89.2619 162.665 83.6111 162.665 83.6111Z" fill="black"/>
<path opacity="0.1" d="M159.531 90.4166C159.531 90.521 159.048 94.2441 160.855 95.1748C162.662 96.1056 159.531 90.4166 159.531 90.4166Z" fill="black"/>
<path d="M136.152 61.25C134.908 61.2996 132.219 61.7377 133.613 64.737C134.846 67.3915 136.918 65.6172 138.083 64.2712C137.799 63.0162 137.108 61.9349 136.152 61.25Z" fill="#FFB0B1"/>
<path d="M138.058 65.1647L138.108 65.1132L138.058 65.1647Z" fill="#FFB0B1"/>
<path opacity="0.1" d="M158.5 46.4517C157.257 47.2916 156.215 48.0004 156.011 48.1476C155.454 48.5556 154.393 50.9507 153.708 52.173C153.163 53.157 151.391 53.4098 150.722 53.4722L150.808 52.741C152.328 52.069 153.491 49.9283 153.491 49.9283L156.495 44.7222L157.529 45.6517C157.529 45.6517 157.917 45.9717 158.5 46.4517Z" fill="black"/>
<path d="M158.5 46.4517C157.257 47.2916 156.215 48.0004 156.011 48.1492C155.454 48.5556 154.393 50.9507 153.708 52.173C153.163 53.157 151.391 53.4098 150.722 53.4722L150.808 52.741C152.328 52.069 153.491 49.9283 153.491 49.9283L156.495 44.7222L157.529 45.6485C157.529 45.6485 157.917 45.9653 158.5 46.4517Z" fill="#DCE7FF"/>
<path d="M154.611 42.2908C154.612 43.1762 154.343 44.0409 153.841 44.7702C152.616 46.5521 150.272 47.1714 148.327 46.2274C146.381 45.2834 145.417 43.0595 146.059 40.9943C146.7 38.929 148.754 37.6423 150.892 37.9664C153.03 38.2906 154.611 40.1283 154.611 42.2908Z" fill="#FFB0B1"/>
<path opacity="0.1" d="M164.333 58.3333C163.645 57.9392 163.084 57.3786 162.71 56.7114C162.427 56.1908 162.239 55.5897 161.756 55.2205C161.32 54.8892 160.738 54.8087 160.196 54.6604C158.412 54.1697 156.916 52.6552 156.86 50.926C156.833 50.1119 157.106 49.2994 156.982 48.4932C156.912 48.0369 156.717 47.6051 156.416 47.2389C156.266 47.0638 156.102 46.8998 155.926 46.7483C155.688 46.54 155.439 46.3381 155.222 46.1172C155.085 45.9804 154.966 45.8295 154.866 45.6675C154.785 45.5349 154.72 45.3948 154.671 45.2494C154.332 44.2839 154.64 43.1385 154.267 42.1619L154.247 42.1082C154.106 41.7611 153.819 41.4141 153.421 41.3872C153.022 41.3604 152.682 41.6681 152.302 41.8053C151.506 42.0925 150.648 41.6034 149.985 41.1048C149.322 40.6063 148.574 40.0367 147.732 40.1472C147.174 40.2213 146.733 40.5747 146.219 40.7577C146.103 40.7995 145.983 40.8317 145.861 40.854C146.758 38.7729 149.116 37.5766 151.482 38.0021C153.848 38.4276 155.557 40.3552 155.556 42.5973C155.556 42.9256 155.52 43.2529 155.446 43.5739C155.454 43.596 155.463 43.6165 155.473 43.6386C155.67 44.1119 155.892 44.5978 156.087 45.0175L157.045 45.8253C157.045 45.8253 157.452 46.1408 158.062 46.6141C159.39 47.6554 161.684 49.4887 162.868 50.6105C163.909 51.6013 164.235 55.4414 164.333 58.3333Z" fill="black"/>
<path d="M146.284 37.6776C146.527 37.2055 146.648 36.6766 146.939 36.2289C147.366 35.5799 148.11 35.1646 148.875 34.9132C150.873 34.2561 155.094 33.3022 156.356 34.9132C156.604 35.2376 156.81 35.5978 157.153 35.8217C157.415 35.992 157.731 36.065 158.018 36.1932C158.822 36.5533 159.336 37.3385 159.61 38.14C159.883 38.9414 159.965 39.8012 160.166 40.627C160.422 41.6864 160.873 42.6906 161.322 43.6884C161.85 44.8662 162.411 46.0878 163.431 46.92C164.824 48.0557 165.131 49.6634 166.424 50.9094C167.954 52.3889 167.904 54.8305 167.115 56.7692C167.012 57.0239 166.894 57.29 166.935 57.5609C166.976 57.8319 167.187 58.0784 167.386 58.2942L168.222 59.1946C166.243 59.6505 164.004 58.6641 163.083 56.9331C162.799 56.3977 162.61 55.7812 162.124 55.4C161.689 55.0593 161.104 54.9782 160.562 54.8257C158.773 54.3195 157.274 52.7604 157.218 50.9824C157.19 50.1469 157.464 49.3114 157.34 48.484C157.271 48.0116 157.075 47.5645 156.77 47.1861C156.303 46.6037 155.597 46.2127 155.217 45.5638C154.572 44.4784 155.062 43.0686 154.598 41.9038C154.455 41.5469 154.169 41.19 153.77 41.1624C153.37 41.1348 153.029 41.4512 152.646 41.5923C151.85 41.8876 150.99 41.3863 150.325 40.872C149.661 40.3577 148.911 39.7737 148.064 39.8889C147.505 39.9635 147.065 40.3269 146.55 40.5167C146.169 40.6562 145.397 40.7811 145.064 40.4745C144.36 39.8564 145.99 38.2552 146.284 37.6776Z" fill="#591D4B"/>
<path opacity="0.1" d="M163.593 56.316C163.307 55.7672 163.12 55.1351 162.634 54.7459C162.199 54.3967 161.614 54.3118 161.07 54.1555C159.283 53.6382 157.783 52.0398 157.726 50.2169C157.698 49.3604 157.972 48.5021 157.85 47.6539C157.778 47.1728 157.582 46.7175 157.28 46.3316C156.811 45.7345 156.105 45.3337 155.726 44.6684C155.082 43.5573 155.572 42.112 155.106 40.9161C154.965 40.5519 154.677 40.186 154.279 40.156C153.882 40.1261 153.536 40.4538 153.156 40.5985C152.36 40.9012 151.498 40.3856 150.835 39.86C150.172 39.3344 149.419 38.734 148.574 38.8504C148.014 38.9286 147.572 39.3011 147.059 39.4941C146.678 39.6371 145.904 39.7668 145.571 39.4525C144.871 38.7872 146.501 37.1489 146.794 36.5601C147.037 36.0745 147.157 35.5339 147.45 35.0748C147.465 35.0499 147.482 35.0249 147.499 35C147.28 35.1773 147.092 35.3872 146.94 35.6221C146.649 36.0811 146.528 36.62 146.285 37.1073C145.991 37.6961 144.361 39.3394 145.063 39.9997C145.403 40.3157 146.168 40.186 146.549 40.0429C147.059 39.8483 147.504 39.4758 148.064 39.3993C148.914 39.2812 149.662 39.8816 150.325 40.4072C150.988 40.9328 151.855 41.4484 152.647 41.1457C153.028 41.001 153.361 40.675 153.769 40.7049C154.177 40.7348 154.449 41.0991 154.597 41.465C155.061 42.6592 154.572 44.1046 155.216 45.2173C155.597 45.8709 156.303 46.2801 156.77 46.8805C157.074 47.2684 157.271 47.7268 157.34 48.2111C157.464 49.0593 157.19 49.9159 157.217 50.7725C157.273 52.602 158.773 54.1937 160.561 54.7127C161.1 54.869 161.689 54.9522 162.124 55.3015C162.612 55.6923 162.804 56.3243 163.083 56.8732C164.004 58.6479 166.243 59.6591 168.222 59.1918L167.828 58.756C166.112 58.7809 164.377 57.8262 163.593 56.316Z" fill="black"/>
<path opacity="0.1" d="M151.076 49.4386C150.765 49.8195 149.875 51.7697 149.132 53.4722C148.437 53.2551 147.806 51.8706 147.806 51.8706L151.513 47.6389C151.893 48.0579 151.643 48.753 151.076 49.4386Z" fill="black"/>
<path d="M151.076 48.465C150.765 48.846 149.875 50.7968 149.132 52.5C148.437 52.2847 147.806 50.8978 147.806 50.8978L151.513 46.6666C151.893 47.0838 151.643 47.7811 151.076 48.465Z" fill="#DCE7FF"/>
<path d="M136.418 65.4182L135.184 60.836C135.154 60.7277 135.163 60.61 135.207 60.5089C135.252 60.4078 135.328 60.3317 135.421 60.2975C135.612 60.2272 135.815 60.3515 135.877 60.576L137.111 65.1531L136.988 66.1112L136.418 65.4182Z" fill="#BE8B87"/>
<path opacity="0.1" d="M135.244 60.4266C135.442 60.3553 135.653 60.4798 135.716 60.7052L136.988 65.2823L136.892 66.0004L136.985 66.1112L137.111 65.1531L135.832 60.576C135.769 60.3515 135.559 60.2272 135.362 60.2975C135.282 60.327 135.214 60.386 135.167 60.4652C135.192 60.4499 135.218 60.437 135.244 60.4266Z" fill="white"/>
<path d="M136.139 66.3733L137.111 66.1111L136.969 66.9079L136.939 67.0833L136.655 66.8313L136.139 66.3733Z" fill="#EFC8C4"/>
<path d="M136.98 66.0204C136.994 66.0026 137.012 65.9879 137.032 65.9771C137.056 65.9621 137.086 65.9621 137.11 65.9771C137.122 65.9908 137.131 66.0059 137.139 66.022C137.161 66.0592 137.199 66.0843 137.242 66.0902L137.217 66.2565L136.98 66.0204Z" fill="#727A9C"/>
<path d="M135.167 64.1666C135.167 64.1666 137.596 64.1542 137.024 65.077C136.452 65.9999 135.558 66.1111 135.558 66.1111L135.167 64.1666Z" fill="#FFB0B1"/>
<path d="M117.406 7.77783H117.282C112.365 7.77783 108.016 10.3816 105.515 14.2237C103.013 10.3816 98.6644 7.77783 93.7472 7.77783H93.6236C85.9431 7.85107 79.7542 14.1 79.75 21.786C79.75 26.3718 81.7571 32.8787 85.6709 38.2329C93.1275 48.4352 105.515 57.3612 105.515 57.3612C105.515 57.3612 117.902 48.4369 125.357 38.2329C129.272 32.8787 131.278 26.3718 131.278 21.786C131.274 14.1006 125.086 7.85197 117.406 7.77783ZM115.638 39.0179C114.491 39.0135 113.466 38.3047 113.055 37.2337H110.116C109.719 37.2312 109.367 36.9768 109.241 36.6004L108.338 33.878L105.48 43.8692C105.366 44.2642 105.005 44.5364 104.594 44.537H104.536C104.106 44.5162 103.748 44.1973 103.679 43.7719L100.734 26.0486L98.5821 36.5361C98.4805 36.9461 98.1126 37.2339 97.6905 37.2337H93.5494C93.2113 37.248 92.8926 37.0756 92.7193 36.7848C92.546 36.494 92.546 36.1314 92.7193 35.8406C92.8926 35.5498 93.2113 35.3774 93.5494 35.3917H96.9655L100.014 21.2913C100.117 20.8613 100.51 20.5646 100.952 20.5831C101.393 20.6015 101.76 20.9301 101.827 21.3671L104.834 39.4466L107.395 30.5074C107.504 30.1208 107.855 29.8524 108.257 29.8479H108.275C108.672 29.848 109.024 30.1034 109.148 30.4811L110.781 35.3967H113.019C113.461 34.0544 114.843 33.2616 116.224 33.5589C117.604 33.8562 118.538 35.1479 118.389 36.5531C118.24 37.9583 117.055 39.0244 115.643 39.0245L115.638 39.0179Z" fill="#9BDBE7"/>
<defs>
<linearGradient id="paint0_linear_20_112" x1="59.8177" y1="127.365" x2="59.8177" y2="25.278" gradientUnits="userSpaceOnUse">
<stop stop-color="#808080" stop-opacity="0.25"/>
<stop offset="0.54" stop-color="#808080" stop-opacity="0.12"/>
<stop offset="1" stop-color="#808080" stop-opacity="0.1"/>
</linearGradient>
<linearGradient id="paint1_linear_20_112" x1="147.8" y1="126.389" x2="147.8" y2="33.0602" gradientUnits="userSpaceOnUse">
<stop stop-color="#808080" stop-opacity="0.25"/>
<stop offset="0.54" stop-color="#808080" stop-opacity="0.12"/>
<stop offset="1" stop-color="#808080" stop-opacity="0.1"/>
</linearGradient>
</defs>
</svg>
